<?xml version="1.0" encoding="utf-8"?>
<!-- Generator: Adobe Illustrator 16.0.4, SVG Export Plug-In . SVG Version: 6.00 Build 0)  -->
<!DOCTYPE svg PUBLIC "-//W3C//DTD SVG 1.1//EN" "http://www.w3.org/Graphics/SVG/1.1/DTD/svg11.dtd">
<svg version="1.1" id="Layer_1" xmlns="http://www.w3.org/2000/svg" xmlns:xlink="http://www.w3.org/1999/xlink" x="0px" y="0px"
	 width="215.146px" height="253.064px" viewBox="0 0 215.146 253.064" enable-background="new 0 0 215.146 253.064"
	 xml:space="preserve">
<path opacity="0.2" fill="#FFFFFF" d="M205.156,164.414c1.186,2.728-21.482,12.24-21.062,15.048
	c0.434,2.906,24.857,5.417,24.529,8.269c-0.335,2.892-24.71-0.212-25.773,2.478c-1.062,2.69,18.854,17.08,17.126,19.421
	c-1.708,2.308-21.259-12.549-23.562-10.723c-2.224,1.763,7.826,24.195,5.097,25.379c-4.604,1.998-14.397-20.574-19.001-18.577
	c-4.609,1.998,5.182,24.57,0.574,26.568c-4.607,1.999-14.397-20.573-19.008-18.575c-4.607,1.998,5.182,24.571,0.574,26.569
	c-4.609,1.999-14.4-20.573-19.01-18.574c-4.61,2,5.178,24.572,0.565,26.572c-2.726,1.183-12.235-21.481-15.042-21.063
	c-2.906,0.434-5.422,24.858-8.273,24.528c-2.893-0.335,0.215-24.709-2.477-25.772c-2.689-1.064-17.079,18.855-19.42,17.123
	c-2.309-1.707,12.548-21.259,10.724-23.56c-1.764-2.225-24.194,7.824-25.378,5.095c-4.936-11.378,17.638-21.169,12.701-32.547
	c-4.935-11.376-27.506-1.586-32.439-12.961c-4.938-11.381,17.635-21.171,12.698-32.551c-4.937-11.38-27.509-1.59-32.442-12.971
	c-4.938-11.382,17.634-21.172,12.696-32.555C34.617,89.653,12.045,99.444,7.11,88.062c-1.185-2.728,21.482-12.24,21.062-15.047
	c-0.435-2.906-24.859-5.419-24.528-8.271c0.337-2.893,24.712,0.212,25.775-2.479c1.062-2.689-18.857-17.076-17.128-19.416
	C14,40.541,33.549,55.396,35.851,53.57c2.226-1.763-7.822-24.196-5.093-25.379c4.605-1.998,14.396,20.574,19,18.577
	c4.607-1.998-5.182-24.57-0.573-26.568c4.609-2,14.398,20.573,19.009,18.574c4.604-1.998-5.185-24.57-0.578-26.569
	c4.611-1.999,14.402,20.573,19.011,18.574c4.612-2-5.177-24.572-0.566-26.572c2.728-1.184,12.236,21.481,15.046,21.063
	c2.904-0.434,5.422-24.858,8.271-24.528c2.892,0.335-0.215,24.709,2.475,25.772c2.691,1.063,17.078-18.856,19.422-17.123
	c2.307,1.707-12.551,21.258-10.723,23.56c1.763,2.226,24.193-7.824,25.377-5.096c4.936,11.378-17.639,21.169-12.702,32.548
	c4.935,11.376,27.506,1.586,32.44,12.961c4.938,11.38-17.635,21.171-12.7,32.55c4.938,11.38,27.511,1.592,32.445,12.972
	c4.937,11.382-18.853,26.592-10.593,35.849C184.24,165.296,200.222,153.032,205.156,164.414z"/>
<path opacity="0.5" fill="#F8AD3B" d="M205.156,164.414c1.186,2.728-21.482,12.24-21.062,15.048
	c0.434,2.906,24.857,5.417,24.529,8.269c-0.335,2.892-24.71-0.212-25.773,2.478c-1.062,2.69,18.854,17.08,17.126,19.421
	c-1.708,2.308-21.259-12.549-23.562-10.723c-2.224,1.763,7.826,24.195,5.097,25.379c-4.604,1.998-14.397-20.574-19.001-18.577
	c-4.609,1.998,5.182,24.57,0.574,26.568c-4.607,1.999-14.397-20.573-19.008-18.575c-4.607,1.998,5.182,24.571,0.574,26.569
	c-4.609,1.999-14.4-20.573-19.01-18.574c-4.61,2,5.178,24.572,0.565,26.572c-2.726,1.183-12.235-21.481-15.042-21.063
	c-2.906,0.434-5.422,24.858-8.273,24.528c-2.893-0.335,0.215-24.709-2.477-25.772c-2.689-1.064-17.079,18.855-19.42,17.123
	c-2.309-1.707,12.548-21.259,10.724-23.56c-1.764-2.225-24.194,7.824-25.378,5.095c-4.936-11.378,17.638-21.169,12.701-32.547
	c-4.935-11.376-27.506-1.586-32.439-12.961c-4.938-11.381,17.635-21.171,12.698-32.551c-4.937-11.38-27.509-1.59-32.442-12.971
	c-4.938-11.382,17.634-21.172,12.696-32.555C34.617,89.653,12.045,99.444,7.11,88.062c-1.185-2.728,21.482-12.24,21.062-15.047
	c-0.435-2.906-24.859-5.419-24.528-8.271c0.337-2.893,24.712,0.212,25.775-2.479c1.062-2.689-18.857-17.076-17.128-19.416
	C14,40.541,33.549,55.396,35.851,53.57c2.226-1.763-7.822-24.196-5.093-25.379c4.605-1.998,14.396,20.574,19,18.577
	c4.607-1.998-5.182-24.57-0.573-26.568c4.609-2,14.398,20.573,19.009,18.574c4.604-1.998-5.185-24.57-0.578-26.569
	c4.611-1.999,14.402,20.573,19.011,18.574c4.612-2-5.177-24.572-0.566-26.572c2.728-1.184,12.236,21.481,15.046,21.063
	c2.904-0.434,5.422-24.858,8.271-24.528c2.892,0.335-0.215,24.709,2.475,25.772c2.691,1.063,17.078-18.856,19.422-17.123
	c2.307,1.707-12.551,21.258-10.723,23.56c1.763,2.226,24.193-7.824,25.377-5.096c4.936,11.378-17.639,21.169-12.702,32.548
	c4.935,11.376,27.506,1.586,32.44,12.961c4.938,11.38-17.635,21.171-12.7,32.55c4.938,11.38,27.511,1.592,32.445,12.972
	c4.937,11.382-18.853,26.592-10.593,35.849C184.24,165.296,200.222,153.032,205.156,164.414z"/>
<g>
	<g>
		<path fill="#FFFFFF" d="M110.359,213.115c-8.397,0-16.02-4.96-19.419-12.638L39.42,84.132c-2.296-5.184-2.435-10.951-0.393-16.24
			s6.022-9.466,11.206-11.761l42.631-18.875c2.734-1.211,5.621-1.825,8.581-1.825c8.397,0,16.02,4.961,19.418,12.638l51.521,116.342
			c4.739,10.702-0.112,23.264-10.814,28.003l-42.63,18.876C116.205,212.501,113.319,213.115,110.359,213.115z"/>
		<path fill="#FF901E" d="M100.973,29.976V40.43c7,0,12.484,3.792,15.082,9.664l51.64,116.341
			c3.623,8.181-0.026,17.784-8.208,21.407l-42.602,18.877c-2.092,0.926-4.282,1.396-6.54,1.396c-6.42,0-12.241-3.792-14.841-9.662
			L43.987,82.107c-1.754-3.962-1.858-8.371-0.298-12.414c1.562-4.043,4.604-7.236,8.567-8.99l42.396-18.876
			c2.092-0.926,4.32-1.396,6.32-1.396V29.976 M101.445,30.43c-3.547,0-7.153,0.724-10.605,2.253L48.209,51.559
			c-13.244,5.864-19.225,21.355-13.361,34.597l51.521,116.345c4.336,9.792,13.931,15.613,23.991,15.613
			c3.547,0,7.153-0.724,10.604-2.253l42.63-18.876c13.243-5.865,19.227-21.356,13.362-34.6L125.436,46.044
			C121.101,36.252,111.505,30.43,101.445,30.43L101.445,30.43z"/>
	</g>
	<path opacity="0.5" fill="#FFFFFF" stroke="#EFA8C9" stroke-miterlimit="10" d="M100.989,40.276c6.892,0,12.59,3.829,15.217,9.754
		l51.632,116.343c1.771,4,1.938,8.451,0.361,12.533c-1.576,4.081-4.621,7.304-8.62,9.075l-42.616,18.878
		c-2.111,0.934-4.33,1.409-6.609,1.409c-6.482,0-12.362-3.828-14.985-9.753L43.852,82.169c-1.772-4-1.881-8.451-0.304-12.531
		c1.576-4.082,4.646-7.304,8.647-9.076l42.406-18.876C96.711,40.751,99.019,40.276,100.989,40.276"/>
	<g>
		
			<line fill="none" stroke="#FF901E" stroke-width="4" stroke-linecap="round" stroke-miterlimit="10" x1="68.004" y1="63.941" x2="92.621" y2="53.11"/>
		<g>
			<circle fill="#FF901E" cx="61.687" cy="66.648" r="2.051"/>
		</g>
	</g>
	<g opacity="0.6">
		<path fill="#FF901E" d="M136.984,175.448c-2.144,1.08-3.242,3.265-1.928,5.874c-1.314-2.609-3.716-3.032-5.857-1.953
			c-2.143,1.08-2.863,3.959-0.994,6.151c3.407,3.984,11.26,4.556,11.26,4.556s3.966-7.059,3.063-11.77
			C141.984,175.487,139.124,174.369,136.984,175.448z"/>
	</g>
	<line fill="none" stroke="#FF901E" stroke-width="4" stroke-miterlimit="10" x1="119.862" y1="56.063" x2="45.03" y2="89.376"/>
	
		<line fill="#F6BAD3" stroke="#FF901E" stroke-width="4" stroke-miterlimit="10" x1="84.744" y1="191.449" x2="164.17" y2="156.495"/>
</g>
</svg>
