<?xml version="1.0" encoding="utf-8"?>
<!-- Generator: Adobe Illustrator 16.0.4, SVG Export Plug-In . SVG Version: 6.00 Build 0)  -->
<!DOCTYPE svg PUBLIC "-//W3C//DTD SVG 1.1//EN" "http://www.w3.org/Graphics/SVG/1.1/DTD/svg11.dtd">
<svg version="1.1" id="Layer_1" xmlns="http://www.w3.org/2000/svg" xmlns:xlink="http://www.w3.org/1999/xlink" x="0px" y="0px"
	 width="144.358px" height="602.148px" viewBox="0 0 144.358 602.148" enable-background="new 0 0 144.358 602.148"
	 xml:space="preserve">
<g>
	<g>
		<path fill="#FFFFFF" d="M41.626,7.497c-1.382,30.312-3.382,60.316-5.846,89.857c-3.693-0.616-7.079-1.078-10.464-1.538
			c1.387-30.774,3.385-60.47,5.85-89.396C34.859,6.729,38.395,7.037,41.626,7.497z M117.789,3.036
			c4.617,31.389,6.925,63.393,6.925,95.857c-6.463,1.385-13.232,2.153-20.312,2.153c-0.92-1.845-1.382-4.616-1.537-8.155
			c3.386-0.459,6.926-0.922,10.772-1.384c-1.078-26.157-3.077-52.313-6.003-78.316c-6.31,0.309-15.386,0.462-27.078,0.462
			c-0.616,0-1.232,0-1.54,0c0.153,6.77,0.308,13.538,0.462,20.463c5.846,0.462,11.846,1.078,17.85,1.692
			c0,3.077-0.309,6.308-0.924,9.847c-5.846,0-11.542-0.153-16.772-0.462c0,4.001,0.155,8.003,0.155,11.694
			c5.384,0.462,10.771,0.924,16,1.538c0,3.079-0.461,6.462-1.078,10.001c-5.229,0-10.155,0-14.769-0.306
			c0,9.077,0.154,18.309,0.154,27.849c-1.387,0.461-3.231,0.769-5.692,0.769c-2.926,0-4.771-0.154-5.695-0.308
			c-0.309-10.001-0.462-19.695-0.462-29.234c-6.771-0.462-13.233-1.23-19.232-2.309c0-3.383,0-6.615,0.308-9.693
			c6.154,0.308,12.309,0.616,18.77,0.924c-0.153-4.001-0.153-7.847-0.153-11.694c-6.154-0.462-11.846-1.23-17.385-2.155
			c0-3.385,0-6.616,0.309-9.847c5.538,0.308,11.23,0.462,16.926,0.77c0-6.461,0-12.924,0-19.08
			c-3.231,0.154-6.466,0.308-9.697,0.308c-0.766-3.077-1.074-6.462-1.074-10.461c6.463-0.616,14.462-1.232,24.154-1.692
			C95.326,2.267,107.479,2.573,117.789,3.036z"/>
	</g>
</g>
<g>
	<path fill="#FFFFFF" d="M44.346,542.087c-10.463,1.078-20.461,1.54-30.158,1.54c-1.69-12.31-2.768-24.157-3.076-35.39
		c10.463-0.769,21.234-1.23,32.314-1.23C44.038,518.855,44.346,530.547,44.346,542.087z M22.807,533.932l11.691-0.923l-0.615-16.617
		l-12.155,0.617L22.807,533.932z M51.887,503.159c-0.463-1.384-0.616-2.923-0.616-4.615s0-3.231,0.308-4.462
		c7.387-0.154,16.464-0.308,27.544-0.308h13.386c-1.232-3.539-1.849-7.387-2.157-11.54c2.461-1.23,5.234-2,8.619-2.463
		c2.152,3.386,3.693,8.154,4.769,14.003c14.618,0.308,25.54,0.462,32.771,0.616c0.155,1.23,0.309,2.614,0.309,4.153v4.308
		c-4.309,1.078-23.695,1.539-58.005,1.539c-4.002,0-7.387,0-10.31-0.153c-4.002,23.078-8.77,44.466-14.311,63.854
		c0,0-1.845-0.153-5.538-0.771c-1.386-0.308-2.615-0.768-3.539-1.385c2.615-19.077,7.387-39.696,14.157-62.006
		C56.195,503.775,53.73,503.468,51.887,503.159z M79.888,520.085c1.54-0.153,3.385-0.309,5.542-0.309
		c1.691,0,3.385,0.309,5.076,0.923v19.234c3.076,0.154,5.846,0.309,8.156,0.309c0.308,1.538,0.615,3.076,0.615,4.615
		c0,1.538-0.153,3.077-0.308,4.461c-2.156,0.309-5.079,0.617-8.464,0.771c0,4.77,0,9.539,0,14.155
		c3.076,0.922,6.308,1.691,9.385,2.309c0,2.461-0.463,5.538-1.229,8.923c-2.923-0.309-5.695-0.769-8.156-1.385
		c-0.155,6.616-0.155,13.232-0.155,20.004c-1.228,0.307-3.076,0.614-5.383,0.614c-2.461,0-4.31-0.461-5.233-1.231v-22.002
		c-4.768,2.924-9.387,5.538-13.691,7.693c-2.156-2.001-3.847-4.462-4.771-7.387c5.691-4,11.846-8,18.463-11.999v-9.542
		c-4.306,0-7.537-0.152-9.387-0.614c-0.611-1.23-0.92-2.617-0.92-4.462c0-1.538,0.154-3.078,0.613-4.617
		c1.539-0.306,4.771-0.614,9.693-0.614C79.734,532.394,79.888,525.777,79.888,520.085z M137.127,542.549v4.461
		c-3.693,0.617-7.387,1.232-10.771,1.541c0.616,14.309,1.078,27.387,1.232,39.389c-1.85,0.923-4.772,1.385-9.078,1.385
		c-0.615-5.848-1.232-11.54-1.54-17.388c-3.385,1.232-7.231,2.463-11.846,3.693c-1.541-2.155-2.461-4.462-3.077-7.078
		c4.614-2.77,9.385-4.925,14.307-6.616c-0.308-4.154-0.461-8.31-0.461-12.462c-3.69,0.308-7.229,0.308-10.769,0.308
		c-0.616-3.077-0.771-6.154-0.771-9.388c3.693-0.46,7.387-0.922,11.233-1.229c-0.153-4.924-0.153-10.002-0.153-15.08
		c3.231-0.614,6.461-0.921,9.539-0.921c0.309,5.231,0.615,10.463,0.921,15.386c3.693-0.153,7.387-0.308,11.079-0.308
		C136.973,539.472,137.127,541.01,137.127,542.549z M144.358,569.629c-0.462,2.615-1.231,5.385-2.46,8.31
		c-4.926-0.771-8.927-2.001-11.85-3.693c0.924-3.385,2.002-6.154,2.923-8.154C136.665,566.858,140.512,568.091,144.358,569.629z"/>
</g>
<g>
	<path fill="#FFFFFF" d="M27.882,175.447c3.078-0.616,6.463-0.922,9.848-1.231c0.462,5.078,0.925,10.156,1.386,15.08
		c6.154,0.152,11.385,0.46,15.541,0.922c0.307,0.922,0.615,2.615,0.615,4.77c0,2.462-0.309,4.001-0.615,4.615
		c-1.079,0.462-5.847,0.771-14.462,0.771c0.458,5.231,0.921,10.461,1.229,15.539c3.539-0.153,6.925-0.306,10.31-0.306
		c0.308,1.23,0.616,2.615,0.616,4.153c0,1.692-0.309,3.231-0.616,4.462c-2.307,0.616-5.539,1.232-9.539,1.846
		c0.309,5.54,0.615,10.771,0.924,16.001c-2.618,1.079-5.85,1.539-9.848,1.539c-0.615-5.538-1.232-10.924-1.694-16.461
		c-4.001,0.46-8.46,0.768-13.077,1.076c-1.537-2.155-2.308-5.386-2.308-9.693c4.922-0.771,9.848-1.384,14.461-1.847
		c-0.612-5.386-0.92-10.771-1.229-16.309c-10.771,0-16.618-0.154-17.542-0.771c-0.461-1.23-0.616-2.923-0.616-4.924
		c0-1.846,0.155-3.385,0.771-4.923c5.08-0.308,10.617-0.46,16.617-0.614C28.344,184.524,28.037,180.062,27.882,175.447z
		 M89.889,202.526c-0.766,2.155-1.383,4.002-1.998,5.54c13.231,0.924,26.002,2,38.618,3.539c0,2.309-0.462,4.924-1.228,8
		c-5.695,0-11.234-0.153-16.772-0.616c-0.309,5.54-0.771,10.772-1.386,15.696c8.77,0.616,17.85,1.076,27.234,1.692
		c0,2.615-0.307,5.386-0.771,8.154c-9.384,0-18.615-0.154-27.692-0.462c-0.617,5.078-1.387,10.001-2.312,14.771
		c5.542,0.154,11.389,0.308,17.851,0.308c0,3.386-0.308,6-0.616,7.847c-1.54,0.462-5.846,0.77-12.771,0.77
		c-18.004-0.308-31.694-0.924-40.929-1.847c-0.613,0-0.921-2-0.921-5.848c0-3.691,0.308-8.461,1.229-14.309
		c3.385,0,6.462,0.154,9.539,0.462c0,6.771-0.154,10.615-0.462,11.54c4.464,0.308,9.848,0.614,16.313,0.768
		c0.457-5.23,0.92-10.153,1.536-14.925c-12.154-0.46-24.158-1.23-36.003-2.461v-4.308c0-1.232,0-2.309,0.307-3.539
		c11.385,0,23.695,0.308,36.929,0.923c0.767-5.693,1.69-11.079,2.769-16.156c-4.617-0.462-9.23-1.077-13.849-1.847
		c-2.307,5.231-4.31,9.079-6,11.694c-3.538,0-6.308-0.616-8.464-2c2.771-9.848,6.615-18.462,11.233-25.849
		C84.659,200.374,87.428,201.295,89.889,202.526z M129.74,163.292c0.154,0.924,0.309,2.462,0.309,4.617
		c-23.08,3.691-45.852,6.462-68.623,8.309c-0.771-1.692-1.079-3.385-1.079-5.078v-4.155c22.926-3.23,45.852-5.846,68.623-8
		C129.432,160.522,129.74,162.061,129.74,163.292z M78.197,198.527c-2.769,1.538-5.538,2.461-8.311,2.769
		c-2.769-4.615-4.306-10.461-4.768-17.385c2.152-0.925,4.922-1.693,8.002-2.309C75.582,185.448,77.273,191.14,78.197,198.527z
		 M101.893,194.526c-2.769,1.538-5.541,2.309-8.311,2.616c-2.307-4.616-3.693-10.309-4-17.08c2.156-1.076,4.925-1.847,8.155-2.461
		C99.583,181.293,100.969,186.987,101.893,194.526z M129.587,178.986c-3.693,10.155-6.616,17.078-8.924,21.079
		c-3.847,0-6.924-0.77-9.231-2.46c2.153-8.157,4.922-15.233,8.615-21.387C123.74,176.523,126.817,177.448,129.587,178.986z
		 M137.436,265.149c-2.77,0.924-5.847,1.386-8.924,1.386c-1.694-4.925-2.924-10.001-3.693-15.233c3.231-0.77,6.463-1.23,9.693-1.23
		C135.895,254.996,136.818,259.919,137.436,265.149z"/>
</g>
<g>
	<path fill="#FFFFFF" d="M56.658,356.355c0.304,7.232,0.612,14.924,0.612,23.079c0,4.618-0.309,8.617-0.921,12.311
		c-4.001,0.616-10.156,0.922-18.466,0.922c-7.845,0-14.615-0.46-20.156-1.539c-0.459-6.771-0.612-14.463-0.612-23.08
		c0-3.231,0.153-7.231,0.612-12c5.695-0.616,12.466-0.924,20.464-0.924C45.578,355.125,51.732,355.586,56.658,356.355z
		 M27.729,383.282h18.465v-18.31H27.729V383.282z M96.352,324.661c-1.537,4.307-3.231,8.308-4.768,12.308
		c14.461,1.232,29.079,2.463,43.698,3.693v4.924c0,2.155-0.463,4.001-1.078,5.694c-16.927-0.617-32.618-1.847-47.083-3.693
		c-2.462,5.538-4.923,10.77-7.387,16.001c-3.69-1.076-6.767-2.46-9.231-4.307c4.617-12.618,10.001-25.081,15.848-37.542
		C89.735,322.197,93.12,323.122,96.352,324.661z M123.895,376.357c-4.617,15.542-9.693,30.004-15.077,43.39
		c5.692,1.385,11.384,2.461,17.076,3.385c0,3.231-0.612,6.154-1.537,8.769c-18.158-1.075-28.005-2.923-29.696-5.692
		c2.769-9.231,7.387-22.463,14.157-40.005c-13.541,0-25.698-0.614-36.773-2.153c-0.464-1.232-0.617-2.771-0.617-4.924
		c0-1.847,0.153-3.539,0.617-5.077C88.045,374.051,105.277,374.819,123.895,376.357z"/>
</g>
<g>
	<g>
		<g opacity="0.2">
			<g>
				<path fill="#EFEFEF" d="M41.626,7.497c-1.382,30.312-3.382,60.316-5.846,89.857c-3.693-0.616-7.079-1.078-10.464-1.538
					c1.387-30.774,3.385-60.47,5.85-89.396C34.859,6.729,38.395,7.037,41.626,7.497z M117.789,3.036
					c4.617,31.389,6.925,63.393,6.925,95.857c-6.463,1.385-13.232,2.153-20.312,2.153c-0.92-1.845-1.382-4.616-1.537-8.155
					c3.386-0.459,6.926-0.922,10.772-1.384c-1.078-26.157-3.077-52.313-6.003-78.316c-6.31,0.309-15.386,0.462-27.078,0.462
					c-0.616,0-1.232,0-1.54,0c0.153,6.77,0.308,13.538,0.462,20.463c5.846,0.462,11.846,1.078,17.85,1.692
					c0,3.077-0.309,6.308-0.924,9.847c-5.846,0-11.542-0.153-16.772-0.462c0,4.001,0.155,8.003,0.155,11.694
					c5.384,0.462,10.771,0.924,16,1.538c0,3.079-0.461,6.462-1.078,10.001c-5.229,0-10.155,0-14.769-0.306
					c0,9.077,0.154,18.309,0.154,27.849c-1.387,0.461-3.231,0.769-5.692,0.769c-2.926,0-4.771-0.154-5.695-0.308
					c-0.309-10.001-0.462-19.695-0.462-29.234c-6.771-0.462-13.233-1.23-19.232-2.309c0-3.383,0-6.615,0.308-9.693
					c6.154,0.308,12.309,0.616,18.77,0.924c-0.153-4.001-0.153-7.847-0.153-11.694c-6.154-0.462-11.846-1.23-17.385-2.155
					c0-3.385,0-6.616,0.309-9.847c5.538,0.308,11.23,0.462,16.926,0.77c0-6.461,0-12.924,0-19.08
					c-3.231,0.154-6.466,0.308-9.697,0.308c-0.766-3.077-1.074-6.462-1.074-10.461c6.463-0.616,14.462-1.232,24.154-1.692
					C95.326,2.267,107.479,2.573,117.789,3.036z"/>
			</g>
		</g>
		<g opacity="0.2">
			<path fill="#EFEFEF" d="M44.346,542.087c-10.463,1.078-20.461,1.54-30.158,1.54c-1.69-12.31-2.768-24.157-3.076-35.39
				c10.463-0.769,21.234-1.23,32.314-1.23C44.038,518.855,44.346,530.547,44.346,542.087z M22.807,533.932l11.691-0.923
				l-0.615-16.617l-12.155,0.617L22.807,533.932z M51.887,503.159c-0.463-1.384-0.616-2.923-0.616-4.615s0-3.231,0.308-4.462
				c7.387-0.154,16.464-0.308,27.544-0.308h13.386c-1.232-3.539-1.849-7.387-2.157-11.54c2.461-1.23,5.234-2,8.619-2.463
				c2.152,3.386,3.693,8.154,4.769,14.003c14.618,0.308,25.54,0.462,32.771,0.616c0.155,1.23,0.309,2.614,0.309,4.153v4.308
				c-4.309,1.078-23.695,1.539-58.005,1.539c-4.002,0-7.387,0-10.31-0.153c-4.002,23.078-8.77,44.466-14.311,63.854
				c0,0-1.845-0.153-5.538-0.771c-1.386-0.308-2.615-0.768-3.539-1.385c2.615-19.077,7.387-39.696,14.157-62.006
				C56.195,503.775,53.73,503.468,51.887,503.159z M79.888,520.085c1.54-0.153,3.385-0.309,5.542-0.309
				c1.691,0,3.385,0.309,5.076,0.923v19.234c3.076,0.154,5.846,0.309,8.156,0.309c0.308,1.538,0.615,3.076,0.615,4.615
				c0,1.538-0.153,3.077-0.308,4.461c-2.156,0.309-5.079,0.617-8.464,0.771c0,4.77,0,9.539,0,14.155
				c3.076,0.922,6.308,1.691,9.385,2.309c0,2.461-0.463,5.538-1.229,8.923c-2.923-0.309-5.695-0.769-8.156-1.385
				c-0.155,6.616-0.155,13.232-0.155,20.004c-1.228,0.307-3.076,0.614-5.383,0.614c-2.461,0-4.31-0.461-5.233-1.231v-22.002
				c-4.768,2.924-9.387,5.538-13.691,7.693c-2.156-2.001-3.847-4.462-4.771-7.387c5.691-4,11.846-8,18.463-11.999v-9.542
				c-4.306,0-7.537-0.152-9.387-0.614c-0.611-1.23-0.92-2.617-0.92-4.462c0-1.538,0.154-3.078,0.613-4.617
				c1.539-0.306,4.771-0.614,9.693-0.614C79.734,532.394,79.888,525.777,79.888,520.085z M137.127,542.549v4.461
				c-3.693,0.617-7.387,1.232-10.771,1.541c0.616,14.309,1.078,27.387,1.232,39.389c-1.85,0.923-4.772,1.385-9.078,1.385
				c-0.615-5.848-1.232-11.54-1.54-17.388c-3.385,1.232-7.231,2.463-11.846,3.693c-1.541-2.155-2.461-4.462-3.077-7.078
				c4.614-2.77,9.385-4.925,14.307-6.616c-0.308-4.154-0.461-8.31-0.461-12.462c-3.69,0.308-7.229,0.308-10.769,0.308
				c-0.616-3.077-0.771-6.154-0.771-9.388c3.693-0.46,7.387-0.922,11.233-1.229c-0.153-4.924-0.153-10.002-0.153-15.08
				c3.231-0.614,6.461-0.921,9.539-0.921c0.309,5.231,0.615,10.463,0.921,15.386c3.693-0.153,7.387-0.308,11.079-0.308
				C136.973,539.472,137.127,541.01,137.127,542.549z M144.358,569.629c-0.462,2.615-1.231,5.385-2.46,8.31
				c-4.926-0.771-8.927-2.001-11.85-3.693c0.924-3.385,2.002-6.154,2.923-8.154C136.665,566.858,140.512,568.091,144.358,569.629z"
				/>
		</g>
		<g opacity="0.2">
			<path fill="#EFEFEF" d="M27.882,175.447c3.078-0.616,6.463-0.922,9.848-1.231c0.462,5.078,0.925,10.156,1.386,15.08
				c6.154,0.152,11.385,0.46,15.541,0.922c0.307,0.922,0.615,2.615,0.615,4.77c0,2.462-0.309,4.001-0.615,4.615
				c-1.079,0.462-5.847,0.771-14.462,0.771c0.458,5.231,0.921,10.461,1.229,15.539c3.539-0.153,6.925-0.306,10.31-0.306
				c0.308,1.23,0.616,2.615,0.616,4.153c0,1.692-0.309,3.231-0.616,4.462c-2.307,0.616-5.539,1.232-9.539,1.846
				c0.309,5.54,0.615,10.771,0.924,16.001c-2.618,1.079-5.85,1.539-9.848,1.539c-0.615-5.538-1.232-10.924-1.694-16.461
				c-4.001,0.46-8.46,0.768-13.077,1.076c-1.537-2.155-2.308-5.386-2.308-9.693c4.922-0.771,9.848-1.384,14.461-1.847
				c-0.612-5.386-0.92-10.771-1.229-16.309c-10.771,0-16.618-0.154-17.542-0.771c-0.461-1.23-0.616-2.923-0.616-4.924
				c0-1.846,0.155-3.385,0.771-4.923c5.08-0.308,10.617-0.46,16.617-0.614C28.344,184.524,28.037,180.062,27.882,175.447z
				 M89.889,202.526c-0.766,2.155-1.383,4.002-1.998,5.54c13.231,0.924,26.002,2,38.618,3.539c0,2.309-0.462,4.924-1.228,8
				c-5.695,0-11.234-0.153-16.772-0.616c-0.309,5.54-0.771,10.772-1.386,15.696c8.77,0.616,17.85,1.076,27.234,1.692
				c0,2.615-0.307,5.386-0.771,8.154c-9.384,0-18.615-0.154-27.692-0.462c-0.617,5.078-1.387,10.001-2.312,14.771
				c5.542,0.154,11.389,0.308,17.851,0.308c0,3.386-0.308,6-0.616,7.847c-1.54,0.462-5.846,0.77-12.771,0.77
				c-18.004-0.308-31.694-0.924-40.929-1.847c-0.613,0-0.921-2-0.921-5.848c0-3.691,0.308-8.461,1.229-14.309
				c3.385,0,6.462,0.154,9.539,0.462c0,6.771-0.154,10.615-0.462,11.54c4.464,0.308,9.848,0.614,16.313,0.768
				c0.457-5.23,0.92-10.153,1.536-14.925c-12.154-0.46-24.158-1.23-36.003-2.461v-4.308c0-1.232,0-2.309,0.307-3.539
				c11.385,0,23.695,0.308,36.929,0.923c0.767-5.693,1.69-11.079,2.769-16.156c-4.617-0.462-9.23-1.077-13.849-1.847
				c-2.307,5.231-4.31,9.079-6,11.694c-3.538,0-6.308-0.616-8.464-2c2.771-9.848,6.615-18.462,11.233-25.849
				C84.659,200.374,87.428,201.295,89.889,202.526z M129.74,163.292c0.154,0.924,0.309,2.462,0.309,4.617
				c-23.08,3.691-45.852,6.462-68.623,8.309c-0.771-1.692-1.079-3.385-1.079-5.078v-4.155c22.926-3.23,45.852-5.846,68.623-8
				C129.432,160.522,129.74,162.061,129.74,163.292z M78.197,198.527c-2.769,1.538-5.538,2.461-8.311,2.769
				c-2.769-4.615-4.306-10.461-4.768-17.385c2.152-0.925,4.922-1.693,8.002-2.309C75.582,185.448,77.273,191.14,78.197,198.527z
				 M101.893,194.526c-2.769,1.538-5.541,2.309-8.311,2.616c-2.307-4.616-3.693-10.309-4-17.08c2.156-1.076,4.925-1.847,8.155-2.461
				C99.583,181.293,100.969,186.987,101.893,194.526z M129.587,178.986c-3.693,10.155-6.616,17.078-8.924,21.079
				c-3.847,0-6.924-0.77-9.231-2.46c2.153-8.157,4.922-15.233,8.615-21.387C123.74,176.523,126.817,177.448,129.587,178.986z
				 M137.436,265.149c-2.77,0.924-5.847,1.386-8.924,1.386c-1.694-4.925-2.924-10.001-3.693-15.233
				c3.231-0.77,6.463-1.23,9.693-1.23C135.895,254.996,136.818,259.919,137.436,265.149z"/>
		</g>
		<g opacity="0.2">
			<path fill="#EFEFEF" d="M56.658,356.355c0.304,7.232,0.612,14.924,0.612,23.079c0,4.618-0.309,8.617-0.921,12.311
				c-4.001,0.616-10.156,0.922-18.466,0.922c-7.845,0-14.615-0.46-20.156-1.539c-0.459-6.771-0.612-14.463-0.612-23.08
				c0-3.231,0.153-7.231,0.612-12c5.695-0.616,12.466-0.924,20.464-0.924C45.578,355.125,51.732,355.586,56.658,356.355z
				 M27.729,383.282h18.465v-18.31H27.729V383.282z M96.352,324.661c-1.537,4.307-3.231,8.308-4.768,12.308
				c14.461,1.232,29.079,2.463,43.698,3.693v4.924c0,2.155-0.463,4.001-1.078,5.694c-16.927-0.617-32.618-1.847-47.083-3.693
				c-2.462,5.538-4.923,10.77-7.387,16.001c-3.69-1.076-6.767-2.46-9.231-4.307c4.617-12.618,10.001-25.081,15.848-37.542
				C89.735,322.197,93.12,323.122,96.352,324.661z M123.895,376.357c-4.617,15.542-9.693,30.004-15.077,43.39
				c5.692,1.385,11.384,2.461,17.076,3.385c0,3.231-0.612,6.154-1.537,8.769c-18.158-1.075-28.005-2.923-29.696-5.692
				c2.769-9.231,7.387-22.463,14.157-40.005c-13.541,0-25.698-0.614-36.773-2.153c-0.464-1.232-0.617-2.771-0.617-4.924
				c0-1.847,0.153-3.539,0.617-5.077C88.045,374.051,105.277,374.819,123.895,376.357z"/>
		</g>
	</g>
	<g>
		<g>
			<g>
				<path fill="#FF901E" stroke="#FF901E" stroke-linecap="round" stroke-miterlimit="10" d="M33.409,7.497
					c-1.382,30.312-3.381,60.316-5.846,89.857c-3.693-0.616-7.078-1.078-10.463-1.538c1.386-30.774,3.385-60.47,5.849-89.396
					C26.643,6.729,30.178,7.037,33.409,7.497z M109.572,3.036c4.617,31.389,6.925,63.393,6.925,95.857
					c-6.462,1.385-13.232,2.153-20.311,2.153c-0.921-1.845-1.383-4.616-1.537-8.155c3.385-0.459,6.925-0.922,10.771-1.384
					c-1.077-26.157-3.077-52.313-6.003-78.316c-6.31,0.309-15.386,0.462-27.077,0.462c-0.617,0-1.232,0-1.541,0
					c0.153,6.77,0.309,13.538,0.462,20.463c5.846,0.462,11.846,1.078,17.85,1.692c0,3.077-0.309,6.308-0.924,9.847
					c-5.846,0-11.541-0.153-16.771-0.462c0,4.001,0.154,8.003,0.154,11.694c5.384,0.462,10.771,0.924,16.001,1.538
					c0,3.079-0.462,6.462-1.079,10.001c-5.229,0-10.154,0-14.769-0.306c0,9.077,0.155,18.309,0.155,27.849
					c-1.388,0.461-3.231,0.769-5.693,0.769c-2.926,0-4.771-0.154-5.695-0.308c-0.309-10.001-0.462-19.695-0.462-29.234
					c-6.77-0.462-13.232-1.23-19.232-2.309c0-3.383,0-6.615,0.308-9.693c6.154,0.308,12.309,0.616,18.77,0.924
					c-0.153-4.001-0.153-7.847-0.153-11.694c-6.154-0.462-11.846-1.23-17.384-2.155c0-3.385,0-6.616,0.308-9.847
					c5.538,0.308,11.23,0.462,16.927,0.77c0-6.461,0-12.924,0-19.08c-3.232,0.154-6.467,0.308-9.698,0.308
					c-0.766-3.077-1.073-6.462-1.073-10.461c6.462-0.616,14.461-1.232,24.154-1.692C87.109,2.267,99.263,2.573,109.572,3.036z"/>
			</g>
		</g>
		<g>
			<path fill="#FF901E" stroke="#FF901E" stroke-linecap="round" stroke-miterlimit="10" d="M19.666,175.447
				c3.077-0.616,6.463-0.922,9.848-1.231c0.462,5.078,0.924,10.156,1.386,15.08c6.154,0.152,11.385,0.46,15.54,0.922
				c0.307,0.922,0.615,2.615,0.615,4.77c0,2.462-0.309,4.001-0.615,4.615c-1.079,0.462-5.846,0.771-14.462,0.771
				c0.459,5.231,0.921,10.461,1.229,15.539c3.538-0.153,6.924-0.306,10.309-0.306c0.308,1.23,0.616,2.615,0.616,4.153
				c0,1.692-0.309,3.231-0.616,4.462c-2.307,0.616-5.538,1.232-9.539,1.846c0.309,5.54,0.616,10.771,0.924,16.001
				c-2.617,1.079-5.85,1.539-9.848,1.539c-0.615-5.538-1.231-10.924-1.693-16.461c-4.002,0.46-8.461,0.768-13.078,1.076
				c-1.537-2.155-2.308-5.386-2.308-9.693c4.922-0.771,9.848-1.384,14.462-1.847c-0.612-5.386-0.921-10.771-1.229-16.309
				c-10.771,0-16.617-0.154-17.541-0.771c-0.462-1.23-0.617-2.923-0.617-4.924c0-1.846,0.155-3.385,0.771-4.923
				c5.08-0.308,10.618-0.46,16.617-0.614C20.128,184.524,19.82,180.062,19.666,175.447z M81.672,202.526
				c-0.766,2.155-1.382,4.002-1.998,5.54c13.232,0.924,26.003,2,38.619,3.539c0,2.309-0.463,4.924-1.229,8
				c-5.695,0-11.234-0.153-16.771-0.616c-0.309,5.54-0.771,10.772-1.387,15.696c8.77,0.616,17.85,1.076,27.234,1.692
				c0,2.615-0.307,5.386-0.77,8.154c-9.385,0-18.616-0.154-27.693-0.462c-0.617,5.078-1.386,10.001-2.311,14.771
				c5.542,0.154,11.388,0.308,17.85,0.308c0,3.386-0.308,6-0.615,7.847c-1.541,0.462-5.847,0.77-12.771,0.77
				c-18.003-0.308-31.694-0.924-40.929-1.847c-0.613,0-0.921-2-0.921-5.848c0-3.691,0.308-8.461,1.229-14.309
				c3.385,0,6.463,0.154,9.539,0.462c0,6.771-0.153,10.615-0.462,11.54c4.464,0.308,9.848,0.614,16.313,0.768
				c0.458-5.23,0.921-10.153,1.536-14.925c-12.153-0.46-24.157-1.23-36.003-2.461v-4.308c0-1.232,0-2.309,0.307-3.539
				c11.385,0,23.696,0.308,36.929,0.923c0.767-5.693,1.69-11.079,2.77-16.156c-4.617-0.462-9.231-1.077-13.85-1.847
				c-2.306,5.231-4.309,9.079-5.999,11.694c-3.539,0-6.309-0.616-8.465-2c2.771-9.848,6.615-18.462,11.234-25.849
				C76.443,200.374,79.211,201.295,81.672,202.526z M121.523,163.292c0.155,0.924,0.309,2.462,0.309,4.617
				c-23.08,3.691-45.852,6.462-68.623,8.309c-0.771-1.692-1.078-3.385-1.078-5.078v-4.155c22.925-3.23,45.851-5.846,68.623-8
				C121.215,160.522,121.523,162.061,121.523,163.292z M69.98,198.527c-2.769,1.538-5.538,2.461-8.311,2.769
				c-2.769-4.615-4.306-10.461-4.768-17.385c2.152-0.925,4.922-1.693,8.002-2.309C67.365,185.448,69.057,191.14,69.98,198.527z
				 M93.676,194.526c-2.768,1.538-5.541,2.309-8.311,2.616c-2.306-4.616-3.693-10.309-4-17.08c2.156-1.076,4.926-1.847,8.155-2.461
				C91.366,181.293,92.752,186.987,93.676,194.526z M121.37,178.986c-3.693,10.155-6.616,17.078-8.924,21.079
				c-3.847,0-6.923-0.77-9.231-2.46c2.153-8.157,4.923-15.233,8.616-21.387C115.524,176.523,118.601,177.448,121.37,178.986z
				 M129.219,265.149c-2.77,0.924-5.846,1.386-8.924,1.386c-1.694-4.925-2.923-10.001-3.693-15.233
				c3.231-0.77,6.463-1.23,9.694-1.23C127.678,254.996,128.602,259.919,129.219,265.149z"/>
		</g>
		<g>
			<path fill="#FF901E" stroke="#FF901E" stroke-linecap="round" stroke-miterlimit="10" d="M48.441,356.355
				c0.305,7.232,0.612,14.924,0.612,23.079c0,4.618-0.308,8.617-0.92,12.311c-4.002,0.616-10.156,0.922-18.467,0.922
				c-7.844,0-14.615-0.46-20.156-1.539c-0.458-6.771-0.612-14.463-0.612-23.08c0-3.231,0.154-7.231,0.612-12
				c5.696-0.616,12.466-0.924,20.465-0.924C37.361,355.125,43.516,355.586,48.441,356.355z M19.512,383.282h18.466v-18.31H19.512
				V383.282z M88.135,324.661c-1.537,4.307-3.231,8.308-4.768,12.308c14.461,1.232,29.079,2.463,43.699,3.693v4.924
				c0,2.155-0.464,4.001-1.079,5.694c-16.926-0.617-32.618-1.847-47.083-3.693c-2.461,5.538-4.922,10.77-7.387,16.001
				c-3.689-1.076-6.767-2.46-9.231-4.307c4.618-12.618,10.002-25.081,15.848-37.542C81.519,322.197,84.903,323.122,88.135,324.661z
				 M115.678,376.357c-4.617,15.542-9.693,30.004-15.077,43.39c5.692,1.385,11.384,2.461,17.076,3.385
				c0,3.231-0.612,6.154-1.537,8.769c-18.158-1.075-28.005-2.923-29.695-5.692c2.769-9.231,7.387-22.463,14.156-40.005
				c-13.541,0-25.698-0.614-36.773-2.153c-0.463-1.232-0.616-2.771-0.616-4.924c0-1.847,0.153-3.539,0.616-5.077
				C79.828,374.051,97.061,374.819,115.678,376.357z"/>
		</g>
		<g>
			<path fill="#FF901E" stroke="#FF901E" stroke-linecap="round" stroke-miterlimit="10" d="M36.13,542.087
				c-10.464,1.078-20.461,1.54-30.159,1.54c-1.69-12.31-2.768-24.157-3.076-35.39c10.463-0.769,21.234-1.23,32.314-1.23
				C35.821,518.855,36.13,530.547,36.13,542.087z M14.59,533.932l11.692-0.923l-0.616-16.617l-12.154,0.617L14.59,533.932z
				 M43.67,503.159c-0.462-1.384-0.615-2.923-0.615-4.615s0-3.231,0.307-4.462c7.387-0.154,16.464-0.308,27.544-0.308h13.386
				c-1.231-3.539-1.849-7.387-2.156-11.54c2.461-1.23,5.233-2,8.618-2.463c2.153,3.386,3.693,8.154,4.769,14.003
				c14.619,0.308,25.54,0.462,32.772,0.616c0.154,1.23,0.308,2.614,0.308,4.153v4.308c-4.309,1.078-23.695,1.539-58.005,1.539
				c-4.001,0-7.386,0-10.31-0.153c-4.002,23.078-8.769,44.466-14.31,63.854c0,0-1.846-0.153-5.539-0.771
				c-1.386-0.308-2.614-0.768-3.538-1.385c2.614-19.077,7.387-39.696,14.156-62.006C47.979,503.775,45.514,503.468,43.67,503.159z
				 M71.671,520.085c1.541-0.153,3.385-0.309,5.542-0.309c1.691,0,3.385,0.309,5.076,0.923v19.234
				c3.076,0.154,5.846,0.309,8.156,0.309c0.308,1.538,0.616,3.076,0.616,4.615c0,1.538-0.153,3.077-0.309,4.461
				c-2.156,0.309-5.079,0.617-8.464,0.771c0,4.77,0,9.539,0,14.155c3.076,0.922,6.308,1.691,9.385,2.309
				c0,2.461-0.462,5.538-1.229,8.923c-2.922-0.309-5.695-0.769-8.156-1.385c-0.154,6.616-0.154,13.232-0.154,20.004
				c-1.229,0.307-3.077,0.614-5.384,0.614c-2.461,0-4.31-0.461-5.233-1.231v-22.002c-4.768,2.924-9.386,5.538-13.691,7.693
				c-2.156-2.001-3.847-4.462-4.771-7.387c5.691-4,11.846-8,18.462-11.999v-9.542c-4.306,0-7.537-0.152-9.386-0.614
				c-0.612-1.23-0.921-2.617-0.921-4.462c0-1.538,0.155-3.078,0.613-4.617c1.54-0.306,4.771-0.614,9.693-0.614
				C71.518,532.394,71.671,525.777,71.671,520.085z M128.91,542.549v4.461c-3.693,0.617-7.387,1.232-10.771,1.541
				c0.617,14.309,1.078,27.387,1.232,39.389c-1.85,0.923-4.771,1.385-9.077,1.385c-0.616-5.848-1.232-11.54-1.541-17.388
				c-3.385,1.232-7.231,2.463-11.846,3.693c-1.54-2.155-2.461-4.462-3.076-7.078c4.613-2.77,9.384-4.925,14.307-6.616
				c-0.309-4.154-0.462-8.31-0.462-12.462c-3.69,0.308-7.229,0.308-10.769,0.308c-0.615-3.077-0.771-6.154-0.771-9.388
				c3.693-0.46,7.387-0.922,11.234-1.229c-0.154-4.924-0.154-10.002-0.154-15.08c3.231-0.614,6.462-0.921,9.539-0.921
				c0.309,5.231,0.616,10.463,0.921,15.386c3.693-0.153,7.387-0.308,11.08-0.308C128.757,539.472,128.91,541.01,128.91,542.549z
				 M136.143,569.629c-0.463,2.615-1.232,5.385-2.46,8.31c-4.926-0.771-8.928-2.001-11.851-3.693
				c0.924-3.385,2.003-6.154,2.923-8.154C128.448,566.858,132.295,568.091,136.143,569.629z"/>
		</g>
	</g>
</g>
</svg>
