<?xml version="1.0" encoding="utf-8"?>
<!-- Generator: Adobe Illustrator 16.0.4, SVG Export Plug-In . SVG Version: 6.00 Build 0)  -->
<!DOCTYPE svg PUBLIC "-//W3C//DTD SVG 1.1//EN" "http://www.w3.org/Graphics/SVG/1.1/DTD/svg11.dtd">
<svg version="1.1" id="Layer_1" xmlns="http://www.w3.org/2000/svg" xmlns:xlink="http://www.w3.org/1999/xlink" x="0px" y="0px"
	 width="215.146px" height="253.064px" viewBox="0 0 215.146 253.064" enable-background="new 0 0 215.146 253.064"
	 xml:space="preserve">
<g>
	<circle fill="#FF901E" cx="105.958" cy="149.57" r="45.892"/>
	<circle fill="#333333" cx="80.626" cy="123.555" r="3.821"/>
	<circle fill="#333333" cx="132.554" cy="123.555" r="3.82"/>
	<path fill="#333333" stroke="#333333" stroke-linejoin="round" stroke-miterlimit="10" d="M136.402,131.798
		c0,0,0.648,13.751-28.938,13.751c-32.163,0-28.837-13.751-28.837-13.751s-2.676,10.632,28.887,10.632
		C136.425,142.43,136.402,131.798,136.402,131.798z"/>
	<path fill="#FF901E" d="M78.628,112.791c0,0,1.15-26.338,8.195-23.799c7.043,2.54,7.924,19.385,7.924,19.385"/>
	<path fill="#FF901E" d="M132.325,112.107c0,0-1.15-26.338-8.194-23.798c-7.044,2.539-7.924,19.385-7.924,19.385"/>
	<path fill="#EE5A24" d="M87.909,108.226c0,0-0.343-11.615-3.074-11.615c-2.733,0-6.032,16.153-6.032,16.153
		S85.518,108.055,87.909,108.226z"/>
	<path fill="#EE5A24" d="M122.872,107.542c0,0,0.342-11.615,3.074-11.615c2.734,0,6.032,16.154,6.032,16.154
		S125.264,107.372,122.872,107.542z"/>
	<path opacity="0.15" fill="#F65C2B" d="M140.599,119.47c3.711,6.085,5.851,13.234,5.851,20.883
		c0,22.182-17.981,40.164-40.163,40.164c-22.183,0-40.164-17.981-40.164-40.164c0-8.674,2.75-16.706,7.427-23.271
		c-8.329,8.308-13.482,19.796-13.482,32.489c0,25.346,20.546,45.892,45.893,45.892c25.345,0,45.892-20.546,45.892-45.892
		C151.851,138.053,147.606,127.527,140.599,119.47z"/>
	<path opacity="0.1" fill="#F65C2B" d="M87.909,108.567c0,0,2.221-8.711,0-13.836c-2.221-5.124-6.707,2.392-7.282,6.235
		c-0.576,3.843-1.824,12.139-1.824,12.139S85.603,107.201,87.909,108.567z"/>
	<path opacity="0.05" fill="#F65C2B" d="M87.909,108.567c0,0,2.221-8.711,0-13.836c-2.221-5.124-6.707,2.392-7.282,6.235
		c-0.576,3.843-1.824,12.139-1.824,12.139S85.603,107.201,87.909,108.567z"/>
	<path opacity="0.05" fill="#F65C2B" d="M122.833,107.884c0,0-2.221-8.711,0-13.836s6.707,2.391,7.283,6.235
		c0.576,3.843,1.824,12.139,1.824,12.139S125.14,106.518,122.833,107.884z"/>
	<path fill="#BE272D" d="M108.749,145.805c0,0,3.102-2.936,7.572-4.22c6.718-1.93,14.804-0.392,16,5.586
		c1.194,5.978,5.703,7.805,7.914,6.379c2.208-1.425,8.041-2.154,8.068,3.968c0.029,6.392-20.367,19.488-28.164-7.944
		C119.036,145.691,113.615,145.808,108.749,145.805z"/>
	<path opacity="0.15" fill="#F65C2B" d="M136.7,176.462c0,0-31.055,4.923-36.555-2.77s-5.984-18.589-16.492-26.391
		s-17.733-22.364-9.808-28.424s-11.021,5.012-12.252,18.751s-1.075,38.62,20.488,52.746s52.296,3.537,59.936-10.26
		S145.463,175.425,136.7,176.462z"/>
</g>
<g>
	<circle fill="#FF901E" cx="47.945" cy="171.462" r="45.892"/>
	<circle fill="#333333" cx="22.613" cy="145.447" r="3.821"/>
	<circle fill="#333333" cx="74.541" cy="145.447" r="3.821"/>
	<path fill="#333333" stroke="#333333" stroke-linejoin="round" stroke-miterlimit="10" d="M78.389,153.689
		c0,0,0.649,13.751-28.937,13.751c-32.164,0-28.837-13.751-28.837-13.751s-2.677,10.632,28.887,10.632
		C78.411,164.322,78.389,153.689,78.389,153.689z"/>
	<path fill="#FF901E" d="M20.615,134.683c0,0,1.15-26.339,8.194-23.799c7.043,2.54,7.924,19.385,7.924,19.385"/>
	<path fill="#FF901E" d="M74.312,134c0,0-1.149-26.339-8.194-23.799c-7.043,2.539-7.924,19.385-7.924,19.385"/>
	<path fill="#EE5A24" d="M29.896,130.118c0,0-0.342-11.616-3.074-11.616c-2.733,0-6.032,16.153-6.032,16.153
		S27.505,129.946,29.896,130.118z"/>
	<path fill="#EE5A24" d="M64.858,129.434c0,0,0.342-11.616,3.075-11.616s6.032,16.154,6.032,16.154S67.251,129.264,64.858,129.434z"
		/>
	<path opacity="0.15" fill="#F65C2B" d="M82.585,141.362c0.674,1.105,1.297,2.246,1.864,3.417
		c2.555,5.281,3.986,11.206,3.986,17.465c0,22.182-17.981,40.164-40.163,40.164c-22.183,0-40.164-17.982-40.164-40.164
		c0-8.674,2.75-16.706,7.427-23.271c-8.329,8.308-13.482,19.797-13.482,32.49c0,25.345,20.546,45.892,45.893,45.892
		c25.345,0,45.892-20.547,45.892-45.892C93.837,159.945,89.594,149.419,82.585,141.362z"/>
	<path opacity="0.1" fill="#F65C2B" d="M29.896,130.459c0,0,2.222-8.711,0-13.836c-2.221-5.124-6.707,2.392-7.281,6.235
		c-0.576,3.843-1.825,12.139-1.825,12.139S27.59,129.092,29.896,130.459z"/>
	<path opacity="0.05" fill="#F65C2B" d="M29.896,130.459c0,0,2.222-8.711,0-13.836c-2.221-5.124-6.707,2.392-7.281,6.235
		c-0.576,3.843-1.825,12.139-1.825,12.139S27.59,129.092,29.896,130.459z"/>
	<path opacity="0.05" fill="#F65C2B" d="M64.819,129.775c0,0-2.22-8.711,0-13.835c2.222-5.125,6.708,2.391,7.283,6.234
		c0.576,3.843,1.824,12.139,1.824,12.139S67.126,128.409,64.819,129.775z"/>
	<path opacity="0.25" fill="#F65C2B" d="M83.356,162.691c-4.554,18.559-14.753,20.051-20.961,31.806
		C49.454,219,19.768,207.679,19.768,207.679s11.711,9.675,28.178,9.675c11.56,0,30.438-5.375,40.951-27.104
		s3.078-31.916-0.685-38.693S83.356,162.691,83.356,162.691z"/>
	<path fill="#BE272D" d="M50.735,167.696c0,0,3.103-2.936,7.572-4.219c6.719-1.93,14.804-0.393,16,5.586
		c1.195,5.978,5.704,7.805,7.914,6.379c2.209-1.425,8.041-2.154,8.068,3.968c0.03,6.393-20.367,19.488-28.164-7.944
		C61.022,167.583,55.603,167.699,50.735,167.696z"/>
</g>
<g>
	<circle fill="#FF901E" cx="167.255" cy="170.368" r="45.892"/>
	<circle fill="#333333" cx="141.924" cy="144.353" r="3.821"/>
	<circle fill="#333333" cx="193.851" cy="144.353" r="3.82"/>
	<path fill="#333333" stroke="#333333" stroke-linejoin="round" stroke-miterlimit="10" d="M197.699,152.595
		c0,0,0.648,13.75-28.938,13.75c-32.163,0-28.837-13.75-28.837-13.75s-2.676,10.632,28.888,10.632
		C197.722,163.227,197.699,152.595,197.699,152.595z"/>
	<path fill="#FF901E" d="M139.925,133.588c0,0,1.15-26.338,8.195-23.799c7.043,2.54,7.924,19.385,7.924,19.385"/>
	<path fill="#FF901E" d="M193.622,132.905c0,0-1.15-26.338-8.194-23.799c-7.043,2.54-7.924,19.385-7.924,19.385"/>
	<path fill="#EE5A24" d="M149.206,129.023c0,0-0.342-11.616-3.074-11.616c-2.733,0-6.032,16.153-6.032,16.153
		S146.814,128.852,149.206,129.023z"/>
	<path fill="#EE5A24" d="M184.169,128.339c0,0,0.342-11.616,3.075-11.616s6.032,16.154,6.032,16.154
		S186.561,128.169,184.169,128.339z"/>
	<path opacity="0.15" fill="#F65C2B" d="M201.896,140.267c3.711,6.085,5.851,13.234,5.851,20.883
		c0,22.182-17.981,40.164-40.163,40.164c-22.183,0-40.164-17.981-40.164-40.164c0-8.674,2.75-16.707,7.427-23.272
		c-8.329,8.308-13.482,19.797-13.482,32.49c0,25.346,20.546,45.892,45.893,45.892c25.345,0,45.892-20.546,45.892-45.892
		C213.147,158.851,208.903,148.325,201.896,140.267z"/>
	<path opacity="0.1" fill="#F65C2B" d="M149.206,129.364c0,0,2.221-8.711,0-13.836c-2.221-5.124-6.707,2.392-7.282,6.235
		s-1.824,12.139-1.824,12.139S146.9,127.998,149.206,129.364z"/>
	<path opacity="0.05" fill="#F65C2B" d="M149.206,129.364c0,0,2.221-8.711,0-13.836c-2.221-5.124-6.707,2.392-7.282,6.235
		s-1.824,12.139-1.824,12.139S146.9,127.998,149.206,129.364z"/>
	<path opacity="0.05" fill="#F65C2B" d="M184.13,128.681c0,0-2.22-8.711,0-13.835c2.222-5.125,6.708,2.391,7.283,6.234
		c0.576,3.843,1.824,12.14,1.824,12.14S186.437,127.315,184.13,128.681z"/>
	<path fill="#BE272D" d="M170.046,166.602c0,0,3.102-2.936,7.572-4.22c6.718-1.93,14.804-0.393,16,5.586
		c1.195,5.978,5.703,7.805,7.914,6.379c2.209-1.426,8.041-2.154,8.068,3.968c0.03,6.392-20.367,19.488-28.164-7.944
		C180.333,166.488,174.913,166.604,170.046,166.602z"/>
	<path opacity="0.25" fill="#F65C2B" d="M197.7,195.462c0,0-31.055,4.923-36.555-2.77s-5.984-18.589-16.492-26.391
		s-17.733-22.364-9.808-28.424s-11.021,5.012-12.252,18.751s-1.075,38.62,20.488,52.746s52.296,3.537,59.936-10.26
		S206.463,194.425,197.7,195.462z"/>
</g>
<g>
	<circle fill="#FF901E" cx="111.431" cy="205.395" r="45.892"/>
	<circle fill="#333333" cx="86.1" cy="179.379" r="3.821"/>
	<circle fill="#333333" cx="138.026" cy="179.379" r="3.82"/>
	<path fill="#333333" stroke="#333333" stroke-linejoin="round" stroke-miterlimit="10" d="M141.875,187.622
		c0,0,0.649,13.75-28.937,13.75c-32.164,0-28.837-13.75-28.837-13.75s-2.677,10.632,28.887,10.632
		C141.897,198.254,141.875,187.622,141.875,187.622z"/>
	<path fill="#FF901E" d="M84.102,168.615c0,0,1.149-26.338,8.194-23.799c7.043,2.54,7.924,19.385,7.924,19.385"/>
	<path fill="#FF901E" d="M137.798,167.932c0,0-1.15-26.338-8.194-23.799c-7.043,2.54-7.924,19.385-7.924,19.385"/>
	<path fill="#EE5A24" d="M93.382,164.05c0,0-0.342-11.616-3.074-11.616c-2.733,0-6.032,16.153-6.032,16.153
		S90.99,163.879,93.382,164.05z"/>
	<path fill="#EE5A24" d="M128.345,163.366c0,0,0.342-11.616,3.075-11.616s6.032,16.154,6.032,16.154
		S130.737,163.196,128.345,163.366z"/>
	<path opacity="0.15" fill="#F65C2B" d="M146.071,175.294c3.712,6.085,5.851,13.234,5.851,20.883
		c0,22.182-17.981,40.164-40.163,40.164c-22.183,0-40.164-17.982-40.164-40.164c0-8.674,2.75-16.707,7.427-23.272
		c-8.329,8.308-13.482,19.797-13.482,32.49c0,25.346,20.546,45.892,45.893,45.892c25.345,0,45.892-20.546,45.892-45.892
		C157.323,193.877,153.079,183.352,146.071,175.294z"/>
	<path opacity="0.1" fill="#F65C2B" d="M93.382,164.391c0,0,2.221-8.711,0-13.836c-2.221-5.124-6.707,2.392-7.281,6.235
		c-0.576,3.843-1.825,12.139-1.825,12.139S91.076,163.025,93.382,164.391z"/>
	<path opacity="0.05" fill="#F65C2B" d="M93.382,164.391c0,0,2.221-8.711,0-13.836c-2.221-5.124-6.707,2.392-7.281,6.235
		c-0.576,3.843-1.825,12.139-1.825,12.139S91.076,163.025,93.382,164.391z"/>
	<path opacity="0.05" fill="#F65C2B" d="M128.306,163.708c0,0-2.22-8.711,0-13.836c2.222-5.125,6.708,2.391,7.283,6.234
		c0.576,3.843,1.824,12.14,1.824,12.14S130.612,162.342,128.306,163.708z"/>
	<path fill="#BE272D" d="M114.222,201.629c0,0,3.102-2.936,7.572-4.22c6.719-1.93,14.804-0.393,16,5.586
		c1.195,5.979,5.703,7.805,7.914,6.38c2.209-1.426,8.041-2.154,8.068,3.968c0.03,6.392-20.367,19.488-28.164-7.944
		C124.509,201.515,119.089,201.631,114.222,201.629z"/>
	<path opacity="0.25" fill="#F65C2B" d="M88.34,146.944c0,0,4.767-1.663,5.953,1.197s3.686,8.575,3.853,14.55
		s3.543,3.758,5.447,3.067c2.365-0.858,3.523-3.567,8.072-3.067s12.797,4.163,13.556-2.181s1.532-14.503,4.519-14.962
		s5.252,4.021,5.252,4.021s-2.43-7.305-5.388-5.438s-4.883,4.108-5.946,8.301s-1.813,9.162-1.813,9.162s-2.793-1.758-10.412-2.094
		s-11.53,1.461-11.53,1.461s-1.238-8.866-3.213-11.695S91.479,142.264,88.34,146.944z"/>
</g>
<path fill="#FF901E" d="M180.146,43v-1c0-14.912-12.088-27-27-27h-89c-14.912,0-27,12.088-27,27v1
	c0,10.462,5.955,19.528,14.656,24.011c-7.124,5.303-12.656,11.729-12.656,21.126c0,14.197,1.657,15.764,2.588,12.668
	c0.51-1.695-0.589-6.865,2.745-12.668c2.651-4.615,13.006-13.479,19.188-18.149C63.827,69.991,63.985,70,64.146,70h28.75
	c5.153,5.068,8.25,5.5,12,12.25c2.735,4.924-0.396,10.762-1.303,14.26c-1.114,4.294,8.572-5.759,8.072-14.229
	c-0.387-6.559-4.806-7.988-5.417-12.281h45.374c7.273,3.75,11.072,6.851,10.633,15.25c-0.567,10.848-3.473,13.296-1.646,17.214
	c2.037,4.37,8.062-16.268,8.037-23.214c-0.025-6.944-1.397-13.224-1.391-13.229C177.504,59.033,180.146,52.739,180.146,43z"/>
<g>
	<path fill="#FFFFFF" d="M51.584,30.543c0.8-0.16,1.68-0.24,2.56-0.32c0.12,1.32,0.24,2.64,0.36,3.919
		c1.6,0.04,2.959,0.12,4.039,0.24c0.08,0.24,0.16,0.68,0.16,1.24c0,0.64-0.08,1.04-0.16,1.2c-0.28,0.12-1.52,0.2-3.759,0.2
		c0.119,1.36,0.239,2.719,0.319,4.039c0.92-0.04,1.8-0.08,2.68-0.08c0.08,0.32,0.16,0.68,0.16,1.08c0,0.44-0.08,0.84-0.16,1.16
		c-0.6,0.16-1.439,0.32-2.479,0.48c0.08,1.44,0.16,2.8,0.24,4.159c-0.681,0.28-1.521,0.4-2.56,0.4
		c-0.16-1.439-0.32-2.839-0.44-4.279c-1.04,0.12-2.199,0.2-3.399,0.28c-0.399-0.56-0.6-1.4-0.6-2.52c1.279-0.2,2.56-0.36,3.759-0.48
		c-0.159-1.4-0.239-2.8-0.319-4.239c-2.8,0-4.319-0.04-4.56-0.2c-0.12-0.32-0.16-0.76-0.16-1.28c0-0.48,0.04-0.88,0.2-1.28
		c1.32-0.08,2.76-0.12,4.319-0.16C51.704,32.903,51.624,31.743,51.584,30.543z M67.701,37.582c-0.199,0.56-0.359,1.04-0.52,1.44
		c3.439,0.24,6.759,0.52,10.038,0.92c0,0.6-0.12,1.28-0.319,2.08c-1.48,0-2.92-0.04-4.359-0.16c-0.08,1.44-0.2,2.8-0.36,4.08
		c2.279,0.16,4.64,0.28,7.079,0.44c0,0.68-0.08,1.4-0.2,2.12c-2.439,0-4.839-0.04-7.198-0.12c-0.16,1.32-0.36,2.6-0.601,3.839
		c1.44,0.04,2.96,0.08,4.64,0.08c0,0.88-0.08,1.56-0.16,2.04c-0.4,0.12-1.52,0.2-3.319,0.2c-4.68-0.08-8.238-0.24-10.639-0.48
		c-0.159,0-0.239-0.52-0.239-1.52c0-0.959,0.08-2.199,0.319-3.719c0.88,0,1.68,0.04,2.479,0.12c0,1.76-0.04,2.759-0.12,3
		c1.16,0.08,2.56,0.16,4.24,0.2c0.119-1.359,0.239-2.639,0.399-3.879c-3.159-0.12-6.279-0.32-9.358-0.64v-1.12
		c0-0.32,0-0.6,0.08-0.92c2.959,0,6.159,0.08,9.599,0.24c0.199-1.479,0.439-2.879,0.72-4.199c-1.2-0.12-2.399-0.28-3.6-0.48
		c-0.6,1.36-1.12,2.36-1.56,3.04c-0.92,0-1.64-0.16-2.2-0.52c0.721-2.56,1.72-4.799,2.92-6.719
		C66.342,37.022,67.062,37.262,67.701,37.582z M78.06,27.384c0.04,0.24,0.08,0.64,0.08,1.2c-5.999,0.959-11.918,1.68-17.837,2.16
		c-0.2-0.44-0.28-0.88-0.28-1.32v-1.08c5.959-0.84,11.918-1.52,17.837-2.08C77.979,26.664,78.06,27.064,78.06,27.384z
		 M64.662,36.542c-0.72,0.4-1.439,0.64-2.16,0.72c-0.72-1.2-1.119-2.719-1.239-4.519c0.56-0.24,1.279-0.44,2.08-0.6
		C63.982,33.143,64.422,34.623,64.662,36.542z M70.821,35.502c-0.72,0.4-1.44,0.6-2.16,0.68c-0.6-1.2-0.96-2.68-1.04-4.439
		c0.561-0.28,1.28-0.48,2.12-0.64C70.221,32.063,70.581,33.543,70.821,35.502z M78.02,31.463c-0.96,2.64-1.72,4.439-2.319,5.479
		c-1,0-1.8-0.2-2.399-0.64c0.56-2.12,1.279-3.959,2.239-5.559C76.5,30.823,77.3,31.063,78.02,31.463z M80.06,53.859
		c-0.72,0.24-1.52,0.36-2.319,0.36c-0.44-1.28-0.76-2.6-0.96-3.959c0.84-0.2,1.68-0.32,2.52-0.32
		C79.659,51.22,79.899,52.5,80.06,53.859z"/>
	<path fill="#FFFFFF" d="M101.464,35.022c0.079,1.88,0.159,3.879,0.159,5.999c0,1.2-0.08,2.24-0.239,3.2
		c-1.04,0.16-2.64,0.24-4.8,0.24c-2.039,0-3.799-0.12-5.239-0.4c-0.119-1.76-0.159-3.759-0.159-5.999c0-0.84,0.04-1.879,0.159-3.119
		c1.48-0.16,3.24-0.24,5.319-0.24C98.584,34.703,100.184,34.823,101.464,35.022z M93.944,42.021h4.8v-4.759h-4.8V42.021z
		 M111.781,26.784c-0.399,1.12-0.84,2.16-1.239,3.199c3.759,0.32,7.559,0.64,11.358,0.96v1.28c0,0.56-0.12,1.04-0.28,1.48
		c-4.399-0.16-8.479-0.48-12.238-0.96c-0.64,1.439-1.279,2.799-1.92,4.159c-0.959-0.28-1.759-0.64-2.399-1.12
		c1.2-3.28,2.6-6.519,4.119-9.758C110.062,26.144,110.941,26.384,111.781,26.784z M118.94,40.222c-1.2,4.04-2.52,7.799-3.919,11.278
		c1.479,0.36,2.959,0.64,4.438,0.88c0,0.84-0.159,1.6-0.399,2.279c-4.72-0.28-7.279-0.76-7.719-1.479
		c0.72-2.399,1.92-5.839,3.68-10.398c-3.52,0-6.68-0.16-9.559-0.56c-0.12-0.32-0.16-0.72-0.16-1.28c0-0.48,0.04-0.92,0.16-1.32
		C109.622,39.622,114.102,39.822,118.94,40.222z"/>
	<path fill="#FFFFFF" d="M140.663,41.861c-2.72,0.28-5.318,0.4-7.839,0.4c-0.439-3.2-0.72-6.279-0.8-9.199
		c2.72-0.2,5.52-0.32,8.399-0.32C140.583,35.823,140.663,38.862,140.663,41.861z M135.064,39.742l3.039-0.24l-0.16-4.319
		l-3.159,0.16L135.064,39.742z M142.623,31.743c-0.12-0.36-0.16-0.76-0.16-1.2s0-0.84,0.08-1.16c1.92-0.04,4.279-0.08,7.159-0.08
		h3.479c-0.32-0.92-0.48-1.92-0.561-3c0.64-0.32,1.36-0.52,2.24-0.64c0.56,0.88,0.96,2.12,1.239,3.64
		c3.8,0.08,6.639,0.12,8.519,0.16c0.04,0.32,0.08,0.68,0.08,1.08v1.12c-1.12,0.28-6.159,0.4-15.077,0.4c-1.04,0-1.92,0-2.68-0.04
		c-1.04,5.999-2.279,11.558-3.72,16.597c0,0-0.479-0.04-1.439-0.2c-0.36-0.08-0.68-0.2-0.92-0.36
		c0.68-4.959,1.92-10.318,3.68-16.117C143.743,31.903,143.103,31.823,142.623,31.743z M149.901,36.143c0.4-0.04,0.88-0.08,1.44-0.08
		c0.439,0,0.88,0.08,1.319,0.24v4.999c0.8,0.04,1.52,0.08,2.12,0.08c0.08,0.4,0.16,0.8,0.16,1.2s-0.04,0.8-0.08,1.16
		c-0.561,0.08-1.32,0.16-2.2,0.2c0,1.24,0,2.479,0,3.679c0.8,0.24,1.64,0.44,2.439,0.6c0,0.64-0.12,1.439-0.319,2.319
		c-0.76-0.08-1.48-0.2-2.12-0.36c-0.04,1.72-0.04,3.439-0.04,5.199c-0.319,0.08-0.8,0.16-1.399,0.16c-0.64,0-1.12-0.12-1.36-0.32
		V49.5c-1.239,0.76-2.439,1.439-3.559,2c-0.561-0.52-1-1.16-1.24-1.92c1.479-1.04,3.079-2.08,4.799-3.119v-2.479
		c-1.119,0-1.959-0.04-2.439-0.16c-0.159-0.32-0.239-0.68-0.239-1.16c0-0.4,0.04-0.8,0.159-1.2c0.4-0.08,1.24-0.16,2.52-0.16
		C149.861,39.342,149.901,37.622,149.901,36.143z M164.779,41.981v1.16c-0.96,0.16-1.92,0.32-2.8,0.4
		c0.16,3.719,0.28,7.119,0.32,10.238c-0.48,0.24-1.24,0.36-2.359,0.36c-0.16-1.52-0.32-3-0.4-4.52c-0.88,0.32-1.88,0.64-3.079,0.96
		c-0.4-0.56-0.64-1.16-0.8-1.84c1.199-0.72,2.439-1.28,3.719-1.72c-0.08-1.08-0.12-2.16-0.12-3.239
		c-0.959,0.08-1.879,0.08-2.799,0.08c-0.16-0.8-0.2-1.6-0.2-2.439c0.96-0.12,1.92-0.24,2.92-0.32c-0.04-1.28-0.04-2.6-0.04-3.919
		c0.84-0.16,1.68-0.24,2.479-0.24c0.08,1.36,0.16,2.72,0.239,4c0.96-0.04,1.92-0.08,2.88-0.08
		C164.739,41.182,164.779,41.582,164.779,41.981z M166.659,49.021c-0.12,0.68-0.32,1.399-0.64,2.16c-1.28-0.2-2.32-0.52-3.08-0.96
		c0.24-0.88,0.521-1.6,0.76-2.12C164.659,48.3,165.659,48.621,166.659,49.021z"/>
</g>
</svg>
