<?xml version="1.0" encoding="utf-8"?>
<!-- Generator: Adobe Illustrator 16.0.4, SVG Export Plug-In . SVG Version: 6.00 Build 0)  -->
<!DOCTYPE svg PUBLIC "-//W3C//DTD SVG 1.1//EN" "http://www.w3.org/Graphics/SVG/1.1/DTD/svg11.dtd">
<svg version="1.1" id="Layer_1" xmlns="http://www.w3.org/2000/svg" xmlns:xlink="http://www.w3.org/1999/xlink" x="0px" y="0px"
	 width="71.77px" height="602.148px" viewBox="0 0 71.77 602.148" enable-background="new 0 0 71.77 602.148" xml:space="preserve">
<g>
	<g>
		<path fill="#FFFFFF" d="M26.429,8.223c0,1.687-0.282,3.233-0.775,4.569c-5.059,0-8.925-0.421-11.596-1.406
			c0-1.476,0.21-2.952,0.633-4.428C18.202,6.958,22.069,7.38,26.429,8.223z M25.935,30.926v4.428
			c-2.67,0.422-6.396,0.632-11.034,0.632c-0.352-1.476-0.49-3.022-0.49-4.568c2.035-0.281,4.92-0.492,8.643-0.632
			C24.318,30.786,25.303,30.855,25.935,30.926z M45.967,8.787c0.844-2.953,1.688-5.835,2.67-8.787
			c1.337,0.141,2.672,0.493,4.006,0.984c-0.489,2.672-0.983,5.271-1.405,7.803c3.727,0.07,7.662,0.139,11.879,0.21
			c0.281,4.498,0.563,10.263,0.845,17.36c1.546,0.141,2.881,0.211,4.006,0.282c0.139,0.421,0.281,1.125,0.281,2.108
			c0,1.055-0.143,1.757-0.281,2.039c-0.702,0.281-4.077,0.351-10.121,0.351H46.53c-1.549,6.326-3.164,12.37-4.851,18.134
			c0,0-0.914-0.141-2.743-0.421c-0.701-0.142-1.334-0.352-1.755-0.633c0.773-5.483,1.825-11.246,3.093-17.15
			c-6.326,0-9.981-0.141-10.894-0.281c-0.211-0.562-0.283-1.265-0.283-2.18c0-0.773,0.072-1.476,0.354-2.178
			c3.793,0,7.73-0.071,11.876-0.141c0.984-4.287,2.108-8.645,3.374-13.144c-4.287,0-8.012-0.07-11.105-0.211
			c-0.28-1.194-0.352-2.46-0.352-3.866c4.358-0.141,8.436-0.28,12.23-0.28H45.967z M47.655,26.217h11.525
			c-0.421-4.92-0.704-9.277-0.983-13.002h-7.801C49.48,17.712,48.567,22,47.655,26.217z M65.857,39.22
			c0,1.335-0.141,2.601-0.421,3.796c-5.343,0-10.683-1.055-15.956-3.233c0-1.406,0.141-2.741,0.422-4.146
			C55.245,36.057,60.517,37.252,65.857,39.22z"/>
		<path fill="#FFFFFF" d="M20.803,86.568c0,5.482-0.279,11.527-0.841,18.275c-0.562,0.211-1.336,0.281-2.461,0.281
			c-1.124,0-1.897-0.141-2.319-0.562c0-8.013,0.281-14.128,0.842-18.275c0.704-0.07,1.478-0.14,2.461-0.14
			C19.258,86.147,20.032,86.287,20.803,86.568z M29.52,113.559c-0.773,3.795-1.477,8.013-2.179,12.651
			c10.263,1.125,21.086,2.39,32.612,3.725c-0.211,1.407-0.492,2.812-0.843,4.288c-13.144-0.914-25.655-2.39-37.532-4.358
			c0.844-6.325,1.826-11.948,2.952-17.009C26.288,113.066,27.973,113.277,29.52,113.559z M25.513,105.475
			c-0.28-1.334-0.351-2.741-0.351-4.146c9.559-0.984,19.82-1.476,30.716-1.476c0.069,0.562,0.14,1.194,0.14,1.897v1.967
			c-4.217,0.563-8.436,0.914-12.512,1.126c0.142,2.529,0.282,4.989,0.354,7.379c4.497-0.422,8.715-0.632,12.79-0.632
			c0.142,0.562,0.282,1.194,0.282,1.757c0,0.703-0.141,1.265-0.282,1.828c-2.248,0.492-6.466,0.913-12.649,1.335
			c0,2.531,0.07,4.991,0.07,7.38c-0.564,0.281-1.406,0.422-2.462,0.422c-0.983,0-1.757,0-2.319-0.142
			c-0.703-6.255-1.052-12.58-1.125-19.046C33.877,105.405,29.659,105.475,25.513,105.475z M38.797,87.693
			c-0.211-2.53-0.28-5.06-0.28-7.59c0.843-0.07,1.757-0.141,2.741-0.281c0.982,0,1.756,0.07,2.46,0.14
			c0,2.671,0.07,5.272,0.07,7.802c7.591,0.14,15.042,0.422,22.421,0.703c0.563,5.131,0.914,9.98,0.914,14.619
			c-0.491,0.211-1.125,0.281-1.969,0.281c-0.634,0-1.404,0-2.319-0.141c-0.422-2.179-0.842-5.622-1.194-10.332
			c-10.965,0-22.069-0.282-33.246-0.914c-0.21-0.632-0.281-1.406-0.281-2.319c0-0.632,0-1.335,0.141-2.038
			C31.84,87.623,35.352,87.693,38.797,87.693z"/>
		<path fill="#FFFFFF" d="M38.902,173.083c-0.142-2.53-0.283-4.99-0.283-7.521c1.619-0.281,3.375-0.422,5.203-0.422
			c0.14,2.742,0.352,5.413,0.562,8.083c6.606,0.21,13.564,0.492,20.876,0.843c0,1.406-0.142,2.812-0.422,4.218
			c-6.89,0-13.567-0.071-20.174-0.282c0.282,4.991,0.492,9.84,0.704,14.479c6.887-0.352,13.775-0.703,20.594-0.984
			c0.21,0.703,0.352,1.406,0.352,2.038c0.07,0.422,0.141,1.125,0.141,2.18c-16.799,1.265-33.459,2.179-50.045,2.812
			c-0.422-0.774-0.562-1.546-0.562-2.32v-1.967c8.153-0.563,16.307-1.055,24.39-1.478c-0.492-4.99-0.844-9.979-1.056-14.9
			c-7.449-0.281-14.829-0.632-21.999-1.124v-2.179c0-0.562,0-1.195,0.143-1.827C24.002,172.732,31.171,172.873,38.902,173.083z
			 M35.037,201.479c-1.195,4.077-2.32,8.153-3.374,12.3c3.515,0.352,9.277,0.914,17.36,1.757c0.141,0.562,0.281,1.125,0.281,1.828
			s-0.141,1.405-0.281,2.249c-8.997,0-16.938-0.773-23.757-2.249c1.055-5.834,2.741-11.316,4.989-16.376
			c0.423-0.071,1.126-0.141,2.182-0.141C33.562,200.988,34.404,201.198,35.037,201.479z M63.01,214.483
			c-1.266,0.702-2.529,1.124-3.724,1.265c-2.11-2.602-3.305-5.834-3.655-9.7c1.054-0.422,2.249-0.703,3.655-0.985
			C61.042,207.172,62.309,210.335,63.01,214.483z"/>
		<path fill="#FFFFFF" d="M27.375,273.942c-4.778,0.422-9.347,0.633-13.846,0.633c-0.702-5.834-1.195-11.386-1.335-16.587
			c4.78-0.352,9.7-0.562,14.758-0.562C27.235,262.908,27.375,268.46,27.375,273.942z M17.535,270.217l5.271-0.421l-0.28-8.083
			l-5.552,0.28L17.535,270.217z M48.602,250.536c0.492,15.815,0.773,30.083,0.773,42.805c-2.74,0.281-4.92,0.492-6.535,0.492
			c-0.282-1.125-0.422-2.249-0.422-3.444c0.702-0.28,1.475-0.421,2.317-0.562c0-2.601-0.07-5.201-0.07-7.732
			c-1.053,0.14-2.388,0.14-3.936,0.14H38.69c-0.068,2.109-0.14,4.148-0.21,6.115c-0.562,0.211-1.406,0.282-2.39,0.282
			c-1.123,0-1.827-0.141-2.248-0.493v-6.044c-1.687-0.071-3.022-0.21-4.078-0.351c-0.21-0.563-0.281-1.196-0.281-1.898
			c0-0.704,0-1.335,0.142-1.828c1.267,0,2.742-0.07,4.289-0.07c0-2.741,0-5.271,0.067-7.521c-1.122-0.211-2.247-0.491-3.302-0.773
			c0-1.265,0-2.601,0.141-3.866c1.124,0.07,2.178,0.141,3.303,0.281c0-1.687,0.07-3.162,0.211-4.498
			c0.703-0.07,1.546-0.141,2.46-0.141c0.703,0,1.476,0.141,2.249,0.421v4.78c0.983,0.141,1.969,0.353,2.951,0.492
			c0,1.195-0.14,2.531-0.422,3.937c-0.982,0-1.826,0-2.6-0.07c-0.07,2.249-0.141,4.568-0.141,6.888h2.039
			c1.547,0,2.741,0.07,3.724,0.07c-0.21-7.872-0.561-15.603-1.124-23.335c-4.076,0-8.012-0.211-11.808-0.703
			c-0.212-0.562-0.281-1.265-0.281-2.109c0-0.772,0.069-1.405,0.281-1.968C40.94,249.974,46.564,250.255,48.602,250.536z
			 M59.217,287.929c-0.775,0.421-2.041,0.633-3.728,0.633c-1.687-4.709-2.458-10.122-2.458-16.307
			c1.334-0.281,2.671-0.422,4.006-0.422C58.372,277.808,59.076,283.15,59.217,287.929z M69.406,257.003
			c-0.069,3.233-0.773,7.168-2.178,11.808c1.125,2.39,2.108,6.044,2.881,10.964c-2.318,1.546-5.129,2.46-8.363,2.742
			c-0.704-0.914-1.054-2.249-1.125-4.006c0.915-0.421,2.107-0.844,3.585-1.406c-0.702-2.25-1.548-4.569-2.602-6.959
			c0.634-3.161,1.195-6.254,1.758-9.277c-3.374-0.282-6.536-0.773-9.419-1.546c0-1.687,0.141-3.234,0.422-4.498
			C59.427,255.035,64.486,255.739,69.406,257.003z"/>
		<path fill="#FFFFFF" d="M31.803,326.322c-1.615,4.921-5.13,16.307-10.543,34.019c-1.756-0.281-3.303-0.773-4.568-1.546
			c1.968-9.629,5.342-21.016,10.191-34.089C28.781,324.917,30.396,325.479,31.803,326.322z M50.921,329.486
			c-0.562,9.137-0.844,17.431-0.844,25.022h11.177v-4.78c0.771-0.07,1.406-0.14,1.967-0.14c0.705,0,1.407,0.07,2.039,0.14
			c0.212,1.406,0.352,2.741,0.352,4.007c0,2.249-0.14,3.795-0.352,4.638c-2.53,0.562-6.605,0.843-12.301,0.843
			c-4.357,0-7.098-0.281-8.363-0.843c0-9.559,0.352-19.188,1.055-29.028c0.492-0.141,1.405-0.211,2.811-0.211
			C49.023,329.134,49.866,329.274,50.921,329.486z"/>
		<path fill="#FFFFFF" d="M32.227,408.964c0.139,3.304,0.278,6.818,0.278,10.544c0,2.109-0.14,3.936-0.419,5.623
			c-1.829,0.282-4.64,0.422-8.437,0.422c-3.583,0-6.676-0.21-9.206-0.703c-0.211-3.092-0.281-6.606-0.281-10.543
			c0-1.476,0.07-3.303,0.281-5.482c2.601-0.281,5.693-0.421,9.346-0.421C27.164,408.402,29.975,408.614,32.227,408.964z
			 M19.011,421.265h8.436v-8.364h-8.436V421.265z M50.357,394.486c-0.701,1.968-1.476,3.795-2.178,5.623
			c6.606,0.563,13.283,1.125,19.962,1.687v2.249c0,0.984-0.211,1.828-0.492,2.602c-7.731-0.282-14.899-0.844-21.508-1.688
			c-1.125,2.529-2.249,4.919-3.375,7.31c-1.685-0.492-3.091-1.124-4.218-1.968c2.111-5.763,4.57-11.457,7.24-17.149
			C47.335,393.36,48.882,393.783,50.357,394.486z M62.94,418.102c-2.11,7.1-4.43,13.706-6.888,19.821
			c2.6,0.632,5.201,1.125,7.8,1.547c0,1.477-0.279,2.812-0.702,4.005c-8.295-0.492-12.793-1.335-13.563-2.601
			c1.264-4.216,3.373-10.261,6.466-18.274c-6.187,0-11.738-0.281-16.799-0.983c-0.211-0.563-0.281-1.266-0.281-2.25
			c0-0.844,0.07-1.617,0.281-2.32C46.563,417.047,54.436,417.399,62.94,418.102z"/>
		<path fill="#FFFFFF" d="M33.562,493.78c-2.812,1.055-5.481,1.968-8.012,2.67c1.544,6.396,2.67,12.934,3.372,19.681
			c-1.406,0.492-2.811,0.704-4.358,0.704c-1.616-6.257-2.881-12.583-3.794-18.978c-2.391,0.632-4.639,1.123-6.818,1.546
			c-0.562-1.194-0.843-2.461-0.843-3.866c6.536-3.233,13.003-5.201,19.469-5.904C33.209,490.827,33.562,492.234,33.562,493.78z
			 M56.545,476.279c-0.071,5.975-0.141,11.948-0.141,17.853c4.076,0.211,8.295,0.421,12.791,0.632c0,1.406-0.139,2.883-0.42,4.428
			c-4.217,0-8.364-0.07-12.441-0.211c-0.14,8.505-0.353,17.01-0.494,25.515c-0.419,0.141-1.263,0.28-2.598,0.28
			c-1.056,0-1.899-0.14-2.602-0.419c0.07-8.858,0.212-17.362,0.353-25.586c-4.569-0.141-9.067-0.423-13.494-0.843v-2.32
			c0-0.632,0-1.265,0.139-1.896c4.149,0,8.646,0.069,13.425,0.21c0.141-6.186,0.28-12.16,0.422-17.924
			c0.844-0.07,1.758-0.141,2.74-0.141C55.351,475.997,56.123,476.139,56.545,476.279z"/>
		<path fill="#FFFFFF" d="M47.197,555.961c-8.786,7.17-17.503,13.214-26.217,18.133c-1.406-1.405-2.391-2.811-3.023-4.216
			c8.576-6.325,17.502-12.161,26.639-17.571C45.58,553.29,46.423,554.557,47.197,555.961z M46.564,571.986
			c-4.357,8.294-8.506,15.743-12.301,22.35c6.537,0.354,13.145,0.705,19.82,1.126c0,1.546-0.141,2.952-0.422,4.356
			c-14.549-0.14-23.615-0.702-27.2-1.826c1.687-3.585,4.148-8.293,7.452-14.059c2.389-4.356,5.129-8.995,8.293-13.985
			C43.612,570.439,45.019,571.143,46.564,571.986z M64.347,595.251c-0.843,0.983-2.177,1.757-3.935,2.461
			c-2.393-3.586-4.359-7.381-6.047-11.457c1.337-1.125,2.672-1.969,3.937-2.39C60.482,587.379,62.52,591.174,64.347,595.251z"/>
	</g>
	<g>
		<path fill="#FF901E" stroke="#FF901E" stroke-linecap="round" stroke-miterlimit="10" d="M21.429,8.223
			c0,1.687-0.282,3.233-0.775,4.569c-5.059,0-8.925-0.421-11.596-1.406c0-1.476,0.21-2.952,0.633-4.428
			C13.202,6.958,17.069,7.38,21.429,8.223z M20.935,30.926v4.428c-2.67,0.422-6.396,0.632-11.034,0.632
			c-0.352-1.476-0.49-3.022-0.49-4.568c2.035-0.281,4.92-0.492,8.643-0.632C19.318,30.786,20.303,30.855,20.935,30.926z
			 M40.967,8.787c0.844-2.953,1.688-5.835,2.67-8.787c1.337,0.141,2.672,0.493,4.006,0.984c-0.489,2.672-0.983,5.271-1.405,7.803
			c3.727,0.07,7.662,0.139,11.879,0.21c0.281,4.498,0.563,10.263,0.845,17.36c1.546,0.141,2.881,0.211,4.006,0.282
			c0.139,0.421,0.281,1.125,0.281,2.108c0,1.055-0.143,1.757-0.281,2.039c-0.702,0.281-4.077,0.351-10.121,0.351H41.53
			c-1.549,6.326-3.164,12.37-4.851,18.134c0,0-0.914-0.141-2.743-0.421c-0.701-0.142-1.334-0.352-1.755-0.633
			c0.773-5.483,1.825-11.246,3.093-17.15c-6.326,0-9.981-0.141-10.894-0.281c-0.211-0.562-0.283-1.265-0.283-2.18
			c0-0.773,0.072-1.476,0.354-2.178c3.793,0,7.73-0.071,11.876-0.141c0.984-4.287,2.108-8.645,3.374-13.144
			c-4.287,0-8.012-0.07-11.105-0.211c-0.28-1.194-0.352-2.46-0.352-3.866c4.358-0.141,8.436-0.28,12.23-0.28H40.967z M42.655,26.217
			h11.525c-0.421-4.92-0.704-9.277-0.983-13.002h-7.801C44.48,17.712,43.567,22,42.655,26.217z M60.857,39.22
			c0,1.335-0.141,2.601-0.421,3.796c-5.343,0-10.683-1.055-15.956-3.233c0-1.406,0.141-2.741,0.422-4.146
			C50.245,36.057,55.517,37.252,60.857,39.22z"/>
		<path fill="#FF901E" stroke="#FF901E" stroke-linecap="round" stroke-miterlimit="10" d="M15.803,86.568
			c0,5.482-0.279,11.527-0.841,18.275c-0.562,0.211-1.336,0.281-2.461,0.281c-1.124,0-1.897-0.141-2.319-0.562
			c0-8.013,0.281-14.128,0.842-18.275c0.704-0.07,1.478-0.14,2.461-0.14C14.258,86.147,15.032,86.287,15.803,86.568z M24.52,113.559
			c-0.773,3.795-1.477,8.013-2.179,12.651c10.263,1.125,21.086,2.39,32.612,3.725c-0.211,1.407-0.492,2.812-0.843,4.288
			c-13.144-0.914-25.655-2.39-37.532-4.358c0.844-6.325,1.826-11.948,2.952-17.009C21.288,113.066,22.973,113.277,24.52,113.559z
			 M20.513,105.475c-0.28-1.334-0.351-2.741-0.351-4.146c9.559-0.984,19.82-1.476,30.716-1.476c0.069,0.562,0.14,1.194,0.14,1.897
			v1.967c-4.217,0.563-8.436,0.914-12.512,1.126c0.142,2.529,0.282,4.989,0.354,7.379c4.497-0.422,8.715-0.632,12.79-0.632
			c0.142,0.562,0.282,1.194,0.282,1.757c0,0.703-0.141,1.265-0.282,1.828c-2.248,0.492-6.466,0.913-12.649,1.335
			c0,2.531,0.07,4.991,0.07,7.38c-0.564,0.281-1.406,0.422-2.462,0.422c-0.983,0-1.757,0-2.319-0.142
			c-0.703-6.255-1.052-12.58-1.125-19.046C28.877,105.405,24.659,105.475,20.513,105.475z M33.797,87.693
			c-0.211-2.53-0.28-5.06-0.28-7.59c0.843-0.07,1.757-0.141,2.741-0.281c0.982,0,1.756,0.07,2.46,0.14
			c0,2.671,0.07,5.272,0.07,7.802c7.591,0.14,15.042,0.422,22.421,0.703c0.563,5.131,0.914,9.98,0.914,14.619
			c-0.491,0.211-1.125,0.281-1.969,0.281c-0.634,0-1.404,0-2.319-0.141c-0.422-2.179-0.842-5.622-1.194-10.332
			c-10.965,0-22.069-0.282-33.246-0.914c-0.21-0.632-0.281-1.406-0.281-2.319c0-0.632,0-1.335,0.141-2.038
			C26.84,87.623,30.352,87.693,33.797,87.693z"/>
		<path fill="#FF901E" stroke="#FF901E" stroke-linecap="round" stroke-miterlimit="10" d="M33.902,173.083
			c-0.142-2.53-0.283-4.99-0.283-7.521c1.619-0.281,3.375-0.422,5.203-0.422c0.14,2.742,0.352,5.413,0.562,8.083
			c6.606,0.21,13.564,0.492,20.876,0.843c0,1.406-0.142,2.812-0.422,4.218c-6.89,0-13.567-0.071-20.174-0.282
			c0.282,4.991,0.492,9.84,0.704,14.479c6.887-0.352,13.775-0.703,20.594-0.984c0.21,0.703,0.352,1.406,0.352,2.038
			c0.07,0.422,0.141,1.125,0.141,2.18c-16.799,1.265-33.459,2.179-50.045,2.812c-0.422-0.774-0.562-1.546-0.562-2.32v-1.967
			c8.153-0.563,16.307-1.055,24.39-1.478c-0.492-4.99-0.844-9.979-1.056-14.9c-7.449-0.281-14.829-0.632-21.999-1.124v-2.179
			c0-0.562,0-1.195,0.143-1.827C19.002,172.732,26.171,172.873,33.902,173.083z M30.037,201.479c-1.195,4.077-2.32,8.153-3.374,12.3
			c3.515,0.352,9.277,0.914,17.36,1.757c0.141,0.562,0.281,1.125,0.281,1.828s-0.141,1.405-0.281,2.249
			c-8.997,0-16.938-0.773-23.757-2.249c1.055-5.834,2.741-11.316,4.989-16.376c0.423-0.071,1.126-0.141,2.182-0.141
			C28.562,200.988,29.404,201.198,30.037,201.479z M58.01,214.483c-1.266,0.702-2.529,1.124-3.724,1.265
			c-2.11-2.602-3.305-5.834-3.655-9.7c1.054-0.422,2.249-0.703,3.655-0.985C56.042,207.172,57.309,210.335,58.01,214.483z"/>
		<path fill="#FF901E" stroke="#FF901E" stroke-linecap="round" stroke-miterlimit="10" d="M22.375,273.942
			c-4.778,0.422-9.347,0.633-13.846,0.633c-0.702-5.834-1.195-11.386-1.335-16.587c4.78-0.352,9.7-0.562,14.758-0.562
			C22.235,262.908,22.375,268.46,22.375,273.942z M12.535,270.217l5.271-0.421l-0.28-8.083l-5.552,0.28L12.535,270.217z
			 M43.602,250.536c0.492,15.815,0.773,30.083,0.773,42.805c-2.74,0.281-4.92,0.492-6.535,0.492
			c-0.282-1.125-0.422-2.249-0.422-3.444c0.702-0.28,1.475-0.421,2.317-0.562c0-2.601-0.07-5.201-0.07-7.732
			c-1.053,0.14-2.388,0.14-3.936,0.14H33.69c-0.068,2.109-0.14,4.148-0.21,6.115c-0.562,0.211-1.406,0.282-2.39,0.282
			c-1.123,0-1.827-0.141-2.248-0.493v-6.044c-1.687-0.071-3.022-0.21-4.078-0.351c-0.21-0.563-0.281-1.196-0.281-1.898
			c0-0.704,0-1.335,0.142-1.828c1.267,0,2.742-0.07,4.289-0.07c0-2.741,0-5.271,0.067-7.521c-1.122-0.211-2.247-0.491-3.302-0.773
			c0-1.265,0-2.601,0.141-3.866c1.124,0.07,2.178,0.141,3.303,0.281c0-1.687,0.07-3.162,0.211-4.498
			c0.703-0.07,1.546-0.141,2.46-0.141c0.703,0,1.476,0.141,2.249,0.421v4.78c0.983,0.141,1.969,0.353,2.951,0.492
			c0,1.195-0.14,2.531-0.422,3.937c-0.982,0-1.826,0-2.6-0.07c-0.07,2.249-0.141,4.568-0.141,6.888h2.039
			c1.547,0,2.741,0.07,3.724,0.07c-0.21-7.872-0.561-15.603-1.124-23.335c-4.076,0-8.012-0.211-11.808-0.703
			c-0.212-0.562-0.281-1.265-0.281-2.109c0-0.772,0.069-1.405,0.281-1.968C35.94,249.974,41.564,250.255,43.602,250.536z
			 M54.217,287.929c-0.775,0.421-2.041,0.633-3.728,0.633c-1.687-4.709-2.458-10.122-2.458-16.307
			c1.334-0.281,2.671-0.422,4.006-0.422C53.372,277.808,54.076,283.15,54.217,287.929z M64.406,257.003
			c-0.069,3.233-0.773,7.168-2.178,11.808c1.125,2.39,2.108,6.044,2.881,10.964c-2.318,1.546-5.129,2.46-8.363,2.742
			c-0.704-0.914-1.054-2.249-1.125-4.006c0.915-0.421,2.107-0.844,3.585-1.406c-0.702-2.25-1.548-4.569-2.602-6.959
			c0.634-3.161,1.195-6.254,1.758-9.277c-3.374-0.282-6.536-0.773-9.419-1.546c0-1.687,0.141-3.234,0.422-4.498
			C54.427,255.035,59.486,255.739,64.406,257.003z"/>
		<path fill="#FF901E" stroke="#FF901E" stroke-linecap="round" stroke-miterlimit="10" d="M26.803,326.322
			c-1.615,4.921-5.13,16.307-10.543,34.019c-1.756-0.281-3.303-0.773-4.568-1.546c1.968-9.629,5.342-21.016,10.191-34.089
			C23.781,324.917,25.396,325.479,26.803,326.322z M45.921,329.486c-0.562,9.137-0.844,17.431-0.844,25.022h11.177v-4.78
			c0.771-0.07,1.406-0.14,1.967-0.14c0.705,0,1.407,0.07,2.039,0.14c0.212,1.406,0.352,2.741,0.352,4.007
			c0,2.249-0.14,3.795-0.352,4.638c-2.53,0.562-6.605,0.843-12.301,0.843c-4.357,0-7.098-0.281-8.363-0.843
			c0-9.559,0.352-19.188,1.055-29.028c0.492-0.141,1.405-0.211,2.811-0.211C44.023,329.134,44.866,329.274,45.921,329.486z"/>
		<path fill="#FF901E" stroke="#FF901E" stroke-linecap="round" stroke-miterlimit="10" d="M27.227,408.964
			c0.139,3.304,0.278,6.818,0.278,10.544c0,2.109-0.14,3.936-0.419,5.623c-1.829,0.282-4.64,0.422-8.437,0.422
			c-3.583,0-6.676-0.21-9.206-0.703c-0.211-3.092-0.281-6.606-0.281-10.543c0-1.476,0.07-3.303,0.281-5.482
			c2.601-0.281,5.693-0.421,9.346-0.421C22.164,408.402,24.975,408.614,27.227,408.964z M14.011,421.265h8.436v-8.364h-8.436
			V421.265z M45.357,394.486c-0.701,1.968-1.476,3.795-2.178,5.623c6.606,0.563,13.283,1.125,19.962,1.687v2.249
			c0,0.984-0.211,1.828-0.492,2.602c-7.731-0.282-14.899-0.844-21.508-1.688c-1.125,2.529-2.249,4.919-3.375,7.31
			c-1.685-0.492-3.091-1.124-4.218-1.968c2.111-5.763,4.57-11.457,7.24-17.149C42.335,393.36,43.882,393.783,45.357,394.486z
			 M57.94,418.102c-2.11,7.1-4.43,13.706-6.888,19.821c2.6,0.632,5.201,1.125,7.8,1.547c0,1.477-0.279,2.812-0.702,4.005
			c-8.295-0.492-12.793-1.335-13.563-2.601c1.264-4.216,3.373-10.261,6.466-18.274c-6.187,0-11.738-0.281-16.799-0.983
			c-0.211-0.563-0.281-1.266-0.281-2.25c0-0.844,0.07-1.617,0.281-2.32C41.563,417.047,49.436,417.399,57.94,418.102z"/>
		<path fill="#FF901E" stroke="#FF901E" stroke-linecap="round" stroke-miterlimit="10" d="M28.562,493.78
			c-2.812,1.055-5.481,1.968-8.012,2.67c1.544,6.396,2.67,12.934,3.372,19.681c-1.406,0.492-2.811,0.704-4.358,0.704
			c-1.616-6.257-2.881-12.583-3.794-18.978c-2.391,0.632-4.639,1.123-6.818,1.546c-0.562-1.194-0.843-2.461-0.843-3.866
			c6.536-3.233,13.003-5.201,19.469-5.904C28.209,490.827,28.562,492.234,28.562,493.78z M51.545,476.279
			c-0.071,5.975-0.141,11.948-0.141,17.853c4.076,0.211,8.295,0.421,12.791,0.632c0,1.406-0.139,2.883-0.42,4.428
			c-4.217,0-8.364-0.07-12.441-0.211c-0.14,8.505-0.353,17.01-0.494,25.515c-0.419,0.141-1.263,0.28-2.598,0.28
			c-1.056,0-1.899-0.14-2.602-0.419c0.07-8.858,0.212-17.362,0.353-25.586c-4.569-0.141-9.067-0.423-13.494-0.843v-2.32
			c0-0.632,0-1.265,0.139-1.896c4.149,0,8.646,0.069,13.425,0.21c0.141-6.186,0.28-12.16,0.422-17.924
			c0.844-0.07,1.758-0.141,2.74-0.141C50.351,475.997,51.123,476.139,51.545,476.279z"/>
		<path fill="#FF901E" stroke="#FF901E" stroke-linecap="round" stroke-miterlimit="10" d="M42.197,555.961
			c-8.786,7.17-17.503,13.214-26.217,18.133c-1.406-1.405-2.391-2.811-3.023-4.216c8.576-6.325,17.502-12.161,26.639-17.571
			C40.58,553.29,41.423,554.557,42.197,555.961z M41.564,571.986c-4.357,8.294-8.506,15.743-12.301,22.35
			c6.537,0.354,13.145,0.705,19.82,1.126c0,1.546-0.141,2.952-0.422,4.356c-14.549-0.14-23.615-0.702-27.2-1.826
			c1.687-3.585,4.148-8.293,7.452-14.059c2.389-4.356,5.129-8.995,8.293-13.985C38.612,570.439,40.019,571.143,41.564,571.986z
			 M59.347,595.251c-0.843,0.983-2.177,1.757-3.935,2.461c-2.393-3.586-4.359-7.381-6.047-11.457
			c1.337-1.125,2.672-1.969,3.937-2.39C55.482,587.379,57.52,591.174,59.347,595.251z"/>
	</g>
</g>
</svg>
