<?xml version="1.0" encoding="utf-8"?>
<!-- Generator: Adobe Illustrator 16.0.4, SVG Export Plug-In . SVG Version: 6.00 Build 0)  -->
<!DOCTYPE svg PUBLIC "-//W3C//DTD SVG 1.1//EN" "http://www.w3.org/Graphics/SVG/1.1/DTD/svg11.dtd">
<svg version="1.1" id="Layer_1" xmlns="http://www.w3.org/2000/svg" xmlns:xlink="http://www.w3.org/1999/xlink" x="0px" y="0px"
	 width="105.312px" height="89.667px" viewBox="0 0 105.312 89.667" enable-background="new 0 0 105.312 89.667"
	 xml:space="preserve">
<g>
	<path fill="#D5EEF9" d="M103.312,21.575C98.449,3.997,71.662-3.933,43.482,3.863C15.302,11.658-3.601,32.227,1.263,49.805
		c4.135,14.948,21.688,21.874,45.938,20.13c1.685-0.121,5.481-0.298,8.253-0.314c4.279-0.023,6.496,5.252,5.283,8.327
		c-2.891,7.326-8.74,7.217-11.406,9.969c-1.488,1.538,3.508,1.589,8.543-0.521c3.479-1.458,10.447-5.447,14.729-12.186
		c4.373-6.882,2.368-10.761,3.71-13.127c0.001-0.002,12.291-8.808,15.921-11.747C102.564,41.972,106.064,31.525,103.312,21.575z"/>
	<g>
		<path fill="#FF901E" d="M25.434,45.769c-0.911,0.892-1.808,1.699-2.638,2.448c1.294,2.079,2.46,4.272,3.473,6.628
			c-0.682,0.428-1.43,0.755-2.247,0.981c-1.233-1.856-2.364-3.78-3.31-5.756c-0.512,0.462-0.969,0.828-1.39,1.185
			c-0.652-0.339-1.226-0.82-1.644-1.463c1.783-1.931,3.846-3.86,6.095-5.84C24.45,44.524,25.017,45.126,25.434,45.769z
			 M24.639,41.595c-0.741,0.205-1.505,0.337-2.363,0.414c-0.729-2.634-1.361-5.215-1.9-7.742c-1.84,0.429-3.751,0.878-5.755,1.433
			c-0.28-0.722-0.465-1.39-0.639-2.021c2.708-0.75,5.443-1.546,8.264-2.326C23.117,34.507,23.903,37.924,24.639,41.595z
			 M20.703,39.928c-0.32,1.447-0.753,2.765-1.229,3.935c-0.746,0.047-1.506-0.102-2.254-0.495c0.381-1.224,0.787-2.494,1.258-3.822
			C19.208,39.583,19.969,39.731,20.703,39.928z M20.392,36.779c-0.113,0.75-0.405,1.43-0.812,1.981
			c-1.155-0.279-2.229-0.701-3.188-1.274c0.159-0.724,0.377-1.383,0.614-1.968C18.116,35.771,19.228,36.182,20.392,36.779z
			 M29.38,43.719c-0.181-0.508-0.352-0.981-0.484-1.464c0.182-0.209,0.531-0.386,1.03-0.604c0.52-0.144,0.873-0.162,1.117-0.149
			c0.239,0.572,0.441,1.156,0.631,1.702c1.171-0.244,2.389-0.461,3.671-0.736c0.185,0.667,0.306,1.393,0.399,2.166
			c-3.005,0.832-5.979,1.494-8.965,1.961l-0.317-1.15c-0.083-0.297-0.165-0.594-0.182-0.949
			C27.244,44.229,28.295,43.979,29.38,43.719z M29.719,46.821c0.712-0.317,1.47-0.606,2.286-0.833c0.159,0.436,0.32,0.87,0.47,1.269
			c0.779-0.216,1.458-0.363,2.052-0.527c0.155,0.276,0.333,0.626,0.436,0.997c0.093,0.334,0.137,0.641,0.182,0.949
			c-0.499,0.217-1.108,0.466-1.915,0.729c0.103,0.371,0.223,0.657,0.294,0.917c0.721-0.279,1.407-0.549,2.092-0.818
			c0.323,0.59,0.581,1.237,0.86,1.959c-0.701,0.355-1.449,0.68-2.207,0.97c0.124,0.445,0.262,0.807,0.413,1.204
			c0.814-0.225,1.447-0.4,1.901-0.486l0.555,2.004c-1.433,0.595-3.404,1.26-5.967,1.969c-0.354-0.7-0.575-1.358-0.76-2.026
			c0.499-0.218,1.146-0.477,1.952-0.74c-0.177-0.35-0.316-0.711-0.398-1.008c-0.721,0.28-1.379,0.501-2.036,0.724
			c-0.302-0.515-0.636-1.143-0.935-1.938c0.72-0.279,1.469-0.606,2.189-0.885c-0.139-0.362-0.289-0.759-0.392-1.131l-0.148,0.042
			c-1.077,0.298-1.866,0.477-2.417,0.509c-0.209-0.182-0.339-0.505-0.441-0.876c-0.103-0.372-0.168-0.753-0.176-1.07
			c0.352-0.177,1.192-0.45,2.456-0.799C29.924,47.562,29.821,47.191,29.719,46.821z M33.834,39.89
			c-0.707,0.195-1.495,0.374-2.354,0.451l-2.494-9.015c-1.716,0.435-3.546,0.901-5.437,1.424c-0.269-0.684-0.453-1.353-0.617-1.946
			c2.576-0.792,5.228-1.606,7.971-2.365C31.889,32.001,32.873,35.843,33.834,39.89z M29.335,37.061
			c-0.358,1.298-0.786,2.495-1.283,3.59c-0.783,0.057-1.516-0.14-2.253-0.495c0.373-1.102,0.812-2.263,1.314-3.48
			C27.879,36.705,28.64,36.854,29.335,37.061z M28.823,33.768c-0.111,0.75-0.377,1.382-0.782,1.934
			c-1.183-0.232-2.258-0.653-3.28-1.17c0.133-0.675,0.36-1.297,0.625-1.93C26.532,32.844,27.67,33.208,28.823,33.768z
			 M47.432,38.366c-0.893,1.684-1.832,3.342-2.793,4.926c0.815,1.212,1.631,2.425,2.425,3.563c0.58-0.36,1.223-0.778,1.94-1.216
			c0.365,0.458,0.706,0.963,1.038,1.59c-0.976,0.949-2.272,1.747-3.928,2.404c-1.005-1.32-2.008-2.639-2.929-3.942
			c-1.426,2.351-2.588,4.07-3.496,5.12c-0.771-0.186-1.396-0.572-1.961-1.174c1.159-2.158,2.415-4.263,3.754-6.351
			c-1.171-1.633-2.303-3.277-3.315-4.914c-0.898,0.367-1.842,0.708-2.786,1.05c-0.515-0.417-0.869-1.118-1.136-2.083
			c0.852-0.396,1.662-0.78,2.475-1.164c-0.814-1.213-1.546-2.409-2.276-3.604c0.492-0.536,1.188-1.048,2.113-1.463
			c0.855,1.36,1.749,2.711,2.668,4.015c1.804-0.699,3.554-1.303,5.261-1.775c0.156,0.277,0.314,0.553,0.406,0.886
			c0.113,0.408,0.13,0.763,0.127,1.042c-0.882,0.564-2.32,1.282-4.326,2.117c0.776,1.224,1.534,2.372,2.328,3.509
			c0.738-1.083,1.45-2.118,2.211-3.128C46.075,37.942,46.81,38.139,47.432,38.366z M45.768,30.478
			c-0.45,0.684-0.995,1.313-1.644,1.853c-1.476-0.71-2.785-1.546-3.931-2.507c0.472-0.61,1.027-1.203,1.683-1.863
			C43.276,28.69,44.55,29.537,45.768,30.478z"/>
		<path fill="#FF901E" d="M69.937,17.961c-4.578,2.505-9.184,4.777-13.875,6.874c-0.577-0.64-1.016-1.356-1.314-2.153
			c4.255-2.376,8.924-4.706,14.003-6.989C69.288,16.343,69.7,17.107,69.937,17.961z M83.124,25.057
			c0.175,0.631,0.249,1.049,0.274,1.282c-1.741,0.642-3.5,1.208-5.261,1.775c1.136,1.363,2.425,2.844,3.807,4.379
			c0.819-0.946,1.683-1.863,2.593-2.755c0.792,0.261,1.344,0.667,1.731,1.199c-0.789,1.337-1.609,2.562-2.412,3.703
			c0.99,1.123,2.017,2.237,3.044,3.352c0.428-0.478,0.865-0.918,1.323-1.285c0.483,0.306,0.925,0.743,1.237,1.296
			c-0.601,1.005-1.614,1.965-3.048,2.839c-1.2-0.866-2.633-2.147-4.273-3.89c-0.952,1.182-1.886,2.28-2.852,3.265
			c-0.715-0.281-1.333-0.629-1.819-1.094c0.747-1.486,1.626-2.927,2.676-4.335c-1.45-1.635-3.059-3.547-4.797-5.782
			c-2.556,0.866-5.094,1.649-7.671,2.442c0.711,1.56,1.374,3.094,2.048,4.665c0.872-0.32,1.694-0.667,2.563-0.988
			c0.299,0.796,0.588,1.554,0.783,2.26c-0.812,0.385-1.586,0.757-2.371,1.095c0.818,2.091,1.615,4.107,2.359,6.217
			c-1.187,0.768-2.795,1.452-4.872,2.027c-0.345-0.383-0.647-0.899-0.89-1.631c0.912-0.453,1.808-0.82,2.726-1.114
			c-0.653-1.496-1.306-2.994-1.902-4.426c-2.394,1.021-4.78,1.921-7.188,2.747c-0.407-0.606-0.696-1.365-0.942-2.255
			c2.366-0.975,4.732-1.949,7.071-2.876c-0.73-1.635-1.465-3.269-2.147-4.878c-1.909,0.608-3.829,1.179-5.757,1.712
			c-0.315-0.711-0.569-1.479-0.796-2.296c1.761-0.567,3.587-1.191,5.494-1.798c-0.437-0.999-0.882-2.034-1.317-3.032
			c0.828-0.469,1.604-0.842,2.346-1.048c0.541,1.089,1.118,2.167,1.649,3.219c2.278-0.71,4.661-1.489,7.089-2.241
			c-0.424-0.522-0.867-1.118-1.312-1.713c0.586-0.482,1.33-0.968,2.196-1.448c0.559,0.725,1.176,1.513,1.84,2.328
			c2.06-0.649,4.191-1.319,6.322-1.989C82.823,24.262,83.001,24.612,83.124,25.057z M84.704,18.069
			c-0.127,0.834-0.408,1.551-0.831,2.188c-2.007-0.324-3.918-0.874-5.655-1.671c0.187-0.77,0.384-1.504,0.674-2.183
			C80.841,16.661,82.798,17.238,84.704,18.069z"/>
	</g>
</g>
</svg>
