<?xml version="1.0" encoding="utf-8"?>
<!-- Generator: Adobe Illustrator 16.0.4, SVG Export Plug-In . SVG Version: 6.00 Build 0)  -->
<!DOCTYPE svg PUBLIC "-//W3C//DTD SVG 1.1//EN" "http://www.w3.org/Graphics/SVG/1.1/DTD/svg11.dtd">
<svg version="1.1" id="Layer_1" xmlns="http://www.w3.org/2000/svg" xmlns:xlink="http://www.w3.org/1999/xlink" x="0px" y="0px"
	 width="69.519px" height="478.122px" viewBox="0 0 69.519 478.122" enable-background="new 0 0 69.519 478.122"
	 xml:space="preserve">
<g>
	<g>
		<path fill="#FFFFFF" d="M20.56,46.177c-1.548,1.968-4.077,4.147-7.522,6.467c-1.264-1.196-2.107-2.461-2.67-3.726
			c2.109-2.038,4.57-4.147,7.45-6.325C18.941,43.507,19.857,44.701,20.56,46.177z M30.611,6.185
			c-0.283,2.53-0.633,4.849-1.057,7.099c3.516,0.281,7.242,0.562,11.107,0.843c0,1.406-0.143,2.952-0.423,4.498
			c-9.771,0-19.399-0.492-28.956-1.546v-2.459c0-0.633,0-1.265,0.139-1.968c3.937,0,8.082,0.141,12.581,0.352
			c0.423-2.671,0.983-5.202,1.618-7.591C27.166,5.553,28.783,5.763,30.611,6.185z M36.443,24.037
			c0.354,1.265,0.562,4.288,0.562,9.067c0,2.952-0.209,4.78-0.562,5.552c-1.264,0.282-3.654,0.422-7.167,0.422
			c0.631,5.482,1.052,11.035,1.264,16.517c-1.054,0.492-2.741,0.773-5.131,0.773c-1.897,0-3.305-0.141-4.217-0.281
			c-0.353-1.195-0.492-2.32-0.492-3.444c1.757-0.14,3.444-0.281,4.99-0.281c-0.704-4.428-1.054-8.856-1.124-13.213
			c-4.568,0-7.803-0.282-9.771-0.984c-0.492-1.546-0.701-3.163-0.701-4.85c0-2.882,0.279-5.975,0.844-9.208
			c0.562-0.141,1.122-0.282,1.826-0.282c0.773,0,1.477,0.141,2.039,0.282v10.613c3.936,0.281,8.363,0.421,13.284,0.421
			c0.07-2.53,0.141-4.99,0.141-7.38c-3.655-0.281-7.029-0.773-10.123-1.335v-1.758c0-0.562,0.071-1.053,0.212-1.546
			C26.533,23.123,31.242,23.476,36.443,24.037z M41.084,47.864c-0.845,0.984-1.969,1.899-3.232,2.742
			c-2.11-1.406-4.076-3.304-5.765-5.835c1.123-0.982,2.248-1.897,3.373-2.67C37.498,43.789,39.396,45.756,41.084,47.864z
			 M58.865,13.986c-0.844,2.39-2.039,5.975-3.654,10.895c4.145,0.211,8.505,0.491,13.142,0.773c0,1.405-0.14,2.811-0.419,4.357
			c-4.922,0-9.701-0.07-14.341-0.352c-2.036,5.905-4.427,13.144-7.239,21.579c-1.615-0.282-3.021-0.773-4.217-1.476
			c1.337-6.186,3.304-13.004,5.834-20.454c-2.178-0.141-4.287-0.281-6.254-0.492v-2.39c0-0.562,0-1.196,0.14-1.898
			c2.458,0,5.062,0.07,7.802,0.14c1.404-3.865,2.951-7.941,4.639-12.16C56.124,12.721,57.602,13.213,58.865,13.986z M61.958,35.986
			c-0.423,2.67-0.845,5.693-1.194,8.926c2.248,0.353,4.707,0.703,7.238,1.125c-0.21,1.405-0.492,2.741-0.843,4.076
			c-4.076-0.28-7.943-0.843-11.597-1.687c0.562-4.919,1.123-9.277,1.827-13.143C59.008,35.494,60.553,35.705,61.958,35.986z
			 M68.986,19.398c-0.634,1.406-1.477,2.53-2.6,3.444c-2.601-1.125-4.92-2.53-7.031-4.147c0.635-1.265,1.338-2.39,2.18-3.444
			C64.136,16.306,66.598,17.711,68.986,19.398z"/>
		<path fill="#FFFFFF" d="M17.644,111.398c-0.212-1.265-0.282-2.67-0.282-4.076c13.072-0.703,27.902-1.335,44.35-1.827
			c0.142,0.562,0.281,1.265,0.281,2.039c0,1.053-0.07,1.826-0.14,2.249c-6.044,0.422-12.02,0.703-18.064,0.913
			c0.071,1.688,0.14,3.304,0.14,4.85c4.359,0.211,8.719,0.632,13.216,1.194c0,1.266-0.142,2.602-0.422,4.007
			c-4.499,0-8.786-0.282-12.722-0.914c0,1.335,0.069,2.671,0.069,3.937c-0.561,0.281-1.335,0.42-2.46,0.42
			c-0.914,0-1.686,0-2.319-0.14c-0.421-4.288-0.702-8.646-0.772-13.144C31.631,111.188,24.67,111.328,17.644,111.398z
			 M27.131,116.319c-0.421,2.671-0.844,5.623-1.266,8.997c8.928,1.054,18.415,2.249,28.466,3.513
			c-0.21,1.406-0.491,2.742-0.844,4.147c-11.665-0.843-22.772-2.249-33.314-4.218c0.562-4.849,1.265-9.207,2.038-13.143
			C23.897,115.827,25.586,116.038,27.131,116.319z M56.58,81.106c0,9.699-0.492,16.798-1.404,21.367
			c-2.672,0.422-9.701,0.563-21.156,0.563c-4.499,0-8.225-0.423-11.318-1.266c-0.49-5.413-0.771-11.808-0.842-19.188
			c1.547-0.142,3.093-0.282,4.639-0.282c0.143,2.179,0.212,4.358,0.281,6.537c0.703,0,1.617-0.069,2.601-0.069
			c3.233,0,5.693,0.209,7.521,0.491c0.141,0.562,0.282,1.194,0.282,1.897c0,0.703-0.07,1.266-0.142,1.828h-7.872
			c-0.914,0-1.687,0-2.248-0.071c0.07,1.757,0.142,3.514,0.21,5.201c8.716,0.492,16.657,0.703,23.969,0.703
			c0-3.444,0.139-7.942,0.561-13.565c-7.238-0.281-13.776-0.773-19.609-1.476c0-1.406,0-2.741,0.141-4.006
			C41.259,80.051,49.412,80.544,56.58,81.106z"/>
		<path fill="#FFFFFF" d="M26.603,191.497c-0.491,4.077-1.476,8.224-2.882,12.512c8.855,2.318,17.713,4.499,26.709,6.606
			c0,1.335-0.281,2.601-0.773,3.795c-9.77-0.984-18.976-2.812-27.624-5.623c-0.632,1.546-1.333,3.163-2.036,4.85
			c-1.194,0-2.531-0.421-3.938-1.266c1.547-5.481,3.163-11.034,4.781-16.587c-2.812-0.281-5.483-0.703-8.082-1.265
			c0-1.688,0.139-3.232,0.42-4.499C19.574,190.302,24.073,190.793,26.603,191.497z M27.517,172.45
			c-0.422,1.476-0.984,2.881-1.757,4.146c-3.443-0.211-6.467-1.125-9.138-2.741c0.353-1.546,0.843-3.022,1.476-4.288
			C20.908,169.918,24.073,170.903,27.517,172.45z M66.596,175.05c0,1.546-0.141,3.022-0.352,4.499
			c-10.824,0-21.438-0.281-31.84-0.985c0-1.686,0.143-3.232,0.492-4.638C45.58,173.926,56.195,174.347,66.596,175.05z
			 M47.758,190.935c3.234-2.391,6.468-4.71,9.701-6.959c1.194,0.984,2.317,1.968,3.305,3.023c-2.674,2.389-5.344,4.568-8.085,6.677
			c2.741,1.616,5.482,3.233,8.294,4.85c-0.421,1.265-1.335,2.319-2.6,3.303c-3.514-1.616-6.748-3.303-9.84-5.061
			c-2.672,1.898-5.344,3.725-8.084,5.553c-1.266-0.914-2.317-2.039-3.163-3.375c2.179-1.686,4.357-3.373,6.467-4.989
			c-2.251-1.335-4.358-2.741-6.326-4.146c0.774-1.266,1.617-2.25,2.46-3.093C42.488,188.123,45.088,189.529,47.758,190.935z
			 M57.951,166.265c-0.141,1.546-0.492,3.022-1.056,4.428c-2.67,0-6.466-0.915-11.385-2.741c0.141-1.757,0.491-3.304,1.054-4.568
			C50.361,164.085,54.154,165.069,57.951,166.265z"/>
		<path fill="#FFFFFF" d="M45.722,251.824c-8.785,7.169-17.501,13.214-26.218,18.133c-1.404-1.405-2.389-2.811-3.021-4.216
			c8.576-6.326,17.503-12.16,26.638-17.571C44.105,249.153,44.948,250.419,45.722,251.824z M45.089,267.849
			c-4.357,8.294-8.503,15.744-12.3,22.351c6.536,0.352,13.145,0.703,19.82,1.125c0,1.546-0.141,2.952-0.422,4.357
			c-14.548-0.141-23.615-0.703-27.199-1.827c1.686-3.584,4.146-8.293,7.451-14.057c2.389-4.358,5.129-8.998,8.292-13.987
			C42.137,266.303,43.542,267.006,45.089,267.849z M62.871,291.114c-0.842,0.985-2.178,1.758-3.935,2.461
			c-2.392-3.584-4.357-7.38-6.044-11.458c1.333-1.125,2.67-1.967,3.934-2.39C59.008,283.243,61.046,287.038,62.871,291.114z"/>
		<path fill="#FFFFFF" d="M27.445,326.767c-0.562,1.125-1.053,2.249-1.545,3.233c3.936,0.352,7.73,0.773,11.458,1.335
			c0,1.055-0.212,2.249-0.494,3.655c-4.217,0-8.573-0.351-12.933-1.125c-1.615,3.093-3.163,5.764-4.567,8.153
			c-1.616-0.42-2.884-1.054-3.796-2.038c1.193-2.812,3.726-7.873,7.59-15.182C24.704,325.29,26.181,325.922,27.445,326.767z
			 M22.666,355.162c0.424,8.434,0.704,17.572,0.704,27.342c-0.492,0.14-1.124,0.21-1.899,0.21c-0.771,0-1.475-0.071-2.106-0.071
			c-0.845-3.654-1.267-8.505-1.267-14.69c0-6.466,0.141-10.753,0.562-12.792c0.563-0.14,1.266-0.281,1.968-0.281
			C21.332,354.88,22.034,355.021,22.666,355.162z M31.944,338.996c-0.212,1.194-0.632,2.39-1.194,3.584
			c-2.39-0.281-4.498-0.914-6.395-1.757c0.279-1.336,0.631-2.53,1.191-3.585C27.516,337.661,29.626,338.294,31.944,338.996z
			 M37.358,347.993c-0.282,0.703-0.563,1.335-0.986,1.897c-0.353,0.704-0.772,1.406-1.265,1.969c-2.46-0.773-4.71-2.038-6.816-3.796
			c0.562-1.546,1.335-2.881,2.388-4.006C32.857,345.252,35.107,346.587,37.358,347.993z M52.117,358.325
			c0,7.662-0.423,13.285-1.268,16.94c-1.404,0.351-4.988,0.491-10.752,0.491c-4.078,0-7.59-0.421-10.4-1.265
			c-0.423-4.147-0.705-9.067-0.775-14.831c1.406-0.14,2.741-0.281,4.146-0.281c0.141,1.617,0.211,3.164,0.352,4.71
			c0.774,0,1.688,0,2.741,0c1.899,0,3.374,0.069,4.428,0.14c0.141,0.633,0.282,1.336,0.282,2.039c0,0.632-0.07,1.265-0.142,1.827
			c-0.983,0.211-2.6,0.281-4.779,0.281c-0.913,0-1.686,0-2.319-0.07c0,0.984,0.07,1.967,0.143,2.881
			c4.709,0.422,9.066,0.632,13.143,0.632c0-2.39,0.141-5.622,0.562-9.559c-4.216-0.281-8.083-0.703-11.458-1.405
			c0-1.335,0-2.602,0.142-3.796C42.064,357.341,47.407,357.763,52.117,358.325z M49.938,326.415
			c-0.422,0.843-1.054,2.108-1.757,3.726c5.343,0.562,10.542,1.335,15.604,2.178c0,1.124-0.211,2.32-0.494,3.654
			c-5.551,0-11.244-0.632-17.007-1.967c-0.985,2.178-2.18,4.639-3.444,7.31c-1.547-0.211-2.883-0.633-4.007-1.335
			c1.265-4.218,3.583-9.137,6.959-14.901C47.407,325.29,48.814,325.712,49.938,326.415z M63.363,349.75
			c0.211,7.731,0.351,14.478,0.351,20.312c0,5.131-0.211,8.997-0.633,11.738c-1.265,0.07-2.53,0.14-3.726,0.14
			c-1.756,0-3.233-0.07-4.497-0.211c-0.281-0.562-0.422-1.265-0.422-1.968c0-0.632,0-1.195,0.141-1.616
			c1.405-0.141,2.741-0.141,4.076-0.141c0.069-8.013,0.14-16.096,0.14-24.108c-4.076-0.492-8.292-1.125-12.509-1.968v-2.108
			c0-0.493,0.069-1.196,0.279-2.039C52.047,348.204,57.6,348.907,63.363,349.75z M58.723,339.277
			c-0.141,1.265-0.42,2.459-0.912,3.655c-1.828,0-4.499-0.562-7.873-1.757c0.141-1.406,0.492-2.6,0.983-3.656
			C53.523,337.941,56.122,338.505,58.723,339.277z"/>
		<path fill="#FFFFFF" d="M60.235,423.042c0.632,2.531,0.983,7.381,0.983,14.69c0,3.233-0.14,6.255-0.352,8.997
			c-0.632,0.492-6.325,0.771-17.079,0.913c0.14,1.828,0.351,3.655,0.492,5.483c4.217-0.141,8.365-0.212,12.44-0.212
			c0.142,0.632,0.281,1.266,0.281,1.969c0,0.773-0.14,1.476-0.281,2.038c-2.67,0.42-6.678,0.703-12.02,0.984
			c0.212,2.812,0.423,5.553,0.632,8.224c-1.265,0.421-2.881,0.703-4.849,0.703c-0.492-2.952-0.914-5.834-1.193-8.645
			c-4.219,0.21-8.997,0.35-14.34,0.562c-0.701-1.055-0.984-2.6-0.984-4.569c5.061-0.351,9.91-0.634,14.69-0.843
			c-0.281-1.897-0.492-3.795-0.633-5.623h-6.325c-5.271,0-9.419-0.281-12.441-0.844c-0.773-6.677-1.123-14.549-1.123-23.545h5.061
			c0.422,7.31,0.631,13.635,0.631,18.907c3.234,0.421,7.592,0.562,12.933,0.562h0.774c-0.141-1.616-0.281-3.163-0.422-4.709
			c-2.812,0.282-5.975,0.492-9.491,0.633c-0.629-0.914-0.912-2.249-0.912-4.076c3.515-0.493,6.817-0.844,10.051-1.125
			c-0.069-0.984-0.141-2.038-0.211-3.092c1.546-0.281,3.233-0.422,4.92-0.563c0.142,1.125,0.353,2.179,0.492,3.234
			c3.094-0.141,6.116-0.282,9.068-0.282c0.14,0.562,0.279,1.195,0.279,1.758c0,0.702-0.14,1.265-0.279,1.827
			c-1.898,0.422-4.71,0.843-8.506,1.195c0.28,1.827,0.492,3.514,0.703,5.201c5.482,0.071,9.699,0.141,12.512,0.212
			c0-4.78-0.211-9.982-0.492-15.464c-8.715-0.351-17.292-0.843-25.794-1.546c0-1.687,0-3.303,0.139-4.779
			C39.641,421.496,49.833,422.128,60.235,423.042z M30.362,418.123c-0.911,0.843-2.248,1.616-4.075,2.319
			c-1.547-1.899-2.881-4.359-4.077-7.381c1.265-0.983,2.671-1.685,4.287-2.249C28.326,413.553,29.59,416.014,30.362,418.123z
			 M54.051,411.022c-1.266,4.147-2.251,7.03-3.094,8.576c-1.968,0-3.585-0.422-4.778-1.267c0.771-3.373,1.757-6.255,2.951-8.786
			C51.098,409.757,52.715,410.25,54.051,411.022z"/>
	</g>
	<g>
		<path fill="#FF901E" stroke="#FF901E" stroke-linecap="round" stroke-miterlimit="10" d="M15.56,46.177
			c-1.548,1.968-4.077,4.147-7.522,6.467c-1.264-1.196-2.107-2.461-2.67-3.726c2.109-2.038,4.57-4.147,7.45-6.325
			C13.941,43.507,14.857,44.701,15.56,46.177z M25.611,6.185c-0.283,2.53-0.633,4.849-1.057,7.099
			c3.516,0.281,7.242,0.562,11.107,0.843c0,1.406-0.143,2.952-0.423,4.498c-9.771,0-19.399-0.492-28.956-1.546v-2.459
			c0-0.633,0-1.265,0.139-1.968c3.937,0,8.082,0.141,12.581,0.352c0.423-2.671,0.983-5.202,1.618-7.591
			C22.166,5.553,23.783,5.763,25.611,6.185z M31.443,24.037c0.354,1.265,0.562,4.288,0.562,9.067c0,2.952-0.209,4.78-0.562,5.552
			c-1.264,0.282-3.654,0.422-7.167,0.422c0.631,5.482,1.052,11.035,1.264,16.517c-1.054,0.492-2.741,0.773-5.131,0.773
			c-1.897,0-3.305-0.141-4.217-0.281c-0.353-1.195-0.492-2.32-0.492-3.444c1.757-0.14,3.444-0.281,4.99-0.281
			c-0.704-4.428-1.054-8.856-1.124-13.213c-4.568,0-7.803-0.282-9.771-0.984c-0.492-1.546-0.701-3.163-0.701-4.85
			c0-2.882,0.279-5.975,0.844-9.208c0.562-0.141,1.122-0.282,1.826-0.282c0.773,0,1.477,0.141,2.039,0.282v10.613
			c3.936,0.281,8.363,0.421,13.284,0.421c0.07-2.53,0.141-4.99,0.141-7.38c-3.655-0.281-7.029-0.773-10.123-1.335v-1.758
			c0-0.562,0.071-1.053,0.212-1.546C21.533,23.123,26.242,23.476,31.443,24.037z M36.084,47.864
			c-0.845,0.984-1.969,1.899-3.232,2.742c-2.11-1.406-4.076-3.304-5.765-5.835c1.123-0.982,2.248-1.897,3.373-2.67
			C32.498,43.789,34.396,45.756,36.084,47.864z M53.865,13.986c-0.844,2.39-2.039,5.975-3.654,10.895
			c4.145,0.211,8.505,0.491,13.142,0.773c0,1.405-0.14,2.811-0.419,4.357c-4.922,0-9.701-0.07-14.341-0.352
			c-2.036,5.905-4.427,13.144-7.239,21.579c-1.615-0.282-3.021-0.773-4.217-1.476c1.337-6.186,3.304-13.004,5.834-20.454
			c-2.178-0.141-4.287-0.281-6.254-0.492v-2.39c0-0.562,0-1.196,0.14-1.898c2.458,0,5.062,0.07,7.802,0.14
			c1.404-3.865,2.951-7.941,4.639-12.16C51.124,12.721,52.602,13.213,53.865,13.986z M56.958,35.986
			c-0.423,2.67-0.845,5.693-1.194,8.926c2.248,0.353,4.707,0.703,7.238,1.125c-0.21,1.405-0.492,2.741-0.843,4.076
			c-4.076-0.28-7.943-0.843-11.597-1.687c0.562-4.919,1.123-9.277,1.827-13.143C54.008,35.494,55.553,35.705,56.958,35.986z
			 M63.986,19.398c-0.634,1.406-1.477,2.53-2.6,3.444c-2.601-1.125-4.92-2.53-7.031-4.147c0.635-1.265,1.338-2.39,2.18-3.444
			C59.136,16.306,61.598,17.711,63.986,19.398z"/>
		<path fill="#FF901E" stroke="#FF901E" stroke-linecap="round" stroke-miterlimit="10" d="M12.644,111.398
			c-0.212-1.265-0.282-2.67-0.282-4.076c13.072-0.703,27.902-1.335,44.35-1.827c0.142,0.562,0.281,1.265,0.281,2.039
			c0,1.053-0.07,1.826-0.14,2.249c-6.044,0.422-12.02,0.703-18.064,0.913c0.071,1.688,0.14,3.304,0.14,4.85
			c4.359,0.211,8.719,0.632,13.216,1.194c0,1.266-0.142,2.602-0.422,4.007c-4.499,0-8.786-0.282-12.722-0.914
			c0,1.335,0.069,2.671,0.069,3.937c-0.561,0.281-1.335,0.42-2.46,0.42c-0.914,0-1.686,0-2.319-0.14
			c-0.421-4.288-0.702-8.646-0.772-13.144C26.631,111.188,19.67,111.328,12.644,111.398z M22.131,116.319
			c-0.421,2.671-0.844,5.623-1.266,8.997c8.928,1.054,18.415,2.249,28.466,3.513c-0.21,1.406-0.491,2.742-0.844,4.147
			c-11.665-0.843-22.772-2.249-33.314-4.218c0.562-4.849,1.265-9.207,2.038-13.143C18.897,115.827,20.586,116.038,22.131,116.319z
			 M51.58,81.106c0,9.699-0.492,16.798-1.404,21.367c-2.672,0.422-9.701,0.563-21.156,0.563c-4.499,0-8.225-0.423-11.318-1.266
			c-0.49-5.413-0.771-11.808-0.842-19.188c1.547-0.142,3.093-0.282,4.639-0.282c0.143,2.179,0.212,4.358,0.281,6.537
			c0.703,0,1.617-0.069,2.601-0.069c3.233,0,5.693,0.209,7.521,0.491c0.141,0.562,0.282,1.194,0.282,1.897
			c0,0.703-0.07,1.266-0.142,1.828h-7.872c-0.914,0-1.687,0-2.248-0.071c0.07,1.757,0.142,3.514,0.21,5.201
			c8.716,0.492,16.657,0.703,23.969,0.703c0-3.444,0.139-7.942,0.561-13.565c-7.238-0.281-13.776-0.773-19.609-1.476
			c0-1.406,0-2.741,0.141-4.006C36.259,80.051,44.412,80.544,51.58,81.106z"/>
		<path fill="#FF901E" stroke="#FF901E" stroke-linecap="round" stroke-miterlimit="10" d="M21.603,191.497
			c-0.491,4.077-1.476,8.224-2.882,12.512c8.855,2.318,17.713,4.499,26.709,6.606c0,1.335-0.281,2.601-0.773,3.795
			c-9.77-0.984-18.976-2.812-27.624-5.623c-0.632,1.546-1.333,3.163-2.036,4.85c-1.194,0-2.531-0.421-3.938-1.266
			c1.547-5.481,3.163-11.034,4.781-16.587c-2.812-0.281-5.483-0.703-8.082-1.265c0-1.688,0.139-3.232,0.42-4.499
			C14.574,190.302,19.073,190.793,21.603,191.497z M22.517,172.45c-0.422,1.476-0.984,2.881-1.757,4.146
			c-3.443-0.211-6.467-1.125-9.138-2.741c0.353-1.546,0.843-3.022,1.476-4.288C15.908,169.918,19.073,170.903,22.517,172.45z
			 M61.596,175.05c0,1.546-0.141,3.022-0.352,4.499c-10.824,0-21.438-0.281-31.84-0.985c0-1.686,0.143-3.232,0.492-4.638
			C40.58,173.926,51.195,174.347,61.596,175.05z M42.758,190.935c3.234-2.391,6.468-4.71,9.701-6.959
			c1.194,0.984,2.317,1.968,3.305,3.023c-2.674,2.389-5.344,4.568-8.085,6.677c2.741,1.616,5.482,3.233,8.294,4.85
			c-0.421,1.265-1.335,2.319-2.6,3.303c-3.514-1.616-6.748-3.303-9.84-5.061c-2.672,1.898-5.344,3.725-8.084,5.553
			c-1.266-0.914-2.317-2.039-3.163-3.375c2.179-1.686,4.357-3.373,6.467-4.989c-2.251-1.335-4.358-2.741-6.326-4.146
			c0.774-1.266,1.617-2.25,2.46-3.093C37.488,188.123,40.088,189.529,42.758,190.935z M52.951,166.265
			c-0.141,1.546-0.492,3.022-1.056,4.428c-2.67,0-6.466-0.915-11.385-2.741c0.141-1.757,0.491-3.304,1.054-4.568
			C45.361,164.085,49.154,165.069,52.951,166.265z"/>
		<path fill="#FF901E" stroke="#FF901E" stroke-linecap="round" stroke-miterlimit="10" d="M40.722,251.824
			c-8.785,7.169-17.501,13.214-26.218,18.133c-1.404-1.405-2.389-2.811-3.021-4.216c8.576-6.326,17.503-12.16,26.638-17.571
			C39.105,249.153,39.948,250.419,40.722,251.824z M40.089,267.849c-4.357,8.294-8.503,15.744-12.3,22.351
			c6.536,0.352,13.145,0.703,19.82,1.125c0,1.546-0.141,2.952-0.422,4.357c-14.548-0.141-23.615-0.703-27.199-1.827
			c1.686-3.584,4.146-8.293,7.451-14.057c2.389-4.358,5.129-8.998,8.292-13.987C37.137,266.303,38.542,267.006,40.089,267.849z
			 M57.871,291.114c-0.842,0.985-2.178,1.758-3.935,2.461c-2.392-3.584-4.357-7.38-6.044-11.458c1.333-1.125,2.67-1.967,3.934-2.39
			C54.008,283.243,56.046,287.038,57.871,291.114z"/>
		<path fill="#FF901E" stroke="#FF901E" stroke-linecap="round" stroke-miterlimit="10" d="M22.445,326.767
			c-0.562,1.125-1.053,2.249-1.545,3.233c3.936,0.352,7.73,0.773,11.458,1.335c0,1.055-0.212,2.249-0.494,3.655
			c-4.217,0-8.573-0.351-12.933-1.125c-1.615,3.093-3.163,5.764-4.567,8.153c-1.616-0.42-2.884-1.054-3.796-2.038
			c1.193-2.812,3.726-7.873,7.59-15.182C19.704,325.29,21.181,325.922,22.445,326.767z M17.666,355.162
			c0.424,8.434,0.704,17.572,0.704,27.342c-0.492,0.14-1.124,0.21-1.899,0.21c-0.771,0-1.475-0.071-2.106-0.071
			c-0.845-3.654-1.267-8.505-1.267-14.69c0-6.466,0.141-10.753,0.562-12.792c0.563-0.14,1.266-0.281,1.968-0.281
			C16.332,354.88,17.034,355.021,17.666,355.162z M26.944,338.996c-0.212,1.194-0.632,2.39-1.194,3.584
			c-2.39-0.281-4.498-0.914-6.395-1.757c0.279-1.336,0.631-2.53,1.191-3.585C22.516,337.661,24.626,338.294,26.944,338.996z
			 M32.358,347.993c-0.282,0.703-0.563,1.335-0.986,1.897c-0.353,0.704-0.772,1.406-1.265,1.969c-2.46-0.773-4.71-2.038-6.816-3.796
			c0.562-1.546,1.335-2.881,2.388-4.006C27.857,345.252,30.107,346.587,32.358,347.993z M47.117,358.325
			c0,7.662-0.423,13.285-1.268,16.94c-1.404,0.351-4.988,0.491-10.752,0.491c-4.078,0-7.59-0.421-10.4-1.265
			c-0.423-4.147-0.705-9.067-0.775-14.831c1.406-0.14,2.741-0.281,4.146-0.281c0.141,1.617,0.211,3.164,0.352,4.71
			c0.774,0,1.688,0,2.741,0c1.899,0,3.374,0.069,4.428,0.14c0.141,0.633,0.282,1.336,0.282,2.039c0,0.632-0.07,1.265-0.142,1.827
			c-0.983,0.211-2.6,0.281-4.779,0.281c-0.913,0-1.686,0-2.319-0.07c0,0.984,0.07,1.967,0.143,2.881
			c4.709,0.422,9.066,0.632,13.143,0.632c0-2.39,0.141-5.622,0.562-9.559c-4.216-0.281-8.083-0.703-11.458-1.405
			c0-1.335,0-2.602,0.142-3.796C37.064,357.341,42.407,357.763,47.117,358.325z M44.938,326.415
			c-0.422,0.843-1.054,2.108-1.757,3.726c5.343,0.562,10.542,1.335,15.604,2.178c0,1.124-0.211,2.32-0.494,3.654
			c-5.551,0-11.244-0.632-17.007-1.967c-0.985,2.178-2.18,4.639-3.444,7.31c-1.547-0.211-2.883-0.633-4.007-1.335
			c1.265-4.218,3.583-9.137,6.959-14.901C42.407,325.29,43.814,325.712,44.938,326.415z M58.363,349.75
			c0.211,7.731,0.351,14.478,0.351,20.312c0,5.131-0.211,8.997-0.633,11.738c-1.265,0.07-2.53,0.14-3.726,0.14
			c-1.756,0-3.233-0.07-4.497-0.211c-0.281-0.562-0.422-1.265-0.422-1.968c0-0.632,0-1.195,0.141-1.616
			c1.405-0.141,2.741-0.141,4.076-0.141c0.069-8.013,0.14-16.096,0.14-24.108c-4.076-0.492-8.292-1.125-12.509-1.968v-2.108
			c0-0.493,0.069-1.196,0.279-2.039C47.047,348.204,52.6,348.907,58.363,349.75z M53.723,339.277
			c-0.141,1.265-0.42,2.459-0.912,3.655c-1.828,0-4.499-0.562-7.873-1.757c0.141-1.406,0.492-2.6,0.983-3.656
			C48.523,337.941,51.122,338.505,53.723,339.277z"/>
		<path fill="#FF901E" stroke="#FF901E" stroke-linecap="round" stroke-miterlimit="10" d="M55.235,423.042
			c0.632,2.531,0.983,7.381,0.983,14.69c0,3.233-0.14,6.255-0.352,8.997c-0.632,0.492-6.325,0.771-17.079,0.913
			c0.14,1.828,0.351,3.655,0.492,5.483c4.217-0.141,8.365-0.212,12.44-0.212c0.142,0.632,0.281,1.266,0.281,1.969
			c0,0.773-0.14,1.476-0.281,2.038c-2.67,0.42-6.678,0.703-12.02,0.984c0.212,2.812,0.423,5.553,0.632,8.224
			c-1.265,0.421-2.881,0.703-4.849,0.703c-0.492-2.952-0.914-5.834-1.193-8.645c-4.219,0.21-8.997,0.35-14.34,0.562
			c-0.701-1.055-0.984-2.6-0.984-4.569c5.061-0.351,9.91-0.634,14.69-0.843c-0.281-1.897-0.492-3.795-0.633-5.623h-6.325
			c-5.271,0-9.419-0.281-12.441-0.844c-0.773-6.677-1.123-14.549-1.123-23.545h5.061c0.422,7.31,0.631,13.635,0.631,18.907
			c3.234,0.421,7.592,0.562,12.933,0.562h0.774c-0.141-1.616-0.281-3.163-0.422-4.709c-2.812,0.282-5.975,0.492-9.491,0.633
			c-0.629-0.914-0.912-2.249-0.912-4.076c3.515-0.493,6.817-0.844,10.051-1.125c-0.069-0.984-0.141-2.038-0.211-3.092
			c1.546-0.281,3.233-0.422,4.92-0.563c0.142,1.125,0.353,2.179,0.492,3.234c3.094-0.141,6.116-0.282,9.068-0.282
			c0.14,0.562,0.279,1.195,0.279,1.758c0,0.702-0.14,1.265-0.279,1.827c-1.898,0.422-4.71,0.843-8.506,1.195
			c0.28,1.827,0.492,3.514,0.703,5.201c5.482,0.071,9.699,0.141,12.512,0.212c0-4.78-0.211-9.982-0.492-15.464
			c-8.715-0.351-17.292-0.843-25.794-1.546c0-1.687,0-3.303,0.139-4.779C34.641,421.496,44.833,422.128,55.235,423.042z
			 M25.362,418.123c-0.911,0.843-2.248,1.616-4.075,2.319c-1.547-1.899-2.881-4.359-4.077-7.381
			c1.265-0.983,2.671-1.685,4.287-2.249C23.326,413.553,24.59,416.014,25.362,418.123z M49.051,411.022
			c-1.266,4.147-2.251,7.03-3.094,8.576c-1.968,0-3.585-0.422-4.778-1.267c0.771-3.373,1.757-6.255,2.951-8.786
			C46.098,409.757,47.715,410.25,49.051,411.022z"/>
	</g>
</g>
</svg>
