<?xml version="1.0" encoding="utf-8"?>
<!-- Generator: Adobe Illustrator 16.0.4, SVG Export Plug-In . SVG Version: 6.00 Build 0)  -->
<!DOCTYPE svg PUBLIC "-//W3C//DTD SVG 1.1//EN" "http://www.w3.org/Graphics/SVG/1.1/DTD/svg11.dtd">
<svg version="1.1" id="Layer_1" xmlns="http://www.w3.org/2000/svg" xmlns:xlink="http://www.w3.org/1999/xlink" x="0px" y="0px"
	 width="146.634px" height="602.148px" viewBox="0 0 146.634 602.148" enable-background="new 0 0 146.634 602.148"
	 xml:space="preserve">
<g>
	<g>
		<g>
			<path fill="#FFFFFF" d="M40.874,36.288c-1.909,14.814-5.093,31.537-9.712,50.013c-3.826-0.16-7.172-0.957-9.878-2.23
				c1.911-16.564,5.256-32.969,9.878-49.217C34.664,35.173,38.01,35.651,40.874,36.288z M119.08,18.291
				c0,2.546-0.16,4.458-0.321,5.574c-4.454,0.317-8.757,0.477-12.9,0.477c2.55,6.054,5.259,12.424,8.288,19.113
				c1.746-2.547,3.661-5.097,5.57-7.645c3.024,1.593,5.893,3.345,8.759,5.415c-2.866,4.938-5.734,9.717-8.918,14.335
				c2.706,6.052,5.574,12.106,8.603,18.476c2.868-1.114,5.893-2.071,8.918-3.025c1.595,1.752,2.708,3.98,3.346,6.53
				c-3.982,3.185-9.717,5.734-17.201,7.486c-3.506-4.461-7.172-10.672-10.99-18.795c-3.507,4.778-7.169,9.556-10.834,14.015
				c-0.633,0-2.069-0.636-4.297-2.229c-2.232-1.274-3.505-2.389-3.822-3.185c3.822-6.372,8.119-13.221,13.218-20.546
				c-3.823-8.441-7.966-18.319-12.263-29.467c-20.387,0.797-41.254,1.273-62.277,1.433c-0.637-3.185-0.795-6.689-0.795-10.194
				c18.158-0.794,37.746-1.433,58.931-2.07c-0.956-2.548-1.913-5.255-2.864-7.804c2.864-1.274,6.209-2.231,10.033-3.186
				c1.27,3.505,2.546,7.008,4.137,10.672c5.576,0,11.312-0.159,17.044-0.318C118.759,14.626,119.08,16.378,119.08,18.291z
				 M55.53,100.794c-3.505,7.327-8.444,14.655-14.814,22.299c-3.823-0.955-6.689-2.547-8.601-4.938
				c3.187-7.327,7.646-14.971,13.698-22.934C49.797,96.175,52.98,98.087,55.53,100.794z M84.835,83.911
				c-10.513,2.23-22.138,3.345-34.72,3.504c-2.391-5.732-3.824-14.972-4.461-27.871c11.311-2.232,23.572-3.505,36.952-3.505
				C84.041,65.115,84.835,74.354,84.835,83.911z M80.219,40.11c0,3.186-0.638,6.052-1.595,8.602
				c-12.901,0-22.777-0.479-29.625-1.433c0-2.869,0.321-5.575,1.276-8.442C59.191,38.836,69.227,39.314,80.219,40.11z
				 M74.641,76.743l-1.909-11.628l-15.767,1.434l1.91,11.946L74.641,76.743z M74.96,103.662c0.318,4.778,0.957,9.556,1.595,14.493
				c7.009,0,14.494-0.319,22.614-0.638c0.639,1.436,0.958,3.028,0.958,4.621c0,2.07-0.16,3.663-0.319,4.936
				c-2.546,0.956-7.646,1.594-15.606,1.594c-8.923,0-14.814-0.319-17.361-0.957c-1.596-8.282-2.233-16.086-2.233-23.732
				c2.073-0.316,3.824-0.635,5.1-0.635C71.615,103.343,73.367,103.502,74.96,103.662z M104.743,103.502
				c-2.229,2.229-4.936,3.98-7.961,5.256c-3.503-3.824-6.21-7.965-8.444-12.424c2.234-1.753,4.941-3.504,8.126-5.256
				C99.49,94.902,102.197,99.042,104.743,103.502z M131.824,108.28c-2.234,2.231-4.938,3.982-7.966,5.256
				c-3.823-4.3-7.008-9.079-9.396-14.176c2.229-1.911,4.934-3.664,8.12-5.416C126.087,98.406,129.113,103.184,131.824,108.28z
				 M142.332,21.156c-2.387,2.23-5.094,3.982-8.279,5.415c-4.142-4.459-7.486-9.238-10.194-14.335
				c2.389-1.909,5.255-3.821,8.44-5.413C135.963,11.281,139.309,16.059,142.332,21.156z"/>
			<path fill="#FFFFFF" d="M43.107,205.779c-0.639,16.883-2.074,33.607-4.301,49.855c4.461,0.476,8.918,0.954,13.696,1.273
				c0,2.547-0.317,5.256-0.638,8.442c-7.326,0-15.287-0.478-24.05-1.752c0.797-16.087,2.228-32.651,4.3-49.536
				c-6.053-0.954-12.266-2.387-18.317-4.299c0-2.868,0.319-5.895,1.276-8.92C23.99,202.116,33.232,203.708,43.107,205.779z
				 M46.133,181.25c-0.637,2.709-1.594,5.098-2.865,7.328c-8.125-0.636-15.135-3.026-21.186-7.485
				c0.479-2.55,1.271-5.098,2.229-7.328C31,174.561,38.168,177.11,46.133,181.25z M68.747,202.913c2.069,0,4.462-0.159,7.328-0.159
				c1.911,0,3.345,0.159,4.622,0.318c0.314,1.592,0.633,3.186,0.633,4.778c0,1.592-0.158,3.186-0.318,4.619
				c-1.271,0.637-3.025,0.954-5.574,0.954c-2.387,0-4.46,0-6.211-0.157c0.16,3.662,0.319,7.166,0.479,10.511
				c1.909,0,4.142-0.16,6.849-0.16c1.91,0,3.344,0.16,4.457,0.319c0.318,1.592,0.638,3.185,0.638,4.779
				c0,1.593-0.159,3.185-0.319,4.459c-1.273,0.636-3.025,0.795-5.413,0.795s-4.302,0-5.895-0.159c0,4.142,0.163,8.285,0.163,12.265
				c7.165-0.796,14.649-1.435,22.615-2.072c-1.118-18.793-2.229-36.313-3.505-52.878c-4.619,0-10.991-0.159-18.952-0.159
				c-0.321-1.592-0.479-3.186-0.479-4.778c0-1.912,0-3.347,0.158-4.301c5.895-0.479,10.515-0.795,14.019-0.795h15.128
				c2.39,15.606,4.462,48.578,6.052,98.749c-1.271,0.319-3.023,0.638-5.413,0.638c-1.594,0-3.344-0.16-5.414-0.319
				c-0.477-8.92-0.797-17.519-1.114-25.803c-2.548,0.319-4.941,0.637-7.17,0.797c-4.141,11.785-7.485,19.908-10.352,24.687
				c-3.982,0-7.169-0.955-9.717-2.547c2.068-7.804,4.622-14.653,7.488-20.866c-6.057,0.479-11.947,0.797-17.683,0.957
				c-0.477-3.027-0.638-6.213-0.638-9.717c1.756-0.159,3.507-0.316,5.415-0.636c-1.591-18.955-2.548-37.749-2.707-56.384
				c1.754-0.478,3.504-0.797,5.099-0.797h4.936C68.27,194.312,68.431,198.611,68.747,202.913z M89.454,167.076
				c-8.282,2.707-16.562,4.299-24.848,4.938c-1.271-2.231-1.909-5.417-1.909-9.559c8.119-1.91,16.723-3.344,25.641-4.619
				C88.975,160.705,89.454,163.891,89.454,167.076z M123.062,197.817c-0.959-5.257-1.91-10.514-2.708-15.61
				c2.548-0.479,5.732-0.958,9.557-1.274c1.913,6.37,3.504,12.582,4.938,18.635c3.823,0.636,7.645,1.433,11.784,2.229
				c0,3.185-0.318,6.372-0.957,9.717c-2.866,0-5.572,0-8.279-0.32c3.346,16.564,5.413,32.969,6.371,49.057
				c-3.823,1.912-11.47,2.867-22.616,2.867c-0.639-2.548-0.957-5.257-0.957-8.441c3.822-0.319,7.805-0.796,11.944-1.434
				c-2.388-14.652-4.776-28.987-7.008-43.164c-6.212-0.956-12.263-2.229-18.157-3.821v-5.257c0-1.273,0-2.549,0.32-4.141
				C112.07,196.86,117.328,197.178,123.062,197.817z M121.311,236.838c-3.023,1.752-6.055,2.707-8.92,3.025
				c-2.866-4.618-4.617-10.352-5.096-17.361c2.388-0.955,5.254-1.752,8.756-2.388C118.442,223.937,120.195,229.512,121.311,236.838z
				"/>
			<path fill="#FFFFFF" d="M21.923,364.288c-2.229-1.911-3.664-4.779-4.301-8.284c11.148-5.733,23.891-10.511,38.225-14.015
				c1.912,2.547,3.028,5.257,3.345,8.441c-4.299,2.548-8.916,4.778-13.695,6.69c2.229,9.874,3.982,20.067,5.095,30.581
				c-3.186,1.114-6.53,1.592-10.035,1.592c-2.388-9.398-4.297-18.794-5.573-28.349C30.682,362.377,26.384,363.491,21.923,364.288z
				 M57.438,417.167c-2.707,3.982-5.732,7.805-8.918,11.309c-1.75,1.752-3.504,3.505-5.253,5.256
				c-1.755,2.069-3.666,3.821-5.579,5.574c-3.024-1.91-5.573-4.141-7.485-7.007c5.257-7.328,11.628-14.495,18.955-21.504
				C52.503,412.708,55.209,414.938,57.438,417.167z M81.969,377.03c-2.549,5.734-6.211,11.626-10.673,17.52
				c-3.823-0.956-7.167-2.389-9.714-4.619c2.865-6.052,6.21-11.468,9.872-16.564C74.799,374.323,78.305,375.437,81.969,377.03z
				 M87.859,331.318c-0.952,1.911-1.908,3.823-2.707,5.416c15.932,0.318,32.655,1.115,49.857,2.388
				c0,7.327-0.479,13.857-1.276,19.272c-1.594,0.479-3.185,0.638-4.94,0.638c-2.227,0-3.816-0.32-4.935-1.275v-8.759
				c-14.972-0.319-29.465-1.276-43.64-2.869c-3.026,5.417-5.578,9.559-7.807,12.265c-4.143-0.637-7.484-1.912-9.715-3.823
				c5.095-9.556,10.194-18.476,15.289-26.758C81.81,328.452,84.993,329.725,87.859,331.318z M75.598,421.149
				c0.319,4.619,0.957,9.239,1.595,14.017c6.371,0,13.219-0.16,20.706-0.637c0.633,1.592,0.954,3.025,0.954,4.618
				c0,2.071-0.161,3.664-0.321,4.94c-2.545,0.955-7.642,1.592-15.445,1.592c-8.287,0-13.38-0.319-15.613-0.956
				c-1.592-8.123-2.229-15.769-2.229-23.254c2.07-0.319,3.824-0.637,5.1-0.637C72.253,420.831,74.006,420.989,75.598,421.149z
				 M100.285,420.034c-1.594,1.434-4.141,2.708-7.326,3.98c-3.505-3.662-6.69-8.44-9.396-14.333
				c2.229-1.752,4.774-3.185,7.642-4.142C95.349,410.955,98.373,415.893,100.285,420.034z M107.295,399.329
				c-3.025,1.114-6.37,1.593-10.193,1.593c-3.505,0-6.37-0.16-8.764-0.639c-0.951-2.228-1.271-4.458-1.271-6.849
				c2.229-0.795,5.255-1.272,8.76-1.272c-1.276-11.149-2.07-22.14-2.707-32.97c3.186-0.637,6.371-0.956,9.716-0.956
				C105.7,377.507,107.295,391.206,107.295,399.329z M127.523,426.883c-3.185,1.274-6.213,1.912-9.396,1.912
				c-2.234-4.78-3.822-9.558-4.62-14.654c2.865-0.955,5.731-1.593,8.757-1.911C124.655,417.008,126.406,421.946,127.523,426.883z
				 M130.391,386.905c-3.027,1.751-5.894,2.708-8.76,3.026c-2.872-3.503-4.461-7.645-4.78-12.582
				c2.388-1.115,5.253-1.912,8.598-2.549C127.842,377.507,129.432,381.489,130.391,386.905z"/>
		</g>
		<g>
			<g>
				<path fill="#FFFFFF" d="M54.569,524.354c-7.009,2.549-13.698,4.778-19.91,6.689c3.506,14.335,6.052,28.989,7.645,43.96
					c-3.187,1.115-6.374,1.592-9.877,1.592c-3.662-14.017-6.53-28.35-8.438-42.686c-4.781,1.274-9.396,2.389-13.857,3.187
					c-1.277-2.708-1.914-5.575-1.914-8.761c14.813-7.326,29.628-11.786,44.28-13.379C53.771,517.663,54.569,520.849,54.569,524.354z
					 M102.354,501.1c2.227-6.529,4.455-13.062,6.689-19.433c4.141,0.957,7.646,2.071,10.509,3.664
					c-1.753,5.575-3.503,10.991-5.257,16.404c5.419,0.479,10.83,0.957,16.406,1.275c0,3.027-0.316,6.211-0.954,9.556
					c-6.368,0-12.744,0-18.797-0.318c-1.27,3.982-2.546,7.807-3.663,11.627c8.604,0.637,17.361,1.275,26.125,1.912
					c1.271,2.708,1.909,7.805,1.909,15.131c0,6.373-0.319,12.264-0.639,17.361c-1.271,1.273-14.491,2.07-39.34,2.231
					c-1.913,5.731-3.821,11.306-5.577,16.722c11.47,2.867,22.62,6.053,33.771,9.236c-0.956,3.188-2.072,6.056-3.663,9.239
					c-11.31-2.389-22.461-5.096-33.607-7.963c-1.595,4.3-3.029,8.601-4.303,12.742c-3.502-0.479-6.688-1.753-9.395-3.982
					c0.953-4.142,2.069-7.804,3.345-11.626c-3.504-0.956-7.011-1.914-10.355-3.027c0.636-3.824,1.912-7.167,3.507-10.035
					c3.345,0.956,6.689,1.753,9.874,2.551c1.272-4.622,2.707-9.239,4.138-13.856c-9.874,0-17.519-0.64-23.252-1.754
					c-1.592-9.398-2.389-20.547-2.389-33.289h10.512c0.797,9.239,1.276,17.201,1.276,23.891c4.776,0.638,10.35,1.117,17.042,1.117
					c1.75-5.895,3.66-11.786,5.573-17.681c-4.46-0.319-8.921-0.639-13.06-1.114c0-3.186,0-6.373,0.319-9.399
					c5.254,0.319,10.512,0.479,15.927,0.798c1.115-3.822,2.387-7.486,3.662-11.309c-9.557-0.479-18.797-1.275-27.715-2.229v-5.097
					c0-1.275,0-2.709,0.32-4.302C80.85,500.143,91.201,500.462,102.354,501.1z M124.809,550.951c0-4.936-0.32-10.194-0.958-15.926
					c-6.688-0.318-13.378-0.798-19.749-1.275c-1.91,5.734-3.823,11.469-5.573,16.885
					C110.473,550.635,119.235,550.793,124.809,550.951z"/>
			</g>
		</g>
	</g>
	<g opacity="0.2">
		<g>
			<path fill="#EFEFEF" d="M40.874,36.288c-1.909,14.814-5.093,31.537-9.712,50.013c-3.826-0.16-7.172-0.957-9.878-2.23
				c1.911-16.564,5.256-32.969,9.878-49.217C34.664,35.173,38.01,35.651,40.874,36.288z M119.08,18.291
				c0,2.546-0.16,4.458-0.321,5.574c-4.454,0.317-8.757,0.477-12.9,0.477c2.55,6.054,5.259,12.424,8.288,19.113
				c1.746-2.547,3.661-5.097,5.57-7.645c3.024,1.593,5.893,3.345,8.759,5.415c-2.866,4.938-5.734,9.717-8.918,14.335
				c2.706,6.052,5.574,12.106,8.603,18.476c2.868-1.114,5.893-2.071,8.918-3.025c1.595,1.752,2.708,3.98,3.346,6.53
				c-3.982,3.185-9.717,5.734-17.201,7.486c-3.506-4.461-7.172-10.672-10.99-18.795c-3.507,4.778-7.169,9.556-10.834,14.015
				c-0.633,0-2.069-0.636-4.297-2.229c-2.232-1.274-3.505-2.389-3.822-3.185c3.822-6.372,8.119-13.221,13.218-20.546
				c-3.823-8.441-7.966-18.319-12.263-29.467c-20.387,0.797-41.254,1.273-62.277,1.433c-0.637-3.185-0.795-6.689-0.795-10.194
				c18.158-0.794,37.746-1.433,58.931-2.07c-0.956-2.548-1.913-5.255-2.864-7.804c2.864-1.274,6.209-2.231,10.033-3.186
				c1.27,3.505,2.546,7.008,4.137,10.672c5.576,0,11.312-0.159,17.044-0.318C118.759,14.626,119.08,16.378,119.08,18.291z
				 M55.53,100.794c-3.505,7.327-8.444,14.655-14.814,22.299c-3.823-0.955-6.689-2.547-8.601-4.938
				c3.187-7.327,7.646-14.971,13.698-22.934C49.797,96.175,52.98,98.087,55.53,100.794z M84.835,83.911
				c-10.513,2.23-22.138,3.345-34.72,3.504c-2.391-5.732-3.824-14.972-4.461-27.871c11.311-2.232,23.572-3.505,36.952-3.505
				C84.041,65.115,84.835,74.354,84.835,83.911z M80.219,40.11c0,3.186-0.638,6.052-1.595,8.602
				c-12.901,0-22.777-0.479-29.625-1.433c0-2.869,0.321-5.575,1.276-8.442C59.191,38.836,69.227,39.314,80.219,40.11z
				 M74.641,76.743l-1.909-11.628l-15.767,1.434l1.91,11.946L74.641,76.743z M74.96,103.662c0.318,4.778,0.957,9.556,1.595,14.493
				c7.009,0,14.494-0.319,22.614-0.638c0.639,1.436,0.958,3.028,0.958,4.621c0,2.07-0.16,3.663-0.319,4.936
				c-2.546,0.956-7.646,1.594-15.606,1.594c-8.923,0-14.814-0.319-17.361-0.957c-1.596-8.282-2.233-16.086-2.233-23.732
				c2.073-0.316,3.824-0.635,5.1-0.635C71.615,103.343,73.367,103.502,74.96,103.662z M104.743,103.502
				c-2.229,2.229-4.936,3.98-7.961,5.256c-3.503-3.824-6.21-7.965-8.444-12.424c2.234-1.753,4.941-3.504,8.126-5.256
				C99.49,94.902,102.197,99.042,104.743,103.502z M131.824,108.28c-2.234,2.231-4.938,3.982-7.966,5.256
				c-3.823-4.3-7.008-9.079-9.396-14.176c2.229-1.911,4.934-3.664,8.12-5.416C126.087,98.406,129.113,103.184,131.824,108.28z
				 M142.332,21.156c-2.387,2.23-5.094,3.982-8.279,5.415c-4.142-4.459-7.486-9.238-10.194-14.335
				c2.389-1.909,5.255-3.821,8.44-5.413C135.963,11.281,139.309,16.059,142.332,21.156z"/>
			<path fill="#EFEFEF" d="M43.107,205.779c-0.639,16.883-2.074,33.607-4.301,49.855c4.461,0.476,8.918,0.954,13.696,1.273
				c0,2.547-0.317,5.256-0.638,8.442c-7.326,0-15.287-0.478-24.05-1.752c0.797-16.087,2.228-32.651,4.3-49.536
				c-6.053-0.954-12.266-2.387-18.317-4.299c0-2.868,0.319-5.895,1.276-8.92C23.99,202.116,33.232,203.708,43.107,205.779z
				 M46.133,181.25c-0.637,2.709-1.594,5.098-2.865,7.328c-8.125-0.636-15.135-3.026-21.186-7.485
				c0.479-2.55,1.271-5.098,2.229-7.328C31,174.561,38.168,177.11,46.133,181.25z M68.747,202.913c2.069,0,4.462-0.159,7.328-0.159
				c1.911,0,3.345,0.159,4.622,0.318c0.314,1.592,0.633,3.186,0.633,4.778c0,1.592-0.158,3.186-0.318,4.619
				c-1.271,0.637-3.025,0.954-5.574,0.954c-2.387,0-4.46,0-6.211-0.157c0.16,3.662,0.319,7.166,0.479,10.511
				c1.909,0,4.142-0.16,6.849-0.16c1.91,0,3.344,0.16,4.457,0.319c0.318,1.592,0.638,3.185,0.638,4.779
				c0,1.593-0.159,3.185-0.319,4.459c-1.273,0.636-3.025,0.795-5.413,0.795s-4.302,0-5.895-0.159c0,4.142,0.163,8.285,0.163,12.265
				c7.165-0.796,14.649-1.435,22.615-2.072c-1.118-18.793-2.229-36.313-3.505-52.878c-4.619,0-10.991-0.159-18.952-0.159
				c-0.321-1.592-0.479-3.186-0.479-4.778c0-1.912,0-3.347,0.158-4.301c5.895-0.479,10.515-0.795,14.019-0.795h15.128
				c2.39,15.606,4.462,48.578,6.052,98.749c-1.271,0.319-3.023,0.638-5.413,0.638c-1.594,0-3.344-0.16-5.414-0.319
				c-0.477-8.92-0.797-17.519-1.114-25.803c-2.548,0.319-4.941,0.637-7.17,0.797c-4.141,11.785-7.485,19.908-10.352,24.687
				c-3.982,0-7.169-0.955-9.717-2.547c2.068-7.804,4.622-14.653,7.488-20.866c-6.057,0.479-11.947,0.797-17.683,0.957
				c-0.477-3.027-0.638-6.213-0.638-9.717c1.756-0.159,3.507-0.316,5.415-0.636c-1.591-18.955-2.548-37.749-2.707-56.384
				c1.754-0.478,3.504-0.797,5.099-0.797h4.936C68.27,194.312,68.431,198.611,68.747,202.913z M89.454,167.076
				c-8.282,2.707-16.562,4.299-24.848,4.938c-1.271-2.231-1.909-5.417-1.909-9.559c8.119-1.91,16.723-3.344,25.641-4.619
				C88.975,160.705,89.454,163.891,89.454,167.076z M123.062,197.817c-0.959-5.257-1.91-10.514-2.708-15.61
				c2.548-0.479,5.732-0.958,9.557-1.274c1.913,6.37,3.504,12.582,4.938,18.635c3.823,0.636,7.645,1.433,11.784,2.229
				c0,3.185-0.318,6.372-0.957,9.717c-2.866,0-5.572,0-8.279-0.32c3.346,16.564,5.413,32.969,6.371,49.057
				c-3.823,1.912-11.47,2.867-22.616,2.867c-0.639-2.548-0.957-5.257-0.957-8.441c3.822-0.319,7.805-0.796,11.944-1.434
				c-2.388-14.652-4.776-28.987-7.008-43.164c-6.212-0.956-12.263-2.229-18.157-3.821v-5.257c0-1.273,0-2.549,0.32-4.141
				C112.07,196.86,117.328,197.178,123.062,197.817z M121.311,236.838c-3.023,1.752-6.055,2.707-8.92,3.025
				c-2.866-4.618-4.617-10.352-5.096-17.361c2.388-0.955,5.254-1.752,8.756-2.388C118.442,223.937,120.195,229.512,121.311,236.838z
				"/>
			<path fill="#EFEFEF" d="M21.923,364.288c-2.229-1.911-3.664-4.779-4.301-8.284c11.148-5.733,23.891-10.511,38.225-14.015
				c1.912,2.547,3.028,5.257,3.345,8.441c-4.299,2.548-8.916,4.778-13.695,6.69c2.229,9.874,3.982,20.067,5.095,30.581
				c-3.186,1.114-6.53,1.592-10.035,1.592c-2.388-9.398-4.297-18.794-5.573-28.349C30.682,362.377,26.384,363.491,21.923,364.288z
				 M57.438,417.167c-2.707,3.982-5.732,7.805-8.918,11.309c-1.75,1.752-3.504,3.505-5.253,5.256
				c-1.755,2.069-3.666,3.821-5.579,5.574c-3.024-1.91-5.573-4.141-7.485-7.007c5.257-7.328,11.628-14.495,18.955-21.504
				C52.503,412.708,55.209,414.938,57.438,417.167z M81.969,377.03c-2.549,5.734-6.211,11.626-10.673,17.52
				c-3.823-0.956-7.167-2.389-9.714-4.619c2.865-6.052,6.21-11.468,9.872-16.564C74.799,374.323,78.305,375.437,81.969,377.03z
				 M87.859,331.318c-0.952,1.911-1.908,3.823-2.707,5.416c15.932,0.318,32.655,1.115,49.857,2.388
				c0,7.327-0.479,13.857-1.276,19.272c-1.594,0.479-3.185,0.638-4.94,0.638c-2.227,0-3.816-0.32-4.935-1.275v-8.759
				c-14.972-0.319-29.465-1.276-43.64-2.869c-3.026,5.417-5.578,9.559-7.807,12.265c-4.143-0.637-7.484-1.912-9.715-3.823
				c5.095-9.556,10.194-18.476,15.289-26.758C81.81,328.452,84.993,329.725,87.859,331.318z M75.598,421.149
				c0.319,4.619,0.957,9.239,1.595,14.017c6.371,0,13.219-0.16,20.706-0.637c0.633,1.592,0.954,3.025,0.954,4.618
				c0,2.071-0.161,3.664-0.321,4.94c-2.545,0.955-7.642,1.592-15.445,1.592c-8.287,0-13.38-0.319-15.613-0.956
				c-1.592-8.123-2.229-15.769-2.229-23.254c2.07-0.319,3.824-0.637,5.1-0.637C72.253,420.831,74.006,420.989,75.598,421.149z
				 M100.285,420.034c-1.594,1.434-4.141,2.708-7.326,3.98c-3.505-3.662-6.69-8.44-9.396-14.333
				c2.229-1.752,4.774-3.185,7.642-4.142C95.349,410.955,98.373,415.893,100.285,420.034z M107.295,399.329
				c-3.025,1.114-6.37,1.593-10.193,1.593c-3.505,0-6.37-0.16-8.764-0.639c-0.951-2.228-1.271-4.458-1.271-6.849
				c2.229-0.795,5.255-1.272,8.76-1.272c-1.276-11.149-2.07-22.14-2.707-32.97c3.186-0.637,6.371-0.956,9.716-0.956
				C105.7,377.507,107.295,391.206,107.295,399.329z M127.523,426.883c-3.185,1.274-6.213,1.912-9.396,1.912
				c-2.234-4.78-3.822-9.558-4.62-14.654c2.865-0.955,5.731-1.593,8.757-1.911C124.655,417.008,126.406,421.946,127.523,426.883z
				 M130.391,386.905c-3.027,1.751-5.894,2.708-8.76,3.026c-2.872-3.503-4.461-7.645-4.78-12.582
				c2.388-1.115,5.253-1.912,8.598-2.549C127.842,377.507,129.432,381.489,130.391,386.905z"/>
		</g>
		<g>
			<g>
				<path fill="#EFEFEF" d="M54.569,524.354c-7.009,2.549-13.698,4.778-19.91,6.689c3.506,14.335,6.052,28.989,7.645,43.96
					c-3.187,1.115-6.374,1.592-9.877,1.592c-3.662-14.017-6.53-28.35-8.438-42.686c-4.781,1.274-9.396,2.389-13.857,3.187
					c-1.277-2.708-1.914-5.575-1.914-8.761c14.813-7.326,29.628-11.786,44.28-13.379C53.771,517.663,54.569,520.849,54.569,524.354z
					 M102.354,501.1c2.227-6.529,4.455-13.062,6.689-19.433c4.141,0.957,7.646,2.071,10.509,3.664
					c-1.753,5.575-3.503,10.991-5.257,16.404c5.419,0.479,10.83,0.957,16.406,1.275c0,3.027-0.316,6.211-0.954,9.556
					c-6.368,0-12.744,0-18.797-0.318c-1.27,3.982-2.546,7.807-3.663,11.627c8.604,0.637,17.361,1.275,26.125,1.912
					c1.271,2.708,1.909,7.805,1.909,15.131c0,6.373-0.319,12.264-0.639,17.361c-1.271,1.273-14.491,2.07-39.34,2.231
					c-1.913,5.731-3.821,11.306-5.577,16.722c11.47,2.867,22.62,6.053,33.771,9.236c-0.956,3.188-2.072,6.056-3.663,9.239
					c-11.31-2.389-22.461-5.096-33.607-7.963c-1.595,4.3-3.029,8.601-4.303,12.742c-3.502-0.479-6.688-1.753-9.395-3.982
					c0.953-4.142,2.069-7.804,3.345-11.626c-3.504-0.956-7.011-1.914-10.355-3.027c0.636-3.824,1.912-7.167,3.507-10.035
					c3.345,0.956,6.689,1.753,9.874,2.551c1.272-4.622,2.707-9.239,4.138-13.856c-9.874,0-17.519-0.64-23.252-1.754
					c-1.592-9.398-2.389-20.547-2.389-33.289h10.512c0.797,9.239,1.276,17.201,1.276,23.891c4.776,0.638,10.35,1.117,17.042,1.117
					c1.75-5.895,3.66-11.786,5.573-17.681c-4.46-0.319-8.921-0.639-13.06-1.114c0-3.186,0-6.373,0.319-9.399
					c5.254,0.319,10.512,0.479,15.927,0.798c1.115-3.822,2.387-7.486,3.662-11.309c-9.557-0.479-18.797-1.275-27.715-2.229v-5.097
					c0-1.275,0-2.709,0.32-4.302C80.85,500.143,91.201,500.462,102.354,501.1z M124.809,550.951c0-4.936-0.32-10.194-0.958-15.926
					c-6.688-0.318-13.378-0.798-19.749-1.275c-1.91,5.734-3.823,11.469-5.573,16.885
					C110.473,550.635,119.235,550.793,124.809,550.951z"/>
			</g>
		</g>
	</g>
	<g>
		<g>
			<path fill="#FF901E" stroke="#FF901E" stroke-linecap="round" stroke-miterlimit="10" d="M32.657,36.288
				c-1.909,14.814-5.093,31.537-9.712,50.013c-3.825-0.16-7.172-0.957-9.878-2.23c1.911-16.564,5.256-32.969,9.878-49.217
				C26.448,35.173,29.793,35.651,32.657,36.288z M110.863,18.291c0,2.546-0.159,4.458-0.321,5.574
				c-4.454,0.317-8.756,0.477-12.899,0.477c2.549,6.054,5.259,12.424,8.287,19.113c1.747-2.547,3.661-5.097,5.57-7.645
				c3.024,1.593,5.893,3.345,8.76,5.415c-2.867,4.938-5.735,9.717-8.918,14.335c2.706,6.052,5.574,12.106,8.603,18.476
				c2.868-1.114,5.892-2.071,8.918-3.025c1.595,1.752,2.707,3.98,3.345,6.53c-3.982,3.185-9.716,5.734-17.201,7.486
				c-3.506-4.461-7.171-10.672-10.99-18.795c-3.507,4.778-7.169,9.556-10.834,14.015c-0.633,0-2.068-0.636-4.297-2.229
				c-2.232-1.274-3.504-2.389-3.822-3.185c3.822-6.372,8.119-13.221,13.218-20.546c-3.822-8.441-7.965-18.319-12.263-29.467
				c-20.387,0.797-41.253,1.273-62.277,1.433c-0.637-3.185-0.795-6.689-0.795-10.194c18.158-0.794,37.746-1.433,58.931-2.07
				c-0.956-2.548-1.913-5.255-2.864-7.804c2.864-1.274,6.209-2.231,10.033-3.186c1.271,3.505,2.546,7.008,4.137,10.672
				c5.577,0,11.312-0.159,17.044-0.318C110.542,14.626,110.863,16.378,110.863,18.291z M47.313,100.794
				c-3.505,7.327-8.444,14.655-14.814,22.299c-3.822-0.955-6.689-2.547-8.601-4.938c3.188-7.327,7.647-14.971,13.698-22.934
				C41.58,96.175,44.765,98.087,47.313,100.794z M76.618,83.911c-10.513,2.23-22.138,3.345-34.72,3.504
				c-2.391-5.732-3.824-14.972-4.461-27.871c11.312-2.232,23.573-3.505,36.952-3.505C75.825,65.115,76.618,74.354,76.618,83.911z
				 M72.002,40.11c0,3.186-0.637,6.052-1.594,8.602c-12.902,0-22.778-0.479-29.626-1.433c0-2.869,0.321-5.575,1.277-8.442
				C50.975,38.836,61.011,39.314,72.002,40.11z M66.425,76.743l-1.91-11.628l-15.766,1.434l1.909,11.946L66.425,76.743z
				 M66.743,103.662c0.318,4.778,0.957,9.556,1.595,14.493c7.01,0,14.494-0.319,22.614-0.638c0.639,1.436,0.958,3.028,0.958,4.621
				c0,2.07-0.16,3.663-0.319,4.936c-2.546,0.956-7.646,1.594-15.606,1.594c-8.923,0-14.814-0.319-17.361-0.957
				c-1.596-8.282-2.233-16.086-2.233-23.732c2.074-0.316,3.824-0.635,5.101-0.635C63.398,103.343,65.15,103.502,66.743,103.662z
				 M96.527,103.502c-2.23,2.229-4.937,3.98-7.961,5.256c-3.504-3.824-6.211-7.965-8.445-12.424
				c2.234-1.753,4.941-3.504,8.126-5.256C91.273,94.902,93.98,99.042,96.527,103.502z M123.607,108.28
				c-2.234,2.231-4.938,3.982-7.965,5.256c-3.823-4.3-7.009-9.079-9.396-14.176c2.229-1.911,4.934-3.664,8.12-5.416
				C117.87,98.406,120.896,103.184,123.607,108.28z M134.115,21.156c-2.387,2.23-5.094,3.982-8.279,5.415
				c-4.142-4.459-7.486-9.238-10.193-14.335c2.389-1.909,5.254-3.821,8.439-5.413C127.747,11.281,131.092,16.059,134.115,21.156z"/>
			<path fill="#FF901E" stroke="#FF901E" stroke-linecap="round" stroke-miterlimit="10" d="M34.891,205.779
				c-0.639,16.883-2.074,33.607-4.301,49.855c4.461,0.476,8.918,0.954,13.696,1.273c0,2.547-0.317,5.256-0.637,8.442
				c-7.327,0-15.288-0.478-24.05-1.752c0.796-16.087,2.227-32.651,4.299-49.536c-6.052-0.954-12.265-2.387-18.317-4.299
				c0-2.868,0.32-5.895,1.276-8.92C15.773,202.116,25.017,203.708,34.891,205.779z M37.916,181.25
				c-0.637,2.709-1.594,5.098-2.865,7.328c-8.125-0.636-15.134-3.026-21.186-7.485c0.479-2.55,1.271-5.098,2.229-7.328
				C22.783,174.561,29.951,177.11,37.916,181.25z M60.53,202.913c2.07,0,4.462-0.159,7.328-0.159c1.911,0,3.345,0.159,4.622,0.318
				c0.314,1.592,0.634,3.186,0.634,4.778c0,1.592-0.159,3.186-0.319,4.619c-1.271,0.637-3.025,0.954-5.574,0.954
				c-2.387,0-4.46,0-6.21-0.157c0.159,3.662,0.318,7.166,0.479,10.511c1.908,0,4.141-0.16,6.848-0.16c1.91,0,3.345,0.16,4.457,0.319
				c0.319,1.592,0.638,3.185,0.638,4.779c0,1.593-0.159,3.185-0.318,4.459c-1.273,0.636-3.026,0.795-5.414,0.795
				s-4.302,0-5.894-0.159c0,4.142,0.162,8.285,0.162,12.265c7.166-0.796,14.649-1.435,22.615-2.072
				c-1.118-18.793-2.229-36.313-3.504-52.878c-4.62,0-10.992-0.159-18.953-0.159c-0.32-1.592-0.479-3.186-0.479-4.778
				c0-1.912,0-3.347,0.158-4.301c5.894-0.479,10.514-0.795,14.019-0.795h15.127c2.391,15.606,4.462,48.578,6.053,98.749
				c-1.271,0.319-3.024,0.638-5.414,0.638c-1.593,0-3.344-0.16-5.414-0.319c-0.477-8.92-0.796-17.519-1.114-25.803
				c-2.548,0.319-4.941,0.637-7.17,0.797c-4.14,11.785-7.484,19.908-10.352,24.687c-3.982,0-7.169-0.955-9.716-2.547
				c2.067-7.804,4.622-14.653,7.487-20.866c-6.057,0.479-11.946,0.797-17.683,0.957c-0.477-3.027-0.637-6.213-0.637-9.717
				c1.756-0.159,3.506-0.316,5.415-0.636c-1.592-18.955-2.549-37.749-2.708-56.384c1.754-0.478,3.504-0.797,5.099-0.797h4.936
				C60.054,194.312,60.214,198.611,60.53,202.913z M81.238,167.076c-8.283,2.707-16.562,4.299-24.849,4.938
				c-1.271-2.231-1.909-5.417-1.909-9.559c8.12-1.91,16.723-3.344,25.641-4.619C80.759,160.705,81.238,163.891,81.238,167.076z
				 M114.846,197.817c-0.959-5.257-1.91-10.514-2.708-15.61c2.548-0.479,5.732-0.958,9.557-1.274
				c1.913,6.37,3.504,12.582,4.938,18.635c3.824,0.636,7.645,1.433,11.785,2.229c0,3.185-0.319,6.372-0.958,9.717
				c-2.865,0-5.571,0-8.279-0.32c3.346,16.564,5.414,32.969,6.371,49.057c-3.823,1.912-11.47,2.867-22.616,2.867
				c-0.639-2.548-0.957-5.257-0.957-8.441c3.823-0.319,7.805-0.796,11.944-1.434c-2.388-14.652-4.776-28.987-7.007-43.164
				c-6.212-0.956-12.264-2.229-18.157-3.821v-5.257c0-1.273,0-2.549,0.319-4.141C103.854,196.86,109.111,197.178,114.846,197.817z
				 M113.094,236.838c-3.023,1.752-6.055,2.707-8.92,3.025c-2.866-4.618-4.617-10.352-5.096-17.361
				c2.388-0.955,5.254-1.752,8.757-2.388C110.226,223.937,111.979,229.512,113.094,236.838z"/>
			<path fill="#FF901E" stroke="#FF901E" stroke-linecap="round" stroke-miterlimit="10" d="M13.706,364.288
				c-2.229-1.911-3.663-4.779-4.301-8.284c11.148-5.733,23.891-10.511,38.225-14.015c1.912,2.547,3.028,5.257,3.345,8.441
				c-4.298,2.548-8.915,4.778-13.695,6.69c2.229,9.874,3.982,20.067,5.096,30.581c-3.186,1.114-6.531,1.592-10.036,1.592
				c-2.388-9.398-4.296-18.794-5.573-28.349C22.465,362.377,18.168,363.491,13.706,364.288z M49.223,417.167
				c-2.708,3.982-5.732,7.805-8.918,11.309c-1.751,1.752-3.505,3.505-5.254,5.256c-1.755,2.069-3.666,3.821-5.579,5.574
				c-3.023-1.91-5.573-4.141-7.485-7.007c5.258-7.328,11.628-14.495,18.955-21.504C44.286,412.708,46.993,414.938,49.223,417.167z
				 M73.753,377.03c-2.55,5.734-6.212,11.626-10.673,17.52c-3.824-0.956-7.168-2.389-9.714-4.619
				c2.864-6.052,6.209-11.468,9.872-16.564C66.583,374.323,70.088,375.437,73.753,377.03z M79.644,331.318
				c-0.953,1.911-1.909,3.823-2.708,5.416c15.933,0.318,32.655,1.115,49.857,2.388c0,7.327-0.479,13.857-1.275,19.272
				c-1.595,0.479-3.186,0.638-4.94,0.638c-2.228,0-3.817-0.32-4.935-1.275v-8.759c-14.972-0.319-29.466-1.276-43.641-2.869
				c-3.025,5.417-5.577,9.559-7.806,12.265c-4.143-0.637-7.485-1.912-9.716-3.823c5.095-9.556,10.195-18.476,15.289-26.758
				C73.594,328.452,76.776,329.725,79.644,331.318z M67.382,421.149c0.318,4.619,0.956,9.239,1.595,14.017
				c6.371,0,13.219-0.16,20.706-0.637c0.633,1.592,0.953,3.025,0.953,4.618c0,2.071-0.161,3.664-0.32,4.94
				c-2.546,0.955-7.643,1.592-15.446,1.592c-8.286,0-13.379-0.319-15.613-0.956c-1.592-8.123-2.229-15.769-2.229-23.254
				c2.07-0.319,3.824-0.637,5.1-0.637C64.037,420.831,65.789,420.989,67.382,421.149z M92.068,420.034
				c-1.594,1.434-4.14,2.708-7.325,3.98c-3.505-3.662-6.69-8.44-9.396-14.333c2.228-1.752,4.773-3.185,7.641-4.142
				C87.132,410.955,90.157,415.893,92.068,420.034z M99.078,399.329c-3.024,1.114-6.369,1.593-10.193,1.593
				c-3.504,0-6.37-0.16-8.764-0.639c-0.951-2.228-1.271-4.458-1.271-6.849c2.23-0.795,5.255-1.272,8.76-1.272
				c-1.276-11.149-2.069-22.14-2.707-32.97c3.186-0.637,6.371-0.956,9.716-0.956C97.484,377.507,99.078,391.206,99.078,399.329z
				 M119.307,426.883c-3.185,1.274-6.213,1.912-9.396,1.912c-2.233-4.78-3.822-9.558-4.62-14.654
				c2.866-0.955,5.731-1.593,8.758-1.911C116.438,417.008,118.19,421.946,119.307,426.883z M122.174,386.905
				c-3.027,1.751-5.894,2.708-8.759,3.026c-2.873-3.503-4.462-7.645-4.781-12.582c2.388-1.115,5.253-1.912,8.599-2.549
				C119.625,377.507,121.215,381.489,122.174,386.905z"/>
		</g>
		<g>
			<g>
				<path fill="#FF901E" stroke="#FF901E" stroke-linecap="round" stroke-miterlimit="10" d="M46.354,524.354
					c-7.01,2.549-13.698,4.778-19.911,6.689c3.507,14.335,6.052,28.989,7.645,43.96c-3.187,1.115-6.373,1.592-9.876,1.592
					c-3.662-14.017-6.531-28.35-8.439-42.686c-4.781,1.274-9.396,2.389-13.857,3.187C0.638,534.388,0,531.521,0,528.335
					c14.813-7.326,29.628-11.786,44.281-13.379C45.556,517.663,46.354,520.849,46.354,524.354z M94.137,501.1
					c2.228-6.529,4.455-13.062,6.689-19.433c4.141,0.957,7.646,2.071,10.51,3.664c-1.753,5.575-3.504,10.991-5.258,16.404
					c5.419,0.479,10.83,0.957,16.406,1.275c0,3.027-0.316,6.211-0.954,9.556c-6.368,0-12.744,0-18.796-0.318
					c-1.271,3.982-2.547,7.807-3.664,11.627c8.604,0.637,17.361,1.275,26.125,1.912c1.271,2.708,1.909,7.805,1.909,15.131
					c0,6.373-0.319,12.264-0.638,17.361c-1.271,1.273-14.492,2.07-39.341,2.231c-1.913,5.731-3.821,11.306-5.576,16.722
					c11.47,2.867,22.619,6.053,33.771,9.236c-0.956,3.188-2.072,6.056-3.664,9.239c-11.309-2.389-22.461-5.096-33.607-7.963
					c-1.595,4.3-3.029,8.601-4.302,12.742c-3.503-0.479-6.688-1.753-9.396-3.982c0.953-4.142,2.069-7.804,3.346-11.626
					c-3.505-0.956-7.011-1.914-10.355-3.027c0.635-3.824,1.912-7.167,3.506-10.035c3.345,0.956,6.689,1.753,9.874,2.551
					c1.272-4.622,2.708-9.239,4.138-13.856c-9.873,0-17.518-0.64-23.252-1.754c-1.592-9.398-2.389-20.547-2.389-33.289h10.513
					c0.797,9.239,1.275,17.201,1.275,23.891c4.776,0.638,10.351,1.117,17.042,1.117c1.75-5.895,3.66-11.786,5.573-17.681
					c-4.46-0.319-8.921-0.639-13.06-1.114c0-3.186,0-6.373,0.32-9.399c5.253,0.319,10.511,0.479,15.926,0.798
					c1.115-3.822,2.387-7.486,3.662-11.309c-9.557-0.479-18.797-1.275-27.715-2.229v-5.097c0-1.275,0-2.709,0.32-4.302
					C72.633,500.143,82.984,500.462,94.137,501.1z M116.592,550.951c0-4.936-0.32-10.194-0.958-15.926
					c-6.688-0.318-13.378-0.798-19.749-1.275c-1.91,5.734-3.822,11.469-5.573,16.885
					C102.256,550.635,111.02,550.793,116.592,550.951z"/>
			</g>
		</g>
	</g>
</g>
</svg>
