<?xml version="1.0" encoding="utf-8"?>
<!-- Generator: Adobe Illustrator 16.0.4, SVG Export Plug-In . SVG Version: 6.00 Build 0)  -->
<!DOCTYPE svg PUBLIC "-//W3C//DTD SVG 1.1//EN" "http://www.w3.org/Graphics/SVG/1.1/DTD/svg11.dtd">
<svg version="1.1" id="Layer_1" xmlns="http://www.w3.org/2000/svg" xmlns:xlink="http://www.w3.org/1999/xlink" x="0px" y="0px"
	 width="215.146px" height="253.064px" viewBox="0 0 215.146 253.064" enable-background="new 0 0 215.146 253.064"
	 xml:space="preserve">
<g>
	<circle fill="#FF901E" cx="107.955" cy="145.492" r="107.573"/>
	<circle fill="#333333" cx="48.576" cy="84.512" r="8.956"/>
	<circle fill="#333333" cx="170.296" cy="84.512" r="8.956"/>
	<path fill="#333333" stroke="#333333" stroke-linejoin="round" stroke-miterlimit="10" d="M179.315,103.832
		c0,0,1.521,32.232-67.829,32.232c-75.392,0-67.596-32.232-67.596-32.232s-6.272,24.923,67.714,24.923
		C179.369,128.755,179.315,103.832,179.315,103.832z"/>
	<path fill="#FF901E" d="M43.891,59.278c0,0,2.698-61.738,19.208-55.785c16.511,5.953,18.576,45.439,18.576,45.439"/>
	<path fill="#FF901E" d="M169.761,57.677c0,0-2.698-61.738-19.208-55.785c-16.511,5.953-18.576,45.439-18.576,45.439"/>
	<path fill="#EE5A24" d="M65.646,48.578c0,0-0.801-27.227-7.207-27.227c-6.407,0-14.14,37.864-14.14,37.864
		S60.041,48.177,65.646,48.578z"/>
	<path fill="#EE5A24" d="M147.602,46.976c0,0,0.801-27.227,7.207-27.227s14.14,37.864,14.14,37.864S153.207,46.576,147.602,46.976z"
		/>
	<path opacity="0.15" fill="#F65C2B" d="M189.154,74.935c8.699,14.264,13.713,31.021,13.713,48.95
		c0,51.996-42.15,94.145-94.146,94.145c-51.994,0-94.146-42.149-94.146-94.145c0-20.333,6.447-39.161,17.408-54.551
		C12.462,88.809,0.382,115.739,0.382,145.492c0,59.411,48.162,107.573,107.573,107.573c59.41,0,107.572-48.162,107.572-107.573
		C215.527,118.495,205.581,93.823,189.154,74.935z"/>
	<path opacity="0.1" fill="#F65C2B" d="M65.646,49.378c0,0,5.205-20.42,0-32.432c-5.205-12.012-15.722,5.606-17.07,14.615
		S44.3,60.015,44.3,60.015S60.241,46.175,65.646,49.378z"/>
	<path opacity="0.05" fill="#F65C2B" d="M65.646,49.378c0,0,5.205-20.42,0-32.432c-5.205-12.012-15.722,5.606-17.07,14.615
		S44.3,60.015,44.3,60.015S60.241,46.175,65.646,49.378z"/>
	<path opacity="0.05" fill="#F65C2B" d="M147.511,47.777c0,0-5.205-20.42,0-32.432c5.205-12.012,15.722,5.605,17.07,14.615
		c1.349,9.009,4.277,28.454,4.277,28.454S152.916,44.574,147.511,47.777z"/>
	<path fill="#BE272D" d="M114.494,136.665c0,0,7.271-6.881,17.751-9.891c15.749-4.523,34.701-0.919,37.504,13.094
		s13.372,18.295,18.551,14.954c5.179-3.341,18.849-5.048,18.915,9.301c0.068,14.984-47.743,45.681-66.02-18.622
		C138.608,136.398,125.903,136.671,114.494,136.665z"/>
</g>
<g>
	<path fill="#FF901E" d="M180.51,23.753c-0.77,0.434-1.515,0.813-2.205,1.166c0.492,1.624,0.88,3.303,1.135,5.062
		c-0.532,0.164-1.092,0.249-1.68,0.254c-0.493-1.465-0.905-2.956-1.184-4.449c-0.424,0.218-0.797,0.381-1.144,0.544
		c-0.375-0.344-0.673-0.769-0.837-1.275c1.541-0.973,3.268-1.894,5.129-2.816C180.075,22.744,180.347,23.249,180.51,23.753z
		 M180.728,20.816c-0.533,0.004-1.068-0.044-1.657-0.147c-0.016-1.895,0.025-3.736,0.118-5.524c-1.31-0.043-2.67-0.085-4.111-0.074
		c-0.058-0.534-0.061-1.014-0.064-1.467c1.948-0.016,3.923-0.058,5.951-0.074C180.98,15.798,180.894,18.227,180.728,20.816z
		 M178.391,18.994c-0.473,0.911-1,1.716-1.527,2.414c-0.509-0.103-0.99-0.338-1.421-0.736c0.476-0.751,0.975-1.529,1.528-2.333
		C177.453,18.495,177.935,18.73,178.391,18.994z M178.748,16.83c-0.211,0.482-0.528,0.885-0.899,1.181
		c-0.724-0.394-1.368-0.87-1.905-1.425c0.236-0.457,0.5-0.858,0.764-1.208C177.405,15.746,178.075,16.221,178.748,16.83z
		 M183.521,23.089c-0.03-0.373-0.06-0.72-0.062-1.066c0.159-0.107,0.426-0.163,0.799-0.22c0.374-0.003,0.614,0.048,0.775,0.102
		c0.057,0.425,0.088,0.853,0.116,1.252c0.828,0.047,1.683,0.12,2.59,0.167c0.005,0.479-0.045,0.987-0.121,1.521
		c-2.161,0.018-4.271-0.073-6.354-0.296l-0.006-0.827c-0.003-0.213-0.004-0.428,0.048-0.668
		C181.998,23.048,182.747,23.069,183.521,23.089z M183.189,25.227c0.535-0.084,1.093-0.142,1.682-0.147
		c0.027,0.32,0.057,0.64,0.087,0.934c0.56-0.005,1.04,0.019,1.468,0.015c0.054,0.213,0.11,0.479,0.111,0.746
		c0.003,0.24-0.022,0.454-0.048,0.667c-0.373,0.056-0.825,0.113-1.413,0.145c0.001,0.267,0.031,0.48,0.032,0.667
		c0.533-0.058,1.041-0.116,1.548-0.173c0.11,0.453,0.166,0.933,0.225,1.466c-0.534,0.112-1.093,0.195-1.652,0.253
		c0.004,0.32,0.03,0.587,0.061,0.88c0.586-0.004,1.04-0.008,1.359,0.016l0.012,1.441c-1.064,0.142-2.505,0.233-4.348,0.248
		c-0.11-0.533-0.141-1.013-0.146-1.494c0.374-0.056,0.853-0.113,1.44-0.145c-0.055-0.267-0.084-0.533-0.086-0.747
		c-0.532,0.058-1.013,0.089-1.493,0.119c-0.109-0.399-0.221-0.879-0.278-1.466c0.533-0.058,1.093-0.142,1.625-0.199
		c-0.028-0.267-0.057-0.561-0.059-0.827l-0.106,0c-0.775,0.006-1.336-0.016-1.71-0.093c-0.107-0.159-0.138-0.399-0.138-0.666
		c-0.003-0.268,0.022-0.534,0.074-0.749c0.266-0.054,0.878-0.087,1.787-0.093C183.195,25.76,183.191,25.494,183.189,25.227z
		 M187.189,21.326c-0.509,0.004-1.067-0.019-1.656-0.12l-0.052-6.484c-1.227-0.017-2.536-0.034-3.896-0.022
		c-0.057-0.506-0.061-0.987-0.064-1.414c1.868-0.068,3.789-0.137,5.762-0.152C187.304,15.694,187.272,18.443,187.189,21.326z
		 M184.686,18.623c-0.473,0.805-0.974,1.53-1.504,2.174c-0.534-0.102-0.989-0.366-1.42-0.735c0.448-0.67,0.95-1.369,1.505-2.094
		C183.774,18.125,184.256,18.361,184.686,18.623z M184.934,16.327c-0.209,0.482-0.501,0.858-0.871,1.154
		c-0.749-0.368-1.393-0.843-1.985-1.372c0.21-0.428,0.474-0.805,0.764-1.18C183.565,15.297,184.262,15.745,184.934,16.327z
		 M196.567,22.746c-0.9,0.968-1.827,1.909-2.754,2.797c0.328,0.958,0.655,1.916,0.983,2.821c0.453-0.138,0.958-0.302,1.517-0.466
		c0.163,0.372,0.301,0.771,0.41,1.251c-0.824,0.46-1.836,0.762-3.062,0.904c-0.436-1.064-0.87-2.127-1.254-3.164
		c-1.376,1.317-2.463,2.259-3.259,2.799c-0.481-0.263-0.831-0.634-1.102-1.138c1.163-1.237,2.381-2.421,3.652-3.578
		c-0.49-1.304-0.952-2.608-1.338-3.885c-0.667,0.084-1.359,0.144-2.054,0.203c-0.27-0.372-0.381-0.905-0.386-1.598
		c0.641-0.112,1.252-0.224,1.865-0.335c-0.328-0.958-0.602-1.89-0.877-2.821c0.426-0.271,0.984-0.489,1.678-0.601
		c0.329,1.065,0.685,2.129,1.065,3.167c1.333-0.144,2.613-0.234,3.841-0.244c0.055,0.213,0.112,0.426,0.113,0.667
		c0.002,0.293-0.051,0.534-0.104,0.721c-0.691,0.219-1.782,0.441-3.275,0.641c0.3,0.958,0.602,1.863,0.929,2.767
		c0.688-0.593,1.352-1.158,2.042-1.698C195.735,22.218,196.191,22.482,196.567,22.746z M196.869,17.166
		c-0.424,0.377-0.902,0.701-1.433,0.945c-0.861-0.74-1.587-1.536-2.183-2.384c0.426-0.324,0.904-0.621,1.461-0.946
		C195.521,15.522,196.223,16.317,196.869,17.166z"/>
	<path fill="#FF901E" d="M186.961,37.625c-3.515,0.855-7.006,1.55-10.523,2.112c-0.271-0.532-0.436-1.091-0.493-1.678
		c3.276-0.828,6.819-1.549,10.63-2.166C186.818,36.425,186.957,37.011,186.961,37.625z M194.518,44.743
		c0.003,0.454-0.022,0.747-0.047,0.907c-1.281,0.117-2.56,0.181-3.841,0.244c0.516,1.117,1.113,2.339,1.763,3.615
		c0.717-0.486,1.461-0.945,2.231-1.379c0.482,0.317,0.779,0.688,0.942,1.114c-0.769,0.752-1.537,1.426-2.28,2.046
		c0.463,0.929,0.948,1.859,1.437,2.791c0.373-0.244,0.744-0.46,1.117-0.624c0.269,0.292,0.485,0.664,0.596,1.09
		c-0.582,0.565-1.435,1.025-2.55,1.354c-0.648-0.795-1.377-1.911-2.163-3.372c-0.85,0.621-1.672,1.188-2.495,1.674
		c-0.428-0.316-0.78-0.661-1.021-1.06c0.766-0.86,1.613-1.667,2.569-2.421c-0.677-1.355-1.412-2.924-2.173-4.733
		c-1.868,0.122-3.707,0.19-5.574,0.258c0.194,1.172,0.363,2.318,0.533,3.491c0.642-0.058,1.254-0.143,1.894-0.201
		c0.058,0.586,0.115,1.146,0.118,1.653c-0.612,0.112-1.197,0.223-1.784,0.308c0.174,1.546,0.345,3.04,0.464,4.587
		c-0.932,0.301-2.131,0.47-3.626,0.482c-0.161-0.319-0.271-0.719-0.303-1.252c0.691-0.139,1.358-0.225,2.025-0.257
		c-0.169-1.118-0.338-2.238-0.479-3.304c-1.786,0.255-3.545,0.428-5.307,0.549c-0.163-0.479-0.221-1.039-0.226-1.679
		c1.76-0.228,3.519-0.456,5.251-0.656c-0.196-1.225-0.395-2.451-0.562-3.651c-1.388,0.064-2.775,0.102-4.162,0.112
		c-0.084-0.532-0.117-1.092-0.121-1.679c1.281-0.064,2.615-0.154,4.002-0.218c-0.114-0.747-0.227-1.52-0.339-2.266
		c0.639-0.166,1.226-0.276,1.759-0.281c0.167,0.826,0.36,1.651,0.527,2.451c1.652-0.067,3.388-0.16,5.148-0.228
		c-0.191-0.425-0.38-0.904-0.572-1.383c0.479-0.217,1.064-0.409,1.73-0.575c0.244,0.585,0.516,1.224,0.814,1.89
		c1.494-0.066,3.043-0.131,4.59-0.197C194.459,44.156,194.514,44.424,194.518,44.743z M196.83,40.348
		c-0.236,0.536-0.553,0.966-0.95,1.315c-1.285-0.576-2.467-1.288-3.485-2.134c0.263-0.482,0.526-0.938,0.843-1.34
		C194.495,38.712,195.701,39.45,196.83,40.348z"/>
</g>
</svg>
