<?xml version="1.0" encoding="UTF-8"?>
<svg width="163px" height="83px" viewBox="0 0 163 83" version="1.1" xmlns="http://www.w3.org/2000/svg" xmlns:xlink="http://www.w3.org/1999/xlink">
    <!-- Generator: Sketch 47.1 (45422) - http://www.bohemiancoding.com/sketch -->
    <title>Page 1</title>
    <desc>Created with Sketch.</desc>
    <defs>
        <rect id="path-1" x="0" y="0" width="181" height="89"></rect>
        <polygon id="path-3" points="0.2272875 0.559333333 32.666975 0.559333333 32.666975 47.3375333 0.2272875 47.3375333"></polygon>
        <polygon id="path-5" points="180.775937 0.379817391 180.775937 154.99973 0.000269144981 154.99973 0.000269144981 0.379817391 180.775937 0.379817391"></polygon>
    </defs>
    <g id="Redesign" stroke="none" stroke-width="1" fill="none" fill-rule="evenodd">
        <g id="iPhone-8-Copy" transform="translate(-120.000000, -584.000000)">
            <g id="Page-1" transform="translate(110.000000, 578.000000)">
                <mask id="mask-2" fill="white">
                    <use xlink:href="#path-1"></use>
                </mask>
                <g id="Mask"></g>
                <g mask="url(#mask-2)">
                    <g transform="translate(1.000000, 6.000000)">
                        <path d="M181,122.5 C181,172.481725 140.481202,213 90.5003368,213 C40.5187984,213 0,172.481725 0,122.5 C0,72.5182755 40.5187984,32 90.5003368,32 C140.481202,32 181,72.5182755 181,122.5" id="Fill-1" fill="#FF901E"></path>
                        <path d="M48,70.5 C48,74.6416309 44.6421514,78 40.4996647,78 C36.3578486,78 33,74.6416309 33,70.5 C33,66.3576985 36.3578486,63 40.4996647,63 C44.6421514,63 48,66.3576985 48,70.5" id="Fill-3" fill="#333333"></path>
                        <path d="M150,70.5 C150,74.6416309 146.642151,78 142.499665,78 C138.357849,78 135,74.6416309 135,70.5 C135,66.3576985 138.357849,63 142.499665,63 C146.642151,63 150,66.3576985 150,70.5" id="Fill-5" fill="#333333"></path>
                        <path d="M37,50 C37,50 39.2854721,-2.73992232 53.2675427,2.34547118 C67.2496132,7.43086468 69,41.1624699 69,41.1624699" id="Fill-11" fill="#FF901E"></path>
                        <g id="Group-15" stroke-width="1" fill="none" transform="translate(110.000000, 0.000000)">
                            <mask id="mask-4" fill="white">
                                <use xlink:href="#path-3"></use>
                            </mask>
                            <g id="Clip-14"></g>
                            <path d="M32.666975,47.3375333 C32.666975,47.3375333 30.3501,-4.06046667 16.1759125,0.895533333 C2.001725,5.85153333 0.2272875,38.7248667 0.2272875,38.7248667" id="Fill-13" fill="#FF901E" mask="url(#mask-4)"></path>
                        </g>
                        <path d="M55,41.0103843 C55,41.0103843 54.3247552,18 48.922797,18 C43.5208388,18 37,50 37,50 C37,50 50.2732866,40.6719963 55,41.0103843" id="Fill-16" fill="#EE5A24"></path>
                        <path d="M123,39.0103843 C123,39.0103843 123.675245,16 129.077203,16 C134.479161,16 141,48 141,48 C141,48 127.726713,38.6719963 123,39.0103843" id="Fill-18" fill="#EE5A24"></path>
                        <g id="Group-22" stroke-width="1" fill="none" transform="translate(0.000000, 58.000000)">
                            <mask id="mask-6" fill="white">
                                <use xlink:href="#path-5"></use>
                            </mask>
                            <g id="Clip-21"></g>
                            <path d="M170.138251,46.2881217 C170.138251,90.0452957 134.721462,125.516709 91.0331762,125.516709 C47.3442171,125.516709 11.9267561,90.0452957 11.9267561,46.2881217 C11.9267561,29.1761217 17.3439717,13.3317522 26.5534401,0.379817391 C10.1503993,16.7687087 0.000269144981,39.4324043 0.000269144981,64.4709696 C0.000269144981,114.469252 40.4682357,154.99973 90.388574,154.99973 C140.307567,154.99973 180.776206,114.469252 180.776206,64.4709696 C180.776206,41.7513391 172.418581,20.9880783 158.616154,5.09316522 C165.925459,17.0969043 170.138251,31.1992087 170.138251,46.2881217 Z" id="Fill-20" fill-opacity="0.1" fill="#F65C2B" mask="url(#mask-6)"></path>
                        </g>
                        <path d="M55.0444732,40.1972572 C55.0444732,40.1972572 59.4444085,23.2982178 55.0444732,13.3576063 C50.6445379,3.41699489 41.7546378,17.9965583 40.615393,25.4520169 C39.4754713,32.9074755 37,49 37,49 C37,49 50.4753096,37.5464275 55.0444732,40.1972572" id="Fill-23" fill="#F65C2B"></path>
                        <path d="M55.0444732,40.1972572 C55.0444732,40.1972572 59.4444085,23.2982178 55.0444732,13.3576063 C50.6445379,3.41699489 41.7546378,17.9965583 40.615393,25.4520169 C39.4754713,32.9074755 37,49 37,49 C37,49 50.4753096,37.5464275 55.0444732,40.1972572" id="Fill-25" fill="#F65C2B"></path>
                        <path d="M123.955527,39.1972572 C123.955527,39.1972572 119.555591,22.2982178 123.955527,12.3576063 C128.355462,2.41699489 137.245362,16.9965583 138.384607,24.4520169 C139.524529,31.9074755 142,48 142,48 C142,48 128.52469,36.5464275 123.955527,39.1972572" id="Fill-27" fill="#F65C2B"></path>
                    </g>
                </g>
            </g>
        </g>
    </g>
</svg>