<?xml version="1.0" encoding="UTF-8"?>
<svg width="375px" height="125px" viewBox="0 0 375 125" version="1.1" xmlns="http://www.w3.org/2000/svg" xmlns:xlink="http://www.w3.org/1999/xlink">
    <!-- Generator: Sketch 47.1 (45422) - http://www.bohemiancoding.com/sketch -->
    <title>shake footerlogo</title>
    <desc>Created with Sketch.</desc>
    <defs>
        <linearGradient x1="50.0514269%" y1="-18.28125%" x2="50.0514269%" y2="104.888672%" id="linearGradient-1">
            <stop stop-color="#FF931E" offset="0%"></stop>
            <stop stop-color="#F87821" offset="66.2862595%"></stop>
            <stop stop-color="#F15A24" offset="100%"></stop>
        </linearGradient>
        <path d="M375,100.721746 L375,124 L1.24344979e-14,124 L1.24344979e-14,96.5012893 C33.0174467,70.7706758 103.447511,53 185,53 C270.939939,53 344.528507,72.7342023 375,100.721746 Z" id="path-2"></path>
        <filter x="-1.9%" y="-7.0%" width="103.7%" height="119.7%" filterUnits="objectBoundingBox" id="filter-3">
            <feOffset dx="0" dy="2" in="SourceAlpha" result="shadowOffsetOuter1"></feOffset>
            <feGaussianBlur stdDeviation="2" in="shadowOffsetOuter1" result="shadowBlurOuter1"></feGaussianBlur>
            <feComposite in="shadowBlurOuter1" in2="SourceAlpha" operator="out" result="shadowBlurOuter1"></feComposite>
            <feColorMatrix values="0 0 0 0 0   0 0 0 0 0   0 0 0 0 0  0 0 0 0.5 0" type="matrix" in="shadowBlurOuter1"></feColorMatrix>
        </filter>
    </defs>
    <g id="Redesign" stroke="none" stroke-width="1" fill="none" fill-rule="evenodd">
        <g id="iPhone-8-Copy" transform="translate(0.000000, -542.000000)">
            <g id="shake-footer" transform="translate(0.000000, 542.000000)">
                <g id="Combined-Shape">
                    <use fill="black" fill-opacity="1" filter="url(#filter-3)" xlink:href="#path-2"></use>
                    <use fill="url(#linearGradient-1)" fill-rule="evenodd" xlink:href="#path-2"></use>
                    <path stroke="#EB7A27" stroke-width="1" d="M374.5,100.941848 C343.363255,72.5141442 268.918797,53.5 185,53.5 C105.525899,53.5 34.3039518,70.5483296 0.5,96.7459537 L0.5,123.5 L374.5,123.5 L374.5,100.941848 Z"></path>
                </g>
                <g id="mascot-copy" transform="translate(142.000000, 0.000000)">
                    <path d="M85,58.5 C85,81.9720806 65.971835,101 42.5001582,101 C19.028165,101 0,81.9720806 0,58.5 C0,35.0279194 19.028165,16 42.5001582,16 C65.971835,16 85,35.0279194 85,58.5" id="Fill-1" fill="#FF931E"></path>
                    <path d="M85,58.5 C85,81.9720806 65.971835,101 42.5001582,101 C19.028165,101 0,81.9720806 0,58.5 C0,35.0279194 19.028165,16 42.5001582,16 C65.971835,16 85,35.0279194 85,58.5 Z" id="Stroke-3"></path>
                    <path d="M25,42 C25,46.4179989 22.0896728,50 18.5,50 C14.9103272,50 12,46.4179989 12,42 C12,37.5816527 14.9103272,34 18.5,34 C22.0896728,34 25,37.5816527 25,42" id="Fill-5" fill="#F9BDD6"></path>
                    <path d="M77,42 C77,46.4179989 74.0896728,50 70.5,50 C66.9103272,50 64,46.4179989 64,42 C64,37.5816527 66.9103272,34 70.5,34 C74.0896728,34 77,37.5816527 77,42" id="Fill-7" fill="#F9BDD6"></path>
                    <path d="M23,35 C23,37.2088698 21.2091474,39 18.9998212,39 C16.7908526,39 15,37.2088698 15,35 C15,32.7907725 16.7908526,31 18.9998212,31 C21.2091474,31 23,32.7907725 23,35" id="Fill-9" fill="#333333"></path>
                    <path d="M72,35 C72,37.2088698 70.2091474,39 67.9998212,39 C65.7908526,39 64,37.2088698 64,35 C64,32.7907725 65.7908526,31 67.9998212,31 C70.2091474,31 72,32.7907725 72,35" id="Fill-11" fill="#333333"></path>
                    <path d="M69.9989513,41 C69.9989513,41 70.5930743,54 43.4986859,54 C14.0434483,54 17.089463,41 17.089463,41 C17.089463,41 14.6391357,51.0521491 43.5446765,51.0521491 C70.0196001,51.0521491 69.9989513,41 69.9989513,41" id="Fill-13" fill="#333333"></path>
                    <path d="M69.9989513,41 C69.9989513,41 70.5930743,54 43.4986859,54 C14.0434483,54 17.089463,41 17.089463,41 C17.089463,41 14.6391357,51.0521491 43.5446765,51.0521491 C70.0196001,51.0521491 69.9989513,41 69.9989513,41 Z" id="Stroke-15" stroke="#333333" stroke-linejoin="round"></path>
                    <g id="Group-20" transform="translate(17.000000, 1.000000)">
                        <path d="M0.10375,22.6825681 C0.10375,22.6825681 1.156875,-1.94564028 7.5996875,0.429109722 C14.0425,2.80385972 14.8490625,18.5556653 14.8490625,18.5556653" id="Fill-17" fill="#FF931E"></path>
                        <path d="M0.10375,22.6825681 C0.10375,22.6825681 1.156875,-1.94564028 7.5996875,0.429109722 C14.0425,2.80385972 14.8490625,18.5556653 14.8490625,18.5556653" id="Stroke-19"></path>
                    </g>
                    <g id="Group-24" transform="translate(52.000000, 0.000000)">
                        <path d="M14.5,23.5 C14.5,23.5 13.928685,-2.1724644 7.37458938,0.158340958 C0.820493801,2.48914631 0,17.9494654 0,17.9494654" id="Fill-21" fill="#FF931E"></path>
                        <path d="M15.5,24 C15.5,26 13.928685,-2.1724644 7.37458938,0.158340958 C0.820493801,2.48914631 0,17.9494654 0,17.9494654 L15.5,24 Z" id="Stroke-23"></path>
                    </g>
                    <path d="M25,19.5051921 C25,19.5051921 24.6998912,8 22.2990209,8 C19.8981506,8 17,24 17,24 C17,24 22.8992385,19.3359981 25,19.5051921" id="Fill-25" fill="#F15A24"></path>
                    <path d="M79.9980831,48.67448 C79.9980831,69.3333566 63.345275,86.0803143 42.8032471,86.0803143 C22.2609029,86.0803143 5.60809478,69.3333566 5.60809478,48.67448 C5.60809478,40.5954689 8.15492785,33.1149384 12.4851768,27 C4.77254371,34.7376131 0,45.4377212 0,57.2590657 C0,80.8645287 19.0278486,100 42.5001582,100 C65.971835,100 85,80.8645287 85,57.2590657 C85,46.5325494 81.070284,36.729685 74.5804472,29.2252916 C78.0172481,34.8925626 79.9980831,41.5506198 79.9980831,48.67448 Z" id="Fill-29" fill-opacity="0.99000001" fill="#F95C2B" opacity="0.15"></path>
                    <path d="M25.1200129,19.7114843 C25.1200129,19.7114843 27.0999838,11.4786189 25.1200129,6.63575693 C23.140042,1.79289495 19.139587,8.89575919 18.6269269,12.5279057 C18.1139621,16.1600522 17,24 17,24 C17,24 23.0638893,18.4200544 25.1200129,19.7114843" id="Fill-31" fill="#F95C2B"></path>
                    <path d="M25.1200129,20.7114843 C25.1200129,20.7114843 27.0999838,12.4786189 25.1200129,7.63575693 C23.140042,2.79289495 19.139587,9.89575919 18.6269269,13.5279057 C18.1139621,17.1600522 17,25 17,25 C17,25 23.0638893,19.4200544 25.1200129,20.7114843" id="Fill-33" fill="#F95C2B"></path>
                    <path d="M57.8799871,18.7114843 C57.8799871,18.7114843 55.9000162,10.4786189 57.8799871,5.63575693 C59.859958,0.792894948 63.860413,7.89575919 64.3730731,11.5279057 C64.8860379,15.1600522 66,23 66,23 C66,23 59.9361107,17.4200544 57.8799871,18.7114843" id="Fill-35" fill="#F95C2B"></path>
                    <path d="M45,53.906738 C45,53.906738 47.823137,51.0289684 51.8921231,49.7700907 C58.0069507,47.8785926 65.3651401,49.385629 66.4533537,55.2463259 C67.5415673,61.1070228 71.6453762,62.8977169 73.656084,61.5001919 C75.6667918,60.1026668 80.9744759,59.3890014 80.9999711,65.3896852 C81.0267101,71.6562773 62.4633408,84.4938827 55.3672554,57.6019912 C54.3626788,53.7952174 49.4296512,53.9094172 45,53.906738" id="Fill-37" fill="#C1272D"></path>
                </g>
            </g>
        </g>
    </g>
</svg>