<?xml version="1.0" encoding="utf-8"?>
<!-- Generator: Adobe Illustrator 16.0.4, SVG Export Plug-In . SVG Version: 6.00 Build 0)  -->
<!DOCTYPE svg PUBLIC "-//W3C//DTD SVG 1.1//EN" "http://www.w3.org/Graphics/SVG/1.1/DTD/svg11.dtd">
<svg version="1.1" id="Layer_1" xmlns="http://www.w3.org/2000/svg" xmlns:xlink="http://www.w3.org/1999/xlink" x="0px" y="0px"
	 width="704.309px" height="95.825px" viewBox="0 0 704.309 95.825" enable-background="new 0 0 704.309 95.825"
	 xml:space="preserve">
<g>
	<path fill="#FF901E" stroke="#FF901E" stroke-linecap="round" stroke-miterlimit="10" d="M115.172,38.278
		c-1.063,2.888-2.279,5.7-3.8,8.588c1.977,0.532,3.876,1.14,5.776,1.824c-0.228,1.368-0.684,2.812-1.292,4.256
		c-2.736-0.456-5.093-0.988-6.916-1.748c-0.456,0.76-0.837,1.368-1.217,1.976c0.532,1.976,1.064,3.952,1.521,5.928
		c1.824-0.76,3.876-1.444,6.156-2.052c0.988,1.14,1.521,2.432,1.672,3.8c-1.976,1.292-4.256,2.28-6.84,2.888
		c0.607,2.888,1.063,5.7,1.368,8.437c-1.217,0.456-2.736,0.76-4.561,0.76c-1.368-4.636-2.433-9.272-3.192-13.833
		c-1.216,1.824-2.508,3.572-3.725,5.244c-1.672-0.608-2.964-1.368-3.952-2.356c4.104-6.309,8.133-12.769,12.085-19.381
		c-5.548-0.456-10.641-1.064-15.276-1.672c0-1.672,0.151-3.192,0.607-4.636C100.579,36.454,107.724,37.062,115.172,38.278z
		 M114.717,24.065c-0.229,1.368-0.685,2.888-1.368,4.484c-5.169-0.912-9.349-2.204-12.465-3.952c0.607-1.824,1.14-3.268,1.596-4.333
		C106.508,21.025,110.612,22.317,114.717,24.065z M128.549,35.39c0,2.204-0.532,7.296-1.52,15.353
		c-0.608,5.092-1.368,10.185-2.433,15.201c-1.368,0-2.736-0.076-4.028-0.38c0-6.84,1.141-17.101,3.572-30.63
		C125.661,34.934,127.104,35.086,128.549,35.39z M137.365,27.41c0-3.724,0.152-6.917,0.305-9.5c0.76-0.076,1.672-0.152,2.584-0.152
		c0.836,0,1.672,0.152,2.508,0.456c0,3.04-0.076,6.232-0.076,9.424c4.408,0.228,8.969,0.456,13.529,0.76
		c0,4.788-0.229,9.044-0.532,12.845c-0.76,0.228-1.521,0.304-2.433,0.304c-0.987,0-1.748-0.152-2.355-0.608V33.11
		c-2.889,0-5.625-0.076-8.285-0.228c-0.151,3.497-0.228,7.145-0.304,10.945c-0.608,0.228-1.52,0.304-2.584,0.304
		c-1.216,0-2.052-0.152-2.508-0.532c0-4.028,0-7.676,0.075-10.945c-5.016-0.228-9.956-0.532-14.668-0.988
		c-0.229-0.608-0.305-1.368-0.305-2.432c0-0.76,0.076-1.444,0.305-2.204C127.485,27.106,132.35,27.258,137.365,27.41z
		 M153.099,50.895c-0.152,1.976-2.128,6.536-5.776,13.681c2.736,1.216,5.32,2.584,7.828,4.028c-0.38,1.14-0.988,2.28-1.824,3.496
		c-2.736-0.76-5.624-1.672-8.513-2.812c-1.14,1.976-2.355,4.18-3.571,6.46c-1.673-0.304-3.041-0.912-4.028-1.824
		c0.987-2.28,2.052-4.408,3.116-6.537c-2.736-1.216-5.549-2.584-8.361-4.104c0.305-1.368,0.837-2.66,1.597-3.876
		c3.04,0.912,6.08,1.9,9.12,3.116c1.064-2.432,2.28-4.788,3.496-7.144c-2.964,0.152-5.852,0.152-8.588,0.152
		c-3.04,0-4.788,0-5.169-0.152c-0.456-1.292-0.607-2.736-0.607-4.333c2.508-0.304,5.396-0.532,8.664-0.684
		C145.726,50.439,149.906,50.591,153.099,50.895z"/>
	<path fill="#FF901E" stroke="#FF901E" stroke-linecap="round" stroke-miterlimit="10" d="M194.44,24.674
		c-1.52,1.672-3.648,3.572-6.232,5.7c-1.368,1.14-2.736,2.356-4.256,3.648c-1.748,1.52-3.42,2.888-5.093,3.952
		c-1.443-1.064-2.66-2.28-3.572-3.8c4.864-4.789,9.957-9.272,15.125-13.453C191.856,21.938,193.225,23.229,194.44,24.674z
		 M220.662,46.259c0.304,3.648,0.456,7.752,0.456,12.312v11.477c-1.064,0.152-2.66,0.228-4.94,0.228c-2.052,0-3.8-0.076-5.244-0.228
		c-0.229-0.684-0.305-1.368-0.305-2.128v-1.596c1.673-0.152,3.421-0.304,5.169-0.304c0-4.256-0.152-9.121-0.456-14.593
		c-5.473,0-10.717-0.076-15.657-0.076c-0.912,3.268-1.899,6.536-2.964,9.729c-0.76,1.976-1.521,3.952-2.28,5.928
		c-0.304,0.912-0.684,1.9-0.988,2.964c-0.456,0.912-0.912,1.976-1.52,3.116c-1.748-0.38-3.421-0.912-5.017-1.672
		c2.204-7.145,4.484-13.833,6.916-20.141c-3.115,0-6.08-0.076-8.968-0.076c-0.305-0.912-0.38-1.749-0.38-2.508
		c0-0.684,0.075-1.444,0.38-2.356c4.56-0.456,12.009-0.684,22.421-0.684C211.237,45.651,215.646,45.879,220.662,46.259z
		 M228.794,30.07c-0.151,1.824-0.912,3.344-2.279,4.636c-5.473-2.28-10.565-4.788-15.125-7.373c0.607-1.748,1.292-3.268,2.052-4.484
		C218.609,24.978,223.778,27.41,228.794,30.07z"/>
	<path fill="#FF901E" stroke="#FF901E" stroke-linecap="round" stroke-miterlimit="10" d="M280.854,16.237
		c0,1.976-0.152,4.18-0.305,6.46c7.145,0.304,14.289,0.684,21.51,1.064v1.976c0,1.064-0.152,1.9-0.305,2.508
		c-15.809-0.152-31.77-0.912-47.882-2.204c-0.229-0.456-0.305-1.292-0.305-2.356c0-0.684,0.152-1.444,0.532-2.28
		c6.992,0.304,13.984,0.684,21.053,0.988c0-2.736,0.229-4.94,0.532-6.46c0.761-0.076,1.597-0.152,2.66-0.152
		C279.181,15.781,280.017,15.933,280.854,16.237z M297.954,63.968v2.128c-3.952,0.456-7.753,0.76-11.553,0.988
		c1.064,2.964,1.596,6.08,1.596,9.272c-1.443,0.608-3.116,0.912-5.092,0.912c-3.648,0-6.156-0.38-7.448-1.14
		c0-1.368,0-2.508,0.151-3.344c1.977,0,4.028,0.076,6.309,0.076c-0.304-1.824-0.76-3.572-1.368-5.32
		c-6.992,0.456-13.832,0.608-20.597,0.608c-0.305-1.368-0.456-2.888-0.456-4.408c6.156-0.608,12.465-0.988,19.001-1.292
		c-0.304-0.684-0.608-1.368-0.912-1.976c0.912-1.52,1.9-3.041,2.888-4.484c-5.928-0.228-11.856-0.456-17.633-0.684v-4.636
		c6.232,0,14.745,0.304,25.538,0.912c0,1.14-1.673,4.408-5.017,9.729c0.228,0.38,0.456,0.684,0.607,0.912
		c4.561-0.152,9.121-0.228,13.833-0.228C297.878,62.6,297.954,63.284,297.954,63.968z M296.357,31.894
		c0.456,1.292,0.761,4.408,0.761,9.424c0,3.268-0.305,5.396-0.761,6.309c-3.344,0.456-11.477,0.608-24.396,0.608
		c-5.396,0-9.272-0.304-11.553-0.988c-0.532-1.672-0.761-3.572-0.761-5.548c0-2.584,0.076-5.32,0.229-8.208
		c0.532-0.152,1.216-0.304,2.052-0.304c0.912,0,1.597,0.152,2.204,0.304c0.456,2.28,0.685,5.472,0.685,9.576
		c7.98,0.304,16.948,0.38,26.829,0.38c0.076-2.432,0.152-4.712,0.152-6.993c-8.437-0.38-16.341-0.912-23.638-1.596v-2.28
		c0-0.608,0.076-1.292,0.305-1.9C276.825,30.678,286.098,31.134,296.357,31.894z"/>
	<path fill="#FF901E" stroke="#FF901E" stroke-linecap="round" stroke-miterlimit="10" d="M334.812,21.405
		c-2.204,5.017-5.32,10.185-9.272,15.505c-1.52-0.304-2.735-0.988-3.572-2.052c1.977-5.092,4.94-10.336,8.816-15.809
		C332.456,19.429,333.824,20.189,334.812,21.405z M359.514,48.007c3.115,0.152,6.536,0.38,10.184,0.608
		c0.456,1.976,0.685,4.94,0.685,8.741c0,3.952-0.229,6.46-0.608,7.6c-1.216,0.912-3.876,1.368-7.828,1.368
		c-5.396,0-9.652-0.304-12.692-0.988c-0.229-0.608-0.305-1.292-0.305-1.9c0-0.988,0.076-1.672,0.305-1.976
		c5.396,0.076,10.716,0.076,15.961,0.076c0-2.888-0.152-5.776-0.381-8.665c-6.384-0.152-13.528-0.532-21.356-1.14
		c0-1.444,0.076-2.584,0.228-3.496c-4.712,3.268-9.349,6.46-13.908,9.5c-1.521-1.064-2.433-2.204-2.736-3.42
		c4.18-3.496,8.588-6.84,13.301-10.032c-0.532-0.304-0.912-0.608-1.216-0.988c1.216-3.42,2.812-7.372,4.636-11.933
		c-3.192-0.836-6.384-1.672-9.576-2.432c0.456-1.52,0.912-2.888,1.52-4.104c0.912,0.152,1.748,0.38,2.584,0.532
		c0-4.256,0.152-7.524,0.305-9.88c0.684-0.076,1.52-0.152,2.432-0.152c0.761,0,1.521,0.152,2.204,0.456v3.344
		c2.812,0.152,5.625,0.228,8.36,0.304c0,1.064-0.228,2.28-0.531,3.572c-2.585,0-5.245-0.076-7.905-0.228
		c-0.075,1.216-0.151,2.432-0.151,3.648c2.584,0.76,5.168,1.52,7.676,2.28c-1.672,4.408-3.42,8.513-5.244,12.161
		c4.408-2.888,9.045-5.776,13.833-8.512c1.292,0.912,2.28,2.052,2.889,3.268c-0.912,0.608-1.824,1.216-2.66,1.824
		c8.132,2.812,16.036,5.776,23.789,8.893c-0.456,1.52-0.988,2.888-1.597,4.256c-9.5-2.736-18.469-6.004-26.981-9.88
		c-3.42,2.356-6.764,4.636-10.032,6.84c2.812,0,6.004,0.076,9.501,0.228c-0.532-1.292-0.912-2.584-1.141-3.876
		c1.368-0.456,2.812-0.76,4.181-0.912C358.221,44.739,358.981,46.411,359.514,48.007z M338.84,35.162
		c-0.304,1.368-0.836,2.584-1.596,3.724c-2.433-0.152-4.637-1.064-6.461-2.584c0.305-1.368,0.761-2.736,1.368-3.952
		C334.128,32.654,336.408,33.642,338.84,35.162z M355.409,55.683c0.076,0.608,0.151,1.216,0.151,1.9s-0.075,1.292-0.075,1.9
		c-1.673,0.228-4.408,0.304-8.057,0.304h-1.9c-0.076,4.712-0.152,8.665-0.228,12.008c1.368,0,3.724,0.076,7.068,0.38
		c0.151,0.38,0.304,0.912,0.304,1.596c0,0.608-0.076,1.14-0.152,1.749c-1.14,0.456-3.04,0.76-5.776,0.76
		c-2.508,0-4.712-0.228-6.612-0.532c-0.304-2.432-0.38-6.309-0.38-11.857c0-3.496,0.229-6.992,0.836-10.488
		c0.761-0.152,1.521-0.304,2.28-0.304c0.912,0,1.748,0.152,2.66,0.456v1.9h2.128C350.849,55.455,353.433,55.531,355.409,55.683z
		 M378.21,18.441c-0.151,1.672-1.824,5.776-5.168,12.161c2.888,1.368,5.776,2.888,8.513,4.56c-0.38,1.216-0.988,2.432-1.9,3.648
		c-2.964-0.76-6.08-1.824-9.272-3.269c-0.608,1.14-1.292,2.28-1.9,3.42c-1.672-0.304-3.04-0.836-3.952-1.748
		c0.532-1.216,1.064-2.356,1.597-3.572c-2.356-1.064-4.713-2.28-7.145-3.648c0.304-1.368,0.912-2.736,1.672-4.104
		c2.66,0.76,5.244,1.672,7.828,2.736c0.912-2.128,1.824-4.104,2.812-6.081c-2.889,0-5.7-0.076-8.36-0.076
		c-2.812,0-4.332,0-4.637-0.152c-0.38-1.216-0.532-2.508-0.532-3.876c2.28-0.304,4.864-0.532,7.753-0.684
		C370.838,17.909,375.018,18.137,378.21,18.441z M379.502,64.271c-0.912,2.736-2.204,5.396-3.8,8.057
		c1.216,0.76,2.432,1.672,3.648,2.584c-0.685,1.444-1.597,2.66-2.736,3.724c-5.093-2.28-9.652-4.94-13.604-8.056
		c0.76-1.368,1.52-2.66,2.432-3.724c1.977,0.836,3.801,1.748,5.624,2.736c1.064-2.508,2.356-4.94,3.952-7.22
		C376.766,62.828,378.286,63.436,379.502,64.271z"/>
	<path fill="#FF901E" stroke="#FF901E" stroke-linecap="round" stroke-miterlimit="10" d="M415.752,30.07
		c-1.292,5.092-2.736,10.108-4.256,14.973c-0.912,2.508-1.672,5.017-2.356,7.601c-0.684,2.584-1.596,5.016-2.812,7.373
		c-0.761,0-1.673-0.076-2.66-0.38c-0.761-0.304-1.444-0.684-2.053-1.14c2.433-9.045,5.473-18.545,8.969-28.426
		c1.063-0.152,1.976-0.304,2.888-0.304C414.384,29.918,415.145,29.994,415.752,30.07z M453.298,22.089
		c0,1.672-0.151,3.268-0.38,4.789c-15.581,0-30.781-0.532-45.679-1.672c0-1.824,0.152-3.496,0.532-5.016
		C423.125,20.189,438.249,20.874,453.298,22.089z M454.362,35.998c0,1.292-0.076,2.204-0.152,2.66
		c-12.312,1.064-24.929,1.672-37.85,1.824c-0.304-1.52-0.38-3.116-0.38-4.864c11.248-0.76,23.941-1.444,38.078-1.976
		C454.21,34.326,454.362,35.086,454.362,35.998z M444.254,75.521c-2.204,1.064-6.612,1.596-13.149,1.596
		c-0.304-1.292-0.455-2.66-0.455-4.104c2.432-0.304,5.016-0.608,7.6-0.912c-1.292-9.577-2.584-18.849-3.952-27.969
		c1.368-0.304,2.965-0.532,4.864-0.76C442.05,54.239,443.722,64.956,444.254,75.521z"/>
	<path fill="#FF901E" stroke="#FF901E" stroke-linecap="round" stroke-miterlimit="10" d="M495.78,38.278
		c-3.344,1.216-6.536,2.28-9.5,3.192c1.672,6.84,2.888,13.833,3.647,20.977c-1.52,0.532-3.04,0.76-4.712,0.76
		c-1.748-6.688-3.116-13.529-4.028-20.369c-2.28,0.608-4.484,1.14-6.612,1.521c-0.608-1.292-0.912-2.66-0.912-4.181
		c7.068-3.496,14.137-5.624,21.129-6.384C495.4,35.086,495.78,36.606,495.78,38.278z M519.874,18.593
		c0.228,3.116,0.38,5.776,0.456,7.98c4.712,0.304,9.348,0.608,13.908,0.988c0,1.444-0.228,3.116-0.684,4.94
		c-11.629,0-23.638-0.608-36.103-1.976c0-1.824,0.152-3.572,0.532-5.092c5.396,0.228,10.717,0.456,15.961,0.76
		c0.076-2.736,0.38-5.245,0.912-7.601c0.836-0.228,1.672-0.38,2.508-0.38C518.277,18.213,519.113,18.365,519.874,18.593z
		 M521.317,47.855c-0.151,0.76-0.228,1.52-0.304,2.28c-0.152,1.14-0.38,1.976-0.532,2.508c-2.964,0-5.928-0.152-8.968-0.456
		c-3.041-0.152-6.005-0.456-8.969-0.912c0-1.52,0.151-3.116,0.532-4.788C509.461,46.791,515.541,47.247,521.317,47.855z
		 M529.83,71.948c-7.296,1.14-15.276,1.748-24.018,1.9c-1.216-3.192-1.899-8.132-2.204-15.125c7.677-1.14,16.037-1.749,25.082-1.749
		C529.45,61.839,529.83,66.78,529.83,71.948z M525.726,37.29c0.152,0.76,0.305,1.521,0.305,2.356s-0.076,1.596-0.152,2.204
		c-2.584,0.304-6.765,0.456-12.541,0.456c-2.508,0-4.332-0.076-5.548-0.304c-0.304-0.532-0.38-1.292-0.38-2.204
		s0.076-1.672,0.228-2.356c0.912-0.152,2.889-0.304,6.005-0.304C518.733,37.138,522.762,37.214,525.726,37.29z M524.662,68.072
		l-0.912-6.232l-14.517,0.76l1.063,6.384L524.662,68.072z"/>
	<path fill="#FF901E" stroke="#FF901E" stroke-linecap="round" stroke-miterlimit="10" d="M573.908,60.016
		c-1.292,1.824-2.736,3.572-4.256,5.244c-0.836,0.912-1.672,1.748-2.433,2.508c-0.836,0.988-1.748,1.9-2.66,2.66
		c-1.52-0.912-2.888-2.128-3.952-3.572c2.585-3.496,5.549-6.917,8.969-10.185C571.324,57.659,572.769,58.799,573.908,60.016z
		 M582.345,22.85c1.064-2.432,2.356-4.712,3.876-6.84c1.748,0.38,3.192,0.988,4.408,1.9c-0.607,1.748-1.367,3.496-2.279,5.168
		c4.712,0.152,9.272,0.38,13.757,0.684c0.531,3.648,0.836,8.816,0.836,15.657c0,6.764-0.152,11.705-0.381,14.745
		c-4.104,0.684-11.856,0.988-23.257,0.988c-5.244,0-9.5-0.304-12.769-0.912c-0.456-3.648-0.76-8.285-0.912-13.833
		c0-4.104,0.228-8.588,0.76-13.453h5.017v5.168c3.952,0.304,7.601,0.608,11.097,1.064c-0.152,0.76-0.229,1.444-0.304,2.052
		c-0.152,1.064-0.305,1.824-0.456,2.28c-2.129,0-4.257-0.076-6.385-0.38c-1.368-0.076-2.66-0.228-3.952-0.456
		c0,1.368,0,2.584,0.076,3.8c3.116,0.076,6.536,0.228,10.261,0.38c0,1.672-0.305,3.192-0.837,4.484c-3.8,0-6.992-0.076-9.424-0.304
		c0,1.672,0.076,3.116,0.076,4.484c1.976,0.304,4.256,0.456,6.84,0.456c9.425,0,15.733-0.076,18.925-0.304
		c0-2.66-0.151-9.729-0.304-21.129c-7.601-0.304-14.896-0.684-21.889-1.216c0-1.52,0.151-3.116,0.455-4.636
		C577.86,22.773,580.064,22.85,582.345,22.85z M582.573,63.512c0.151,2.204,0.456,4.408,0.76,6.612c3.04,0,6.309-0.076,9.881-0.228
		c0.304,0.608,0.456,1.368,0.456,2.204c0,0.912-0.076,1.748-0.152,2.356c-1.216,0.456-3.648,0.76-7.372,0.76
		c-3.877,0-6.385-0.152-7.449-0.456c-0.76-3.876-1.063-7.524-1.063-11.097c0.988-0.152,1.824-0.304,2.432-0.304
		C580.977,63.36,581.812,63.436,582.573,63.512z M594.354,62.979c-0.76,0.608-1.976,1.292-3.496,1.9
		c-1.672-1.748-3.192-4.028-4.484-6.917c1.064-0.76,2.28-1.444,3.648-1.9C591.997,58.647,593.441,61.003,594.354,62.979z
		 M607.351,66.248c-1.521,0.608-2.965,0.836-4.484,0.836c-1.064-2.204-1.824-4.484-2.204-6.917c1.368-0.456,2.736-0.76,4.18-0.912
		C605.982,61.536,606.818,63.892,607.351,66.248z"/>
</g>
<path fill="#FF901E" stroke="#FF901E" stroke-linecap="round" stroke-miterlimit="10" d="M80.309,29.27L27.622,5.909
	c-4.022-1.784-4.979-0.502-2.127,2.848l19.627,23.048c2.853,3.35,1.656,6.798-2.657,7.662L8.152,46.341
	C3.839,47.206,3.875,48.402,8.234,49l42.148,5.785c4.359,0.598,6.092,4.186,3.851,7.972l-9.85,16.637
	c-2.241,3.787-0.744,5.52,3.328,3.852l25.193-10.318c4.072-1.668,5.858-6.284,3.97-10.258C76.875,62.67,68.309,44.644,80.309,29.27z
	"/>
<path fill="#FF901E" stroke="#FF901E" stroke-linecap="round" stroke-miterlimit="10" d="M623.309,29.27l52.687-23.361
	c4.022-1.784,4.979-0.502,2.127,2.848l-19.627,23.048c-2.853,3.35-1.656,6.798,2.657,7.662l34.312,6.874
	c4.314,0.864,4.277,2.061-0.082,2.659l-42.148,5.785c-4.359,0.598-6.092,4.186-3.851,7.972l9.85,16.637
	c2.241,3.787,0.744,5.52-3.328,3.852l-25.193-10.318c-4.072-1.668-5.858-6.284-3.97-10.258
	C626.742,62.67,635.309,44.644,623.309,29.27z"/>
</svg>
