<?xml version="1.0" encoding="utf-8"?>
<!-- Generator: Adobe Illustrator 16.0.4, SVG Export Plug-In . SVG Version: 6.00 Build 0)  -->
<!DOCTYPE svg PUBLIC "-//W3C//DTD SVG 1.1//EN" "http://www.w3.org/Graphics/SVG/1.1/DTD/svg11.dtd">
<svg version="1.1" id="Layer_1" xmlns="http://www.w3.org/2000/svg" xmlns:xlink="http://www.w3.org/1999/xlink" x="0px" y="0px"
	 width="30px" height="30px" viewBox="0 0 30 30" enable-background="new 0 0 30 30" xml:space="preserve">
<g>
	<g>
		<path fill="#FF901E" d="M17.155,18.526c0,0-1.096,3.261-0.968,5.464c0.131,2.203,2.856,5.705,4.785,5.469
			c2.062-0.252-1.532-3.163-2.114-4.587c-0.582-1.425,0.595-4.586,0.812-7.198C19.787,16.282,17.285,18.824,17.155,18.526z"/>
		<path opacity="0.15" fill="#F65C2B" d="M21.595,28.903c-0.074-0.969-2.288-2.938-2.736-4.031
			c-0.582-1.425,0.595-4.586,0.812-7.198c0.017-0.199-0.026-0.311-0.1-0.369C16.883,21.075,15.88,26.625,21.595,28.903z"/>
	</g>
	<g>
		<path fill="#FF901E" d="M18.525,19.989c0,0-3.074,1.61-4.148,2.405c-1.079,0.794-1.752,2.913-0.837,5.102
			c0.917,2.189-0.596,3.144-1.473,1.63c-0.876-1.515-2.731-4.27-0.769-7.203c1.959-2.933,4.484-3.196,4.888-3.186
			C16.588,18.746,18.921,19.361,18.525,19.989z"/>
		<path opacity="0.15" fill="#F65C2B" d="M13.723,29.309c0.154-0.41,0.146-1.027-0.183-1.813c-0.915-2.188-0.242-4.307,0.837-5.102
			c0.702-0.52,2.255-1.385,3.25-1.924C12.664,20.11,10.584,25.667,13.723,29.309z"/>
	</g>
	<circle fill="#FF901E" cx="15.701" cy="12.925" r="9.749"/>
	<path opacity="0.15" fill="#F65C2B" d="M23.059,6.532c0.789,1.292,1.242,2.811,1.242,4.436c0,4.711-3.819,8.529-8.531,8.529
		c-4.711,0-8.531-3.818-8.531-8.529c0-1.843,0.583-3.549,1.579-4.944c-1.77,1.765-2.865,4.205-2.865,6.901
		c0,5.383,4.365,9.746,9.749,9.746c5.383,0,9.748-4.363,9.748-9.746C25.449,10.478,24.547,8.244,23.059,6.532z"/>
	<path fill="#FF901E" d="M14.501,3.705c0,0-0.388-2.054-0.607-2.382c-0.329-0.499-0.627-1.472,0.305-1.089
		c0.931,0.382,3.137,1.617,3.137,3.471C17.335,5.557,14.562,4.146,14.501,3.705z"/>
	<path fill="#FF901E" d="M12.918,3.875c0,0,0.109-1.287-0.493-1.944c-0.33-0.361-0.514-1.202,0.249-0.89
		c0.76,0.314,2.559,1.322,2.559,2.834S12.97,4.235,12.918,3.875z"/>
	<circle fill="#333333" cx="13.281" cy="7.272" r="0.654"/>
	
		<path fill="#333333" stroke="#333333" stroke-width="0.25" stroke-linecap="round" stroke-linejoin="round" stroke-miterlimit="10" d="
		M6.284,10.404c0,0,0.556,0.738,2.908,0.62c2.351-0.117,3.709-1.704,3.709-1.704s-1.726,1.988-3.652,2.41
		c-2.014,0.442-3.181-0.292-3.181-0.292L6.284,10.404z"/>
	<path fill="#F65C2B" d="M13.653,0.832c0.063,0.172,0.15,0.351,0.24,0.491c0.22,0.328,0.607,2.382,0.607,2.382
		c0.034,0.247,0.911,0.779,1.683,0.892C16.164,3.176,15.925,1.016,13.653,0.832z"/>
	<path fill="#F65C2B" d="M12.399,1.888c0.01,0.013,0.011,0.034,0.025,0.042c0.477,0.296,0.441,1.679,0.441,1.679
		c0.021,0.139,0.362-0.095,0.787,0.083C13.146,2.39,12.996,2.74,12.399,1.888z"/>
</g>
</svg>
