<?xml version="1.0" encoding="utf-8"?>
<!-- Generator: Adobe Illustrator 16.0.4, SVG Export Plug-In . SVG Version: 6.00 Build 0)  -->
<!DOCTYPE svg PUBLIC "-//W3C//DTD SVG 1.1//EN" "http://www.w3.org/Graphics/SVG/1.1/DTD/svg11.dtd">
<svg version="1.1" id="Layer_1" xmlns="http://www.w3.org/2000/svg" xmlns:xlink="http://www.w3.org/1999/xlink" x="0px" y="0px"
	 width="30px" height="30px" viewBox="0 0 30 30" enable-background="new 0 0 30 30" xml:space="preserve">
<g>
	<g>
		<path fill="#F65C2B" d="M2.858,21.488c0,0-0.133-1.779,11.517-5.606c11.649-3.826,12.038-2.132,12.038-2.132
			s-5.375,2.98-11.138,4.873C9.511,20.517,5.743,22.363,2.858,21.488z"/>
		<path fill="#333333" d="M25.214,0.288c-0.596-0.216-0.762,0.247-0.762,0.247l-5.664,14.996l1.49-13.427
			c0,0,0.055-0.486-0.614-0.56c-0.63-0.07-0.684,0.417-0.684,0.417l-1.861,16.52c0.903-0.296,1.731-0.567,2.621-0.983l5.94-16.521
			C25.682,0.977,25.849,0.515,25.214,0.288z"/>
		<path fill="#FF901E" d="M26.413,13.75c-0.258-0.136-1.105,0.364-1.105,0.364s-5.311,2.274-10.378,3.939
			c-4.799,1.576-11.15,3.133-11.15,3.133s-0.815,0.085-0.921,0.302c-0.199,0.406,0.083,0.896,0.298,1.308
			c2.521,4.817,9.347,8.284,15.263,6.34c6.01-1.975,9.481-8.734,8.508-14.149C26.861,14.617,26.739,13.92,26.413,13.75z"/>
		<path opacity="0.15" fill="#F65C2B" d="M4.52,21c-0.464,0.117-0.741,0.187-0.741,0.187s-0.815,0.085-0.921,0.302
			c-0.199,0.406,0.083,0.896,0.298,1.308c2.521,4.817,9.347,8.284,15.263,6.34c3.818-1.254,6.605-4.443,7.886-7.987
			C20.356,28.155,11.321,25.72,4.52,21z"/>
		<circle fill="#333333" cx="10.081" cy="22.981" r="0.855"/>
		<circle fill="#333333" cx="21.122" cy="19.354" r="0.855"/>
		<path fill="#333333" stroke="#333333" stroke-width="0.25" stroke-linejoin="round" stroke-miterlimit="10" d="M22.517,20.839
			c0,0,0.316,3.809-5.018,5.561c-5.148,1.692-7.266-1.525-7.266-1.525s1.036,2.069,6.885,0.243
			C22.909,23.306,22.517,20.839,22.517,20.839z"/>
	</g>
	<path fill="#BE272D" d="M16.781,26.763c0.54-0.109,1.121-0.284,1.756-0.566c0.756-0.337,1.355-0.712,1.847-1.099
		C18.251,24.511,17.24,25.85,16.781,26.763z"/>
</g>
</svg>
