<?xml version="1.0" encoding="utf-8"?>
<!-- Generator: Adobe Illustrator 16.0.4, SVG Export Plug-In . SVG Version: 6.00 Build 0)  -->
<!DOCTYPE svg PUBLIC "-//W3C//DTD SVG 1.1//EN" "http://www.w3.org/Graphics/SVG/1.1/DTD/svg11.dtd">
<svg version="1.1" id="Layer_1" xmlns="http://www.w3.org/2000/svg" xmlns:xlink="http://www.w3.org/1999/xlink" x="0px" y="0px"
	 width="30px" height="30px" viewBox="0 0 30 30" enable-background="new 0 0 30 30" xml:space="preserve">
<g>
	<path fill="#FF901E" d="M10,18.417c5.688,5.688,9.125,6.271,10.812,5.333s3-2.5,2.938-3.5S21.562,17.5,21,16.938
		s-1.812-0.688-2.312,0s-0.811,1.75-1.749,1.562s-2.376-1.125-3.501-2.5s-2.875-3.375-2.125-3.875s1.625-1.562,1.812-2.125
		S12.5,8.5,11.812,7.688S10.062,5.375,8.75,6.25S6,8.312,5.75,9.625S5.562,13.979,10,18.417z"/>
	<path opacity="0.15" fill="#F65C2B" d="M13.052,10.168c0.028-0.058,0.056-0.117,0.073-0.168c0.188-0.562-0.625-1.5-1.312-2.312
		c-0.486-0.574-1.162-1.476-1.977-1.656C9.104,8.375,10.375,9.875,13.052,10.168z"/>
	<path opacity="0.15" fill="#F65C2B" d="M23.752,20.104C23.25,19.098,21.48,17.418,21,16.938c-0.272-0.272-0.706-0.439-1.138-0.464
		C20.018,18.424,21.369,20.774,23.752,20.104z"/>
	<path opacity="0.15" fill="#F65C2B" d="M7.752,6.971C6.787,7.733,5.937,8.645,5.75,9.625C5.5,10.938,5.562,13.979,10,18.417
		c5.688,5.688,9.125,6.271,10.812,5.333c0.724-0.402,1.369-0.92,1.876-1.458C14.543,22.618,5.894,15.679,7.752,6.971z"/>
</g>
</svg>
