<?xml version="1.0" encoding="utf-8"?>
<!-- Generator: Adobe Illustrator 16.0.4, SVG Export Plug-In . SVG Version: 6.00 Build 0)  -->
<!DOCTYPE svg PUBLIC "-//W3C//DTD SVG 1.1//EN" "http://www.w3.org/Graphics/SVG/1.1/DTD/svg11.dtd">
<svg version="1.1" id="Layer_1" xmlns="http://www.w3.org/2000/svg" xmlns:xlink="http://www.w3.org/1999/xlink" x="0px" y="0px"
	 width="30px" height="30px" viewBox="0 0 30 30" enable-background="new 0 0 30 30" xml:space="preserve">
<g>
	<g>
		<g>
			<path fill="#FF901E" d="M29.734,6.814c0,2.238-4.266,7.464-4.266,7.464s-4.264-5.226-4.264-7.464
				c0-2.238,1.908-4.336,4.264-4.336C27.825,2.478,29.734,4.576,29.734,6.814z"/>
			<path opacity="0.15" fill="#F65C2B" d="M29.157,4.784c0.163,0.436,0.257,0.907,0.257,1.401c0,2.198-1.724,4.361-3.922,4.361
				s-4.039-2.163-4.039-4.361c0-0.375,0.056-0.735,0.151-1.079c-0.252,0.519-0.399,1.096-0.399,1.708
				c0,2.238,4.264,7.464,4.264,7.464s4.266-5.226,4.266-7.464C29.734,6.074,29.521,5.381,29.157,4.784z"/>
		</g>
		<circle fill="#F6BAD3" cx="25.493" cy="6.68" r="1.896"/>
	</g>
	<g>
		<g>
			<path fill="#FF901E" d="M13.826,14.985c0,3.567-6.8,11.9-6.8,11.9s-6.8-8.333-6.8-11.9c0-3.569,3.044-6.913,6.8-6.913
				S13.826,11.417,13.826,14.985z"/>
			<path opacity="0.15" fill="#F65C2B" d="M12.905,11.749c0.261,0.696,0.412,1.446,0.412,2.234c0,3.504-2.748,6.952-6.253,6.952
				c-3.503,0-6.438-3.448-6.438-6.952c0-0.597,0.087-1.173,0.241-1.721c-0.405,0.83-0.64,1.749-0.64,2.723
				c0,3.567,6.8,11.9,6.8,11.9s6.8-8.333,6.8-11.9C13.826,13.804,13.486,12.7,12.905,11.749z"/>
		</g>
		<circle fill="#F6BAD3" cx="7.064" cy="14.771" r="3.023"/>
	</g>
	<g>
		<g>
			<path fill="none" stroke="#F6BAD3" stroke-miterlimit="10" d="M8.443,26.886c0,0,0.158,0.012,0.495,0.021"/>
			<path fill="none" stroke="#F6BAD3" stroke-miterlimit="10" stroke-dasharray="1.0284,1.0284" d="M9.963,26.92
				c0.515,0,1.17-0.009,1.977-0.035c2.447-0.079,7.343-2.001,5.595-6.372c-1.677-4.191,0.791-11.009,7.104-6.833"/>
			<path fill="none" stroke="#F6BAD3" stroke-miterlimit="10" d="M25.068,13.979c0.132,0.095,0.266,0.195,0.4,0.3"/>
		</g>
	</g>
</g>
</svg>
