<?xml version="1.0" encoding="utf-8"?>
<!-- Generator: Adobe Illustrator 16.0.4, SVG Export Plug-In . SVG Version: 6.00 Build 0)  -->
<!DOCTYPE svg PUBLIC "-//W3C//DTD SVG 1.1//EN" "http://www.w3.org/Graphics/SVG/1.1/DTD/svg11.dtd">
<svg version="1.1" id="Layer_1" xmlns="http://www.w3.org/2000/svg" xmlns:xlink="http://www.w3.org/1999/xlink" x="0px" y="0px"
	 width="30px" height="30px" viewBox="0 0 30 30" enable-background="new 0 0 30 30" xml:space="preserve">
<g>
	<g>
		<g>
			<path fill="#FF901E" d="M26.622,7.89c0,1.831-3.49,6.107-3.49,6.107s-3.489-4.276-3.489-6.107c0-1.832,1.562-3.548,3.489-3.548
				S26.622,6.059,26.622,7.89z"/>
			<path opacity="0.15" fill="#F65C2B" d="M26.149,6.229c0.134,0.356,0.211,0.742,0.211,1.146c0,1.799-1.41,3.568-3.21,3.568
				c-1.798,0-3.305-1.77-3.305-3.568c0-0.307,0.045-0.602,0.124-0.883c-0.207,0.425-0.327,0.897-0.327,1.397
				c0,1.831,3.489,6.107,3.489,6.107s3.49-4.276,3.49-6.107C26.622,7.284,26.447,6.717,26.149,6.229z"/>
		</g>
		<circle fill="#F6BAD3" cx="23.151" cy="7.78" r="1.551"/>
	</g>
	<g>
		<g>
			<path fill="#FF901E" d="M13.604,14.576c0,2.919-5.564,9.738-5.564,9.738s-5.564-6.818-5.564-9.738
				c0-2.92,2.491-5.657,5.564-5.657C11.113,8.919,13.604,11.656,13.604,14.576z"/>
			<path opacity="0.15" fill="#F65C2B" d="M12.851,11.928c0.214,0.569,0.337,1.183,0.337,1.828c0,2.868-2.248,5.689-5.117,5.689
				c-2.866,0-5.268-2.821-5.268-5.689c0-0.488,0.071-0.96,0.197-1.408c-0.332,0.678-0.523,1.431-0.523,2.228
				c0,2.919,5.564,9.738,5.564,9.738s5.564-6.818,5.564-9.738C13.604,13.609,13.327,12.707,12.851,11.928z"/>
		</g>
		<circle fill="#F6BAD3" cx="8.071" cy="14.401" r="2.474"/>
	</g>
	<g>
		<g>
			<path fill="none" stroke="#F6BAD3" stroke-miterlimit="10" d="M9.2,24.314c0,0,0.158,0.012,0.498,0.02"/>
			<path fill="none" stroke="#F6BAD3" stroke-miterlimit="10" stroke-dasharray="0.98,0.98" d="M10.676,24.341
				c0.381-0.002,0.84-0.01,1.385-0.027c2.002-0.064,6.008-1.637,4.579-5.214c-1.361-3.4,0.613-8.914,5.681-5.677"/>
			<path fill="none" stroke="#F6BAD3" stroke-miterlimit="10" d="M22.73,13.699c0.132,0.094,0.266,0.193,0.401,0.298"/>
		</g>
	</g>
</g>
</svg>
