<?xml version="1.0" encoding="utf-8"?>
<!-- Generator: Adobe Illustrator 16.0.4, SVG Export Plug-In . SVG Version: 6.00 Build 0)  -->
<!DOCTYPE svg PUBLIC "-//W3C//DTD SVG 1.1//EN" "http://www.w3.org/Graphics/SVG/1.1/DTD/svg11.dtd">
<svg version="1.1" id="Layer_1" xmlns="http://www.w3.org/2000/svg" xmlns:xlink="http://www.w3.org/1999/xlink" x="0px" y="0px"
	 width="95px" height="30px" viewBox="0 0 95 30" enable-background="new 0 0 95 30" xml:space="preserve">
<g>
	<path fill="#FF901E" d="M12.166,9.211c0.3-0.681,0.789-0.681,1.09,0l1.01,2.291c0.299,0.682,1.15,1.299,1.891,1.373l2.49,0.253
		c0.738,0.075,0.892,0.542,0.336,1.038l-1.865,1.666c-0.555,0.496-0.88,1.496-0.723,2.224l0.53,2.446
		c0.156,0.727-0.24,1.015-0.883,0.641l-2.163-1.26c-0.643-0.375-1.694-0.375-2.337,0l-2.163,1.26
		c-0.643,0.374-1.039,0.086-0.883-0.641l0.53-2.446c0.157-0.728-0.168-1.728-0.721-2.224l-1.867-1.666
		c-0.556-0.496-0.402-0.963,0.336-1.038l2.49-0.253c0.741-0.074,1.592-0.691,1.891-1.373L12.166,9.211z"/>
	<path opacity="0.15" fill="#F65C2B" d="M13.856,13.594c0.929,0.113,1.493-0.057,2.976-0.65l-0.676-0.068
		c-0.74-0.074-1.592-0.691-1.891-1.373l-0.072-0.164C13.544,12.641,13.241,12.979,13.856,13.594z"/>
	<path opacity="0.15" fill="#F65C2B" d="M11.321,17.931c-1.769-1.325-2.297-3.142-2.14-5.047l-2.407,0.244
		c-0.738,0.075-0.892,0.542-0.336,1.038l1.867,1.666c0.553,0.496,0.878,1.496,0.721,2.224l-0.53,2.446
		c-0.156,0.727,0.24,1.015,0.883,0.641l2.163-1.26c0.643-0.375,1.694-0.375,2.337,0l2.163,1.26c0.643,0.374,1.039,0.086,0.883-0.641
		l-0.553-2.598C14.549,18.289,12.541,18.541,11.321,17.931z"/>
</g>
<g>
	<path fill="#FF901E" d="M29.728,9.211c0.299-0.681,0.789-0.681,1.089,0l1.01,2.291c0.3,0.682,1.15,1.299,1.892,1.373l2.489,0.253
		c0.739,0.075,0.893,0.542,0.337,1.038l-1.866,1.666c-0.555,0.496-0.879,1.496-0.723,2.224l0.53,2.446
		c0.157,0.727-0.24,1.015-0.883,0.641l-2.163-1.26c-0.642-0.375-1.694-0.375-2.336,0l-2.164,1.26
		c-0.642,0.374-1.039,0.086-0.882-0.641l0.53-2.446c0.156-0.728-0.168-1.728-0.722-2.224l-1.867-1.666
		c-0.556-0.496-0.402-0.963,0.337-1.038l2.489-0.253c0.741-0.074,1.592-0.691,1.892-1.373L29.728,9.211z"/>
	<path opacity="0.15" fill="#F65C2B" d="M31.417,13.594c0.93,0.113,1.493-0.057,2.976-0.65l-0.675-0.068
		c-0.741-0.074-1.592-0.691-1.892-1.373l-0.072-0.164C31.104,12.641,30.802,12.979,31.417,13.594z"/>
	<path opacity="0.15" fill="#F65C2B" d="M28.883,17.931c-1.77-1.325-2.297-3.142-2.141-5.047l-2.406,0.244
		c-0.739,0.075-0.893,0.542-0.337,1.038l1.867,1.666c0.554,0.496,0.878,1.496,0.722,2.224l-0.53,2.446
		c-0.157,0.727,0.24,1.015,0.882,0.641l2.164-1.26c0.642-0.375,1.694-0.375,2.336,0l2.163,1.26c0.643,0.374,1.04,0.086,0.883-0.641
		l-0.552-2.598C32.11,18.289,30.103,18.541,28.883,17.931z"/>
</g>
<g opacity="0.6">
	<path fill="#F6BAD3" d="M81.239,9.211c0.3-0.681,0.789-0.681,1.09,0l1.01,2.291c0.299,0.682,1.149,1.299,1.891,1.373l2.49,0.253
		c0.738,0.075,0.892,0.542,0.336,1.038l-1.866,1.666c-0.554,0.496-0.879,1.496-0.723,2.224l0.531,2.446
		c0.156,0.727-0.24,1.015-0.883,0.641l-2.163-1.26c-0.643-0.375-1.694-0.375-2.337,0l-2.163,1.26
		c-0.643,0.374-1.039,0.086-0.883-0.641l0.53-2.446c0.157-0.728-0.168-1.728-0.721-2.224l-1.867-1.666
		c-0.556-0.496-0.402-0.963,0.336-1.038l2.49-0.253c0.74-0.074,1.592-0.691,1.891-1.373L81.239,9.211z"/>
	<path opacity="0.15" fill="#F65C2B" d="M82.93,13.594c0.929,0.113,1.492-0.057,2.976-0.65l-0.676-0.068
		c-0.741-0.074-1.592-0.691-1.891-1.373l-0.072-0.164C82.617,12.641,82.314,12.979,82.93,13.594z"/>
	<path opacity="0.15" fill="#F65C2B" d="M80.395,17.931c-1.769-1.325-2.297-3.142-2.141-5.047l-2.406,0.244
		c-0.738,0.075-0.892,0.542-0.336,1.038l1.867,1.666c0.553,0.496,0.878,1.496,0.721,2.224l-0.53,2.446
		c-0.156,0.727,0.24,1.015,0.883,0.641l2.163-1.26c0.643-0.375,1.694-0.375,2.337,0l2.163,1.26c0.643,0.374,1.039,0.086,0.883-0.641
		l-0.553-2.598C83.622,18.289,81.614,18.541,80.395,17.931z"/>
</g>
<g opacity="0.6">
	<path fill="#F6BAD3" d="M64.239,9.211c0.3-0.681,0.789-0.681,1.09,0l1.01,2.291c0.299,0.682,1.149,1.299,1.891,1.373l2.49,0.253
		c0.738,0.075,0.892,0.542,0.336,1.038l-1.866,1.666c-0.554,0.496-0.879,1.496-0.723,2.224l0.531,2.446
		c0.156,0.727-0.24,1.015-0.883,0.641l-2.163-1.26c-0.643-0.375-1.694-0.375-2.337,0l-2.163,1.26
		c-0.643,0.374-1.039,0.086-0.883-0.641l0.53-2.446c0.157-0.728-0.168-1.728-0.721-2.224l-1.867-1.666
		c-0.556-0.496-0.402-0.963,0.336-1.038l2.49-0.253c0.74-0.074,1.592-0.691,1.891-1.373L64.239,9.211z"/>
	<path opacity="0.15" fill="#F65C2B" d="M65.93,13.594c0.929,0.113,1.492-0.057,2.976-0.65l-0.676-0.068
		c-0.741-0.074-1.592-0.691-1.891-1.373l-0.072-0.164C65.617,12.641,65.314,12.979,65.93,13.594z"/>
	<path opacity="0.15" fill="#F65C2B" d="M63.395,17.931c-1.769-1.325-2.297-3.142-2.141-5.047l-2.406,0.244
		c-0.738,0.075-0.892,0.542-0.336,1.038l1.867,1.666c0.553,0.496,0.878,1.496,0.721,2.224l-0.53,2.446
		c-0.156,0.727,0.24,1.015,0.883,0.641l2.163-1.26c0.643-0.375,1.694-0.375,2.337,0l2.163,1.26c0.643,0.374,1.039,0.086,0.883-0.641
		l-0.553-2.598C66.622,18.289,64.614,18.541,63.395,17.931z"/>
</g>
<g opacity="0.6">
	<path fill="#F6BAD3" d="M47.239,9.211c0.3-0.681,0.789-0.681,1.09,0l1.01,2.291c0.299,0.682,1.149,1.299,1.891,1.373l2.49,0.253
		c0.738,0.075,0.892,0.542,0.336,1.038l-1.866,1.666c-0.554,0.496-0.879,1.496-0.723,2.224l0.531,2.446
		c0.156,0.727-0.24,1.015-0.883,0.641l-2.163-1.26c-0.643-0.375-1.694-0.375-2.337,0l-2.163,1.26
		c-0.643,0.374-1.039,0.086-0.883-0.641l0.53-2.446c0.157-0.728-0.168-1.728-0.721-2.224l-1.867-1.666
		c-0.556-0.496-0.402-0.963,0.336-1.038l2.49-0.253c0.74-0.074,1.592-0.691,1.891-1.373L47.239,9.211z"/>
	<path opacity="0.15" fill="#F65C2B" d="M48.93,13.594c0.929,0.113,1.492-0.057,2.976-0.65l-0.676-0.068
		c-0.741-0.074-1.592-0.691-1.891-1.373l-0.072-0.164C48.617,12.641,48.314,12.979,48.93,13.594z"/>
	<path opacity="0.15" fill="#F65C2B" d="M46.395,17.931c-1.769-1.325-2.297-3.142-2.141-5.047l-2.406,0.244
		c-0.738,0.075-0.892,0.542-0.336,1.038l1.867,1.666c0.553,0.496,0.878,1.496,0.721,2.224l-0.53,2.446
		c-0.156,0.727,0.24,1.015,0.883,0.641l2.163-1.26c0.643-0.375,1.694-0.375,2.337,0l2.163,1.26c0.643,0.374,1.039,0.086,0.883-0.641
		l-0.553-2.598C49.622,18.289,47.614,18.541,46.395,17.931z"/>
</g>
</svg>
