<?xml version="1.0" encoding="utf-8"?>
<!-- Generator: Adobe Illustrator 16.0.4, SVG Export Plug-In . SVG Version: 6.00 Build 0)  -->
<!DOCTYPE svg PUBLIC "-//W3C//DTD SVG 1.1//EN" "http://www.w3.org/Graphics/SVG/1.1/DTD/svg11.dtd">
<svg version="1.1" id="Layer_1" xmlns="http://www.w3.org/2000/svg" xmlns:xlink="http://www.w3.org/1999/xlink" x="0px" y="0px"
	 width="30px" height="30px" viewBox="0 0 30 30" enable-background="new 0 0 30 30" xml:space="preserve">
<g>
	
		<path fill="#F6BAD3" stroke="#F6BAD3" stroke-width="0.25" stroke-linecap="round" stroke-linejoin="round" stroke-miterlimit="10" d="
		M17.201,13.033c0,0-0.072-2.175-0.072-2.9c0-2.243-0.438-3.383-2.837-3.383c-1.031,0-1.704,0.184-2.058,0.561
		c-0.425,0.454-0.584,0.394-0.486,1.874c0.036,0.551-0.381,1.027-0.933,1.063c-0.555,0.024-1.027-0.381-1.063-0.933
		c-0.139-2.119,0.176-2.468,1.022-3.371c0.763-0.815,1.88-1.194,3.518-1.194c4.837,0,4.837,3.91,4.837,5.383
		c0,0.71,0.07,2.834,0.07,2.834L17.201,13.033z"/>
</g>
<g opacity="0.25">
	
		<path fill="#EDA9C8" stroke="#F6BAD3" stroke-width="0.25" stroke-linecap="round" stroke-linejoin="round" stroke-miterlimit="10" d="
		M12.125,6.281c-2.405,1-0.422,4.156-2.39,2.63c0.005,0.134,0.007,0.263,0.017,0.404c0.037,0.552,0.509,0.957,1.063,0.933
		c0.551-0.036,0.969-0.513,0.933-1.063c-0.098-1.48,0.062-1.42,0.486-1.874c0.354-0.377,1.026-0.561,2.058-0.561
		c2.398,0,2.837,1.14,2.837,3.383c0,0.726,0.02,1.086,0.02,1.086l1.394,0.665c0.277-2.282,0.028-3.83-1.417-5.259
		C16.092,5.604,14.042,5.514,12.125,6.281z"/>
</g>
<circle fill="#F6BAD3" stroke="#F6BAD3" stroke-width="0.25" stroke-linecap="round" stroke-linejoin="round" stroke-miterlimit="10" cx="14.962" cy="19.235" r="8.176"/>
<path opacity="0.25" fill="#EDA9C8" stroke="#F6BAD3" stroke-width="0.25" stroke-linecap="round" stroke-linejoin="round" stroke-miterlimit="10" d="
	M21.135,13.873c0.661,1.084,1.042,2.358,1.042,3.72c0,3.953-3.204,7.157-7.156,7.157c-3.951,0-7.155-3.204-7.155-7.157
	c0-1.544,0.49-2.975,1.323-4.146c-1.483,1.48-2.402,3.527-2.402,5.788c0,4.516,3.661,8.177,8.176,8.177
	c4.515,0,8.176-3.661,8.176-8.177C23.139,17.184,22.383,15.309,21.135,13.873z"/>
<path opacity="0.6" fill="#FFFFFF" stroke="#FFFFFF" stroke-width="0.25" stroke-linecap="round" stroke-linejoin="round" stroke-miterlimit="10" d="
	M16.42,17.279c-0.789,0-1.421,0.688-1.421,1.514c0-0.826-0.656-1.514-1.446-1.514s-1.446,0.64-1.446,1.43
	c0,1.494,2.893,3.183,2.893,3.183s2.844-1.688,2.844-3.183C17.843,17.919,17.21,17.279,16.42,17.279z"/>
</svg>
