<?xml version="1.0" encoding="utf-8"?>
<!-- Generator: Adobe Illustrator 16.0.4, SVG Export Plug-In . SVG Version: 6.00 Build 0)  -->
<!DOCTYPE svg PUBLIC "-//W3C//DTD SVG 1.1//EN" "http://www.w3.org/Graphics/SVG/1.1/DTD/svg11.dtd">
<svg version="1.1" id="Layer_1" xmlns="http://www.w3.org/2000/svg" xmlns:xlink="http://www.w3.org/1999/xlink" x="0px" y="0px"
	 width="30px" height="30px" viewBox="0 0 30 30" enable-background="new 0 0 30 30" xml:space="preserve">
<g>
	<g>
		<path fill="#FF901E" d="M25.662,11.132C25.662,16.726,15,29.791,15,29.791S4.338,16.726,4.338,11.132
			C4.338,5.537,9.111,0.291,15,0.291S25.662,5.537,25.662,11.132z"/>
		<path opacity="0.15" fill="#F65C2B" d="M24.218,6.057c0.411,1.091,0.646,2.267,0.646,3.503c0,5.495-4.308,10.901-9.804,10.901
			c-5.495,0-10.1-5.406-10.1-10.901c0-0.937,0.139-1.838,0.38-2.697c-0.637,1.298-1.003,2.742-1.003,4.269
			C4.338,16.726,15,29.791,15,29.791s10.662-13.065,10.662-18.659C25.662,9.28,25.132,7.549,24.218,6.057z"/>
	</g>
	<circle fill="#F6BAD3" cx="15.061" cy="10.796" r="4.739"/>
</g>
</svg>
