<?xml version="1.0" encoding="utf-8"?>
<!-- Generator: Adobe Illustrator 16.0.4, SVG Export Plug-In . SVG Version: 6.00 Build 0)  -->
<!DOCTYPE svg PUBLIC "-//W3C//DTD SVG 1.1//EN" "http://www.w3.org/Graphics/SVG/1.1/DTD/svg11.dtd">
<svg version="1.1" id="Layer_1" xmlns="http://www.w3.org/2000/svg" xmlns:xlink="http://www.w3.org/1999/xlink" x="0px" y="0px"
	 width="370.253px" height="370.253px" viewBox="0 0 370.253 370.253" enable-background="new 0 0 370.253 370.253"
	 xml:space="preserve">
<circle fill="#FF901E" cx="185.333" cy="206.023" r="134.333"/>
<ellipse fill="#F6BAD3" cx="106.271" cy="156.957" rx="21.729" ry="22.957"/>
<ellipse fill="#F6BAD3" cx="273.271" cy="156.957" rx="21.729" ry="22.957"/>
<circle fill="#333333" cx="111.184" cy="129.874" r="11.184"/>
<circle fill="#333333" cx="263.184" cy="129.874" r="11.184"/>
<path fill="#333333" stroke="#333333" stroke-linejoin="round" stroke-miterlimit="10" d="M274.447,154
	c0,0,1.899,40.25-84.703,40.25c-94.147,0-84.412-40.25-84.412-40.25s-7.832,31.123,84.56,31.123
	C274.514,185.123,274.447,154,274.447,154z"/>
<path fill="#FF901E" d="M105.332,98.363c0,0,3.37-77.097,23.987-69.663c20.617,7.434,23.197,56.743,23.197,56.743"/>
<path fill="#FF901E" d="M262.516,96.363c0,0-3.37-77.097-23.987-69.663c-20.617,7.434-23.197,56.743-23.197,56.743"/>
<path fill="#EE5A24" d="M132.5,85c0,0-1-34-9-34s-17.657,47.283-17.657,47.283S125.5,84.5,132.5,85z"/>
<path fill="#EE5A24" d="M234.844,83c0,0,1-34,9-34s17.657,47.283,17.657,47.283S241.844,82.5,234.844,83z"/>
<path opacity="0.15" fill="#F65C2B" d="M286.733,117.914c10.863,17.812,17.124,38.738,17.124,61.128
	c0,64.93-52.636,117.565-117.565,117.565S68.726,243.972,68.726,179.042c0-25.392,8.051-48.903,21.738-68.122
	C66.085,135.239,51,168.869,51,206.023c0,74.19,60.144,134.333,134.334,134.333c74.189,0,134.333-60.143,134.333-134.333
	C319.667,172.311,307.246,141.5,286.733,117.914z"/>
<path opacity="0.1" fill="#F65C2B" d="M132.5,86c0,0,6.5-25.5,0-40.5s-19.633,7-21.316,18.25s-5.341,35.533-5.341,35.533
	S125.75,82,132.5,86z"/>
<path opacity="0.05" fill="#F65C2B" d="M132.5,86c0,0,6.5-25.5,0-40.5s-19.633,7-21.316,18.25s-5.341,35.533-5.341,35.533
	S125.75,82,132.5,86z"/>
<path opacity="0.05" fill="#F65C2B" d="M234.73,84c0,0-6.5-25.5,0-40.5s19.633,7,21.316,18.25s5.341,35.533,5.341,35.533
	S241.48,80,234.73,84z"/>
<path fill="#BE272D" d="M193.5,195c0,0,9.08-8.593,22.167-12.352C235.334,177,259,181.5,262.5,199s16.699,22.847,23.166,18.674
	s23.538-6.304,23.62,11.614c0.086,18.712-59.619,57.045-82.442-23.254C223.613,194.667,207.747,195.008,193.5,195z"/>
</svg>
