<?xml version="1.0" encoding="utf-8"?>
<!-- Generator: Adobe Illustrator 16.0.4, SVG Export Plug-In . SVG Version: 6.00 Build 0)  -->
<!DOCTYPE svg PUBLIC "-//W3C//DTD SVG 1.1//EN" "http://www.w3.org/Graphics/SVG/1.1/DTD/svg11.dtd">
<svg version="1.1" id="Layer_1" xmlns="http://www.w3.org/2000/svg" xmlns:xlink="http://www.w3.org/1999/xlink" x="0px" y="0px"
	 width="30px" height="30px" viewBox="0 0 30 30" enable-background="new 0 0 30 30" xml:space="preserve">
<g>
	
		<path fill="#F6BAD3" stroke="#F6BAD3" stroke-width="0.25" stroke-linecap="round" stroke-linejoin="round" stroke-miterlimit="10" d="
		M18.186,10.913c0,0-0.093-2.797-0.093-3.73c0-2.887-0.564-4.353-3.65-4.353c-1.327,0-2.192,0.235-2.647,0.722
		c-0.546,0.583-0.751,0.506-0.625,2.41c0.046,0.708-0.491,1.321-1.2,1.368C9.256,7.362,8.649,6.841,8.602,6.131
		C8.422,3.403,8.829,2.956,9.917,1.794c0.981-1.05,2.419-1.536,4.525-1.536c6.223,0,6.223,5.029,6.223,6.925
		c0,0.913,0.091,3.645,0.091,3.645L18.186,10.913z"/>
</g>
<g opacity="0.25">
	
		<path fill="#EDA9C8" stroke="#F6BAD3" stroke-width="0.25" stroke-linecap="round" stroke-linejoin="round" stroke-miterlimit="10" d="
		M11.654,2.228C8.561,3.514,11.112,7.574,8.58,5.61c0.007,0.172,0.01,0.338,0.021,0.521C8.649,6.841,9.256,7.362,9.97,7.33
		c0.709-0.047,1.247-0.66,1.2-1.368c-0.126-1.904,0.079-1.827,0.625-2.41c0.455-0.486,1.32-0.722,2.647-0.722
		c3.086,0,3.65,1.466,3.65,4.353c0,0.934,0.025,1.396,0.025,1.396l1.792,0.855c0.357-2.936,0.037-4.927-1.823-6.766
		C16.758,1.355,14.122,1.24,11.654,2.228z"/>
</g>
<circle fill="#F6BAD3" stroke="#F6BAD3" stroke-width="0.25" stroke-linecap="round" stroke-linejoin="round" stroke-miterlimit="10" cx="15.305" cy="18.893" r="10.519"/>
<path opacity="0.25" fill="#EDA9C8" stroke="#F6BAD3" stroke-width="0.25" stroke-linecap="round" stroke-linejoin="round" stroke-miterlimit="10" d="
	M23.246,11.993c0.85,1.395,1.341,3.034,1.341,4.786c0,5.086-4.123,9.208-9.207,9.208c-5.083,0-9.205-4.122-9.205-9.208
	c0-1.986,0.63-3.827,1.702-5.334c-1.909,1.905-3.09,4.539-3.09,7.447c0,5.81,4.709,10.52,10.519,10.52
	c5.809,0,10.519-4.71,10.519-10.52C25.824,16.253,24.853,13.841,23.246,11.993z"/>
<path opacity="0.6" fill="#FFFFFF" stroke="#FFFFFF" stroke-width="0.25" stroke-linecap="round" stroke-linejoin="round" stroke-miterlimit="10" d="
	M17.181,16.376c-1.016,0-1.829,0.885-1.829,1.948c0-1.063-0.845-1.948-1.861-1.948s-1.86,0.822-1.86,1.84
	c0,1.922,3.721,4.094,3.721,4.094s3.659-2.172,3.659-4.094C19.011,17.198,18.196,16.376,17.181,16.376z"/>
</svg>
