<?xml version="1.0" encoding="utf-8"?>
<!-- Generator: Adobe Illustrator 16.0.4, SVG Export Plug-In . SVG Version: 6.00 Build 0)  -->
<!DOCTYPE svg PUBLIC "-//W3C//DTD SVG 1.1//EN" "http://www.w3.org/Graphics/SVG/1.1/DTD/svg11.dtd">
<svg version="1.1" id="Layer_1" xmlns="http://www.w3.org/2000/svg" xmlns:xlink="http://www.w3.org/1999/xlink" x="0px" y="0px"
	 width="30px" height="30px" viewBox="0 0 30 30" enable-background="new 0 0 30 30" xml:space="preserve">
<g>
	<g>
		<path fill="#F65C2B" d="M3.513,15c0,0,0.371-1.5,10.992-1.5S24.987,15,24.987,15s-5.229,1-10.483,1S5.65,16.5,3.513,15z"/>
		<path fill="#FF901E" d="M24.987,15c-0.176-0.181-1.008,0-1.008,0s-4.984,0.438-9.604,0.438C10,15.438,4.353,15,4.353,15
			s-0.693-0.15-0.84,0c-0.274,0.281-0.174,0.76-0.108,1.156C4.177,20.802,8.857,25.5,14.25,25.5c5.479,0,10.164-4.625,10.827-9.344
			C25.122,15.835,25.209,15.229,24.987,15z"/>
		<path opacity="0.15" fill="#F65C2B" d="M5.013,15.048C4.599,15.019,4.353,15,4.353,15s-0.693-0.15-0.84,0
			c-0.274,0.281-0.174,0.76-0.108,1.156C4.177,20.802,8.857,25.5,14.25,25.5c3.481,0,6.637-1.87,8.649-4.441
			C16.109,25.217,9.333,20.77,5.013,15.048z"/>
		<circle fill="#333333" cx="9.053" cy="18.182" r="0.74"/>
		<circle fill="#333333" cx="19.119" cy="18.182" r="0.741"/>
		<path fill="#333333" stroke="#333333" stroke-width="0.25" stroke-linejoin="round" stroke-miterlimit="10" d="M19.865,19.78
			c0,0-0.77,3.22-5.633,3.22c-4.693,0-5.566-3.22-5.566-3.22s0.293,1.983,5.6,2.061C19.521,21.917,19.865,19.78,19.865,19.78z"/>
		<path fill="#333333" d="M25.673,4.085c-0.382-0.299-0.613-0.002-0.613-0.002l-7.701,9.552l4.291-9.407
			c0,0,0.156-0.341-0.312-0.555c-0.441-0.201-0.597,0.141-0.597,0.141l-5.3,11.569c0.728,0,1.395,0,2.142-0.091l8.267-10.595
			C25.848,4.697,26.079,4.401,25.673,4.085z"/>
	</g>
	<path fill="#333333" stroke="#333333" stroke-width="0.25" stroke-linejoin="round" stroke-miterlimit="10" d="M8.742,19.991
		C8.69,19.862,8.666,19.78,8.666,19.78S8.68,19.862,8.742,19.991z"/>
	<path fill="#333333" stroke="#333333" stroke-width="0.25" stroke-linejoin="round" stroke-miterlimit="10" d="M19.826,19.907
		c0.029-0.077,0.039-0.127,0.039-0.127S19.853,19.828,19.826,19.907z"/>
	<path fill="#BE272D" d="M12.397,22.975c0.537,0.12,1.14,0.197,1.835,0.197c0.827,0,1.527-0.099,2.134-0.253
		C14.656,21.516,13.188,22.328,12.397,22.975z"/>
</g>
</svg>
