<?xml version="1.0" encoding="utf-8"?>
<!-- Generator: Adobe Illustrator 16.0.4, SVG Export Plug-In . SVG Version: 6.00 Build 0)  -->
<!DOCTYPE svg PUBLIC "-//W3C//DTD SVG 1.1//EN" "http://www.w3.org/Graphics/SVG/1.1/DTD/svg11.dtd">
<svg version="1.1" id="Layer_1" xmlns="http://www.w3.org/2000/svg" xmlns:xlink="http://www.w3.org/1999/xlink" x="0px" y="0px"
	 width="30px" height="30px" viewBox="0 0 30 30" enable-background="new 0 0 30 30" xml:space="preserve">
<g>
	<g>
		<path fill="#FF901E" d="M16.268,17.937c0,0-0.911,2.711-0.805,4.543c0.108,1.832,2.375,4.744,3.979,4.547
			c1.715-0.209-1.273-2.629-1.758-3.814s0.494-3.813,0.676-5.985C18.456,16.07,16.376,18.184,16.268,17.937z"/>
		<path opacity="0.15" fill="#F65C2B" d="M19.959,26.565c-0.062-0.806-1.902-2.442-2.275-3.352
			c-0.484-1.185,0.494-3.813,0.676-5.985c0.014-0.166-0.021-0.259-0.083-0.307C16.041,20.056,15.207,24.67,19.959,26.565z"/>
	</g>
	<g>
		<path fill="#FF901E" d="M17.407,19.153c0,0-2.557,1.339-3.45,2c-0.896,0.661-1.457,2.422-0.695,4.242s-0.495,2.614-1.225,1.355
			c-0.729-1.259-2.271-3.55-0.639-5.989c1.628-2.439,3.729-2.658,4.063-2.649C15.796,18.119,17.735,18.63,17.407,19.153z"/>
		<path opacity="0.15" fill="#F65C2B" d="M13.413,26.902c0.129-0.341,0.122-0.854-0.151-1.507c-0.762-1.82-0.201-3.582,0.695-4.242
			c0.584-0.432,1.875-1.152,2.702-1.6C12.533,19.254,10.804,23.874,13.413,26.902z"/>
	</g>
	<circle fill="#FF901E" cx="15.058" cy="13.279" r="8.106"/>
	<path opacity="0.15" fill="#F65C2B" d="M21.177,7.963c0.655,1.075,1.032,2.337,1.032,3.688c0,3.917-3.176,7.092-7.094,7.092
		c-3.917,0-7.094-3.175-7.094-7.092c0-1.532,0.485-2.951,1.313-4.111c-1.472,1.467-2.383,3.497-2.383,5.738
		c0,4.476,3.63,8.104,8.106,8.104c4.476,0,8.105-3.628,8.105-8.104C23.164,11.244,22.414,9.386,21.177,7.963z"/>
	<path fill="#FF901E" d="M14.061,5.612c0,0-0.322-1.708-0.505-1.98c-0.274-0.415-0.521-1.224,0.253-0.905
		c0.774,0.318,2.608,1.345,2.608,2.886C16.417,7.152,14.11,5.979,14.061,5.612z"/>
	<path fill="#FF901E" d="M12.744,5.753c0,0,0.091-1.07-0.41-1.617c-0.274-0.3-0.427-1,0.207-0.74
		c0.632,0.261,2.128,1.099,2.128,2.356C14.669,7.011,12.787,6.053,12.744,5.753z"/>
	<circle fill="#F6BAD3" cx="13.289" cy="9.96" r="1.222"/>
	<circle fill="#333333" cx="13.046" cy="8.578" r="0.544"/>
	
		<path fill="#333333" stroke="#333333" stroke-width="0.25" stroke-linecap="round" stroke-linejoin="round" stroke-miterlimit="10" d="
		M7.229,11.183c0,0,0.462,0.613,2.418,0.515c1.954-0.097,3.084-1.417,3.084-1.417s-1.435,1.653-3.037,2.004
		c-1.674,0.367-2.645-0.243-2.645-0.243L7.229,11.183z"/>
	<path fill="#F65C2B" d="M13.355,3.223c0.053,0.144,0.125,0.292,0.2,0.408c0.183,0.273,0.505,1.98,0.505,1.98
		c0.028,0.205,0.758,0.648,1.399,0.742C15.443,5.172,15.244,3.376,13.355,3.223z"/>
	<path fill="#F65C2B" d="M12.313,4.101c0.008,0.011,0.009,0.029,0.021,0.036c0.396,0.246,0.367,1.396,0.367,1.396
		c0.018,0.116,0.302-0.079,0.654,0.069C12.934,4.519,12.81,4.81,12.313,4.101z"/>
</g>
</svg>
