<?xml version="1.0" encoding="utf-8"?>
<!-- Generator: Adobe Illustrator 16.0.4, SVG Export Plug-In . SVG Version: 6.00 Build 0)  -->
<!DOCTYPE svg PUBLIC "-//W3C//DTD SVG 1.1//EN" "http://www.w3.org/Graphics/SVG/1.1/DTD/svg11.dtd">
<svg version="1.1" id="Layer_1" xmlns="http://www.w3.org/2000/svg" xmlns:xlink="http://www.w3.org/1999/xlink" x="0px" y="0px"
	 width="30px" height="30px" viewBox="0 0 30 30" enable-background="new 0 0 30 30" xml:space="preserve">
<g>
	<circle fill="#FF901E" cx="15" cy="15.001" r="14.634"/>
	<g>
		<path fill="#FFFFFF" d="M12.11,17.648h2.257v-2H12.11c-0.91,0-1.365-0.406-1.365-1.009c0-0.591,0.455-0.991,1.365-0.991h1.222
			l-2.876-4.262c-0.23-0.359-0.382-0.493-0.452-0.646c-0.07-0.155-0.105-0.261-0.105-0.447c0-0.333,0.101-0.57,0.304-0.772
			c0.201-0.202,0.462-0.288,0.783-0.288c0.327,0,0.591,0.107,0.793,0.307c0.201,0.198,0.437,0.522,0.707,0.965l3.105,4.867
			l2.778-4.584c0.103-0.181,0.212-0.366,0.327-0.563c0.115-0.195,0.229-0.362,0.336-0.498c0.109-0.139,0.246-0.252,0.409-0.343
			c0.164-0.089,0.357-0.135,0.582-0.135c0.32,0,0.582,0.098,0.783,0.294c0.202,0.195,0.303,0.434,0.303,0.717
			c0,0.224-0.039,0.429-0.12,0.615c-0.08,0.186-0.206,0.172-0.379,0.453l-2.771,4.321h1.223c0.902,0,1.354,0.4,1.354,0.991
			c0,0.603-0.452,1.009-1.354,1.009h-1.695v2h1.695c0.902,0,1.354-0.093,1.354,0.511c0,0.588-0.452,0.489-1.354,0.489h-1.695v1.225
			c0,1.302-0.627,1.952-1.49,1.952c-0.879,0-1.51-0.65-1.51-1.952v-1.225H12.11c-0.91,0-1.365,0.099-1.365-0.489
			C10.745,17.556,11.2,17.648,12.11,17.648z"/>
	</g>
	<g opacity="0.15">
		<path fill="#F65C2B" d="M14.999,0.366c-8.082,0-14.633,6.553-14.633,14.635s6.551,14.633,14.633,14.633
			c8.084,0,14.635-6.551,14.635-14.633S23.083,0.366,14.999,0.366z M14.284,27.014c-6.287,0-11.379-5.093-11.379-11.376
			c0-6.286,5.092-11.379,11.379-11.379c6.283,0,11.376,5.093,11.376,11.379C25.66,21.921,20.567,27.014,14.284,27.014z"/>
	</g>
</g>
</svg>
