<?xml version="1.0" encoding="utf-8"?>
<!-- Generator: Adobe Illustrator 16.0.4, SVG Export Plug-In . SVG Version: 6.00 Build 0)  -->
<!DOCTYPE svg PUBLIC "-//W3C//DTD SVG 1.1//EN" "http://www.w3.org/Graphics/SVG/1.1/DTD/svg11.dtd">
<svg version="1.1" id="Layer_1" xmlns="http://www.w3.org/2000/svg" xmlns:xlink="http://www.w3.org/1999/xlink" x="0px" y="0px"
	 width="30px" height="30px" viewBox="0 0 30 30" enable-background="new 0 0 30 30" xml:space="preserve">
<g>
	<path fill="#FF901E" d="M7.631,20.352c9.142,9.143,14.667,10.08,17.38,8.572c2.713-1.507,4.822-4.02,4.722-5.626
		c-0.1-1.607-3.516-4.421-4.42-5.325c-0.903-0.904-2.914-1.104-3.718,0c-0.805,1.106-1.302,2.814-2.812,2.512
		c-1.509-0.301-3.819-1.809-5.628-4.018c-1.808-2.211-4.621-5.427-3.416-6.229c1.205-0.805,2.612-2.512,2.914-3.417
		c0.301-0.903-1.005-2.41-2.11-3.717C9.44,1.798,7.731-0.612,5.622,0.792c-2.11,1.407-4.421,3.316-4.823,5.427
		S0.498,13.219,7.631,20.352z"/>
	<path opacity="0.15" fill="#F65C2B" d="M12.537,7.092c0.044-0.093,0.089-0.188,0.117-0.271c0.301-0.903-1.005-2.41-2.11-3.717
		C9.764,2.181,8.677,0.732,7.366,0.441C6.191,4.209,8.234,6.62,12.537,7.092z"/>
	<path opacity="0.15" fill="#F65C2B" d="M29.737,23.062c-0.807-1.616-3.652-4.317-4.424-5.09c-0.438-0.438-1.136-0.706-1.828-0.745
		C23.734,20.362,25.906,24.142,29.737,23.062z"/>
	<path opacity="0.15" fill="#F65C2B" d="M4.018,1.951C2.466,3.177,1.1,4.642,0.799,6.219c-0.402,2.11-0.301,7,6.832,14.133
		c9.142,9.143,14.667,10.08,17.38,8.572c1.164-0.646,2.201-1.478,3.016-2.343C14.934,27.105,1.031,15.949,4.018,1.951z"/>
</g>
</svg>
