<?xml version="1.0" encoding="utf-8"?>
<!-- Generator: Adobe Illustrator 16.0.4, SVG Export Plug-In . SVG Version: 6.00 Build 0)  -->
<!DOCTYPE svg PUBLIC "-//W3C//DTD SVG 1.1//EN" "http://www.w3.org/Graphics/SVG/1.1/DTD/svg11.dtd">
<svg version="1.1" id="Layer_1" xmlns="http://www.w3.org/2000/svg" xmlns:xlink="http://www.w3.org/1999/xlink" x="0px" y="0px"
	 width="30px" height="30px" viewBox="0 0 30 30" enable-background="new 0 0 30 30" xml:space="preserve">
<g>
	<circle fill="#FF901E" cx="14.917" cy="15.068" r="8.917"/>
	<g>
		<path fill="#F6BAD3" d="M12.932,16.693h1.318V15.85h-1.318c-0.555,0-0.832-0.184-0.832-0.551c0-0.359,0.277-0.539,0.832-0.539
			h0.744l-1.752-2.748c-0.141-0.219-0.232-0.375-0.275-0.469s-0.064-0.197-0.064-0.311c0-0.203,0.062-0.366,0.185-0.489
			s0.282-0.185,0.478-0.185c0.199,0,0.36,0.061,0.483,0.182s0.267,0.316,0.431,0.586l1.893,2.965l1.693-2.795
			c0.062-0.109,0.129-0.224,0.199-0.343s0.139-0.221,0.205-0.305s0.149-0.153,0.249-0.208s0.218-0.082,0.354-0.082
			c0.195,0,0.354,0.06,0.478,0.179s0.185,0.265,0.185,0.437c0,0.137-0.024,0.262-0.073,0.375s-0.126,0.256-0.231,0.428l-1.688,2.783
			h0.744c0.551,0,0.826,0.18,0.826,0.539c0,0.367-0.275,0.551-0.826,0.551h-1.324v0.844h1.324c0.551,0,0.826,0.184,0.826,0.551
			c0,0.359-0.275,0.539-0.826,0.539h-1.324v0.469c0,0.793-0.264,1.189-0.791,1.189c-0.535,0-0.803-0.396-0.803-1.189v-0.469h-1.318
			c-0.555,0-0.832-0.18-0.832-0.539C12.1,16.877,12.377,16.693,12.932,16.693z"/>
	</g>
	<g opacity="0.15">
		<path fill="#F65C2B" d="M14.916,6.15c-4.925,0-8.917,3.993-8.917,8.918s3.992,8.917,8.917,8.917c4.926,0,8.918-3.992,8.918-8.917
			S19.842,6.15,14.916,6.15z M14.479,22.389c-3.83,0-6.934-3.104-6.934-6.933c0-3.83,3.104-6.934,6.934-6.934
			c3.829,0,6.933,3.104,6.933,6.934C21.412,19.285,18.309,22.389,14.479,22.389z"/>
	</g>
</g>
</svg>
