<?xml version="1.0" encoding="utf-8"?>
<!-- Generator: Adobe Illustrator 16.0.4, SVG Export Plug-In . SVG Version: 6.00 Build 0)  -->
<!DOCTYPE svg PUBLIC "-//W3C//DTD SVG 1.1//EN" "http://www.w3.org/Graphics/SVG/1.1/DTD/svg11.dtd">
<svg version="1.1" id="Layer_1" xmlns="http://www.w3.org/2000/svg" xmlns:xlink="http://www.w3.org/1999/xlink" x="0px" y="0px"
	 width="95px" height="30px" viewBox="0 0 95 30" enable-background="new 0 0 95 30" xml:space="preserve">
<g>
	<g>
		<path fill="#FF901E" d="M12.419,8.17c0.3-0.681,0.789-0.681,1.09,0l1.01,2.291c0.299,0.681,1.15,1.299,1.891,1.373l2.49,0.253
			c0.738,0.075,0.892,0.542,0.336,1.038l-1.865,1.667c-0.555,0.496-0.88,1.496-0.723,2.223l0.53,2.446
			c0.156,0.727-0.24,1.015-0.883,0.641l-2.163-1.26c-0.643-0.375-1.694-0.375-2.337,0l-2.163,1.26
			c-0.643,0.374-1.039,0.085-0.883-0.641l0.53-2.446c0.157-0.728-0.168-1.728-0.721-2.223l-1.867-1.667
			c-0.556-0.496-0.402-0.963,0.336-1.038l2.49-0.253c0.741-0.074,1.592-0.692,1.891-1.373L12.419,8.17z"/>
		<path opacity="0.15" fill="#F65C2B" d="M14.109,12.552c0.929,0.114,1.493-0.056,2.976-0.649l-0.676-0.069
			c-0.74-0.074-1.592-0.692-1.891-1.373l-0.072-0.164C13.797,11.599,13.494,11.937,14.109,12.552z"/>
		<path opacity="0.15" fill="#F65C2B" d="M11.574,16.89c-1.769-1.326-2.297-3.142-2.14-5.047l-2.407,0.244
			c-0.738,0.075-0.892,0.542-0.336,1.038l1.867,1.667c0.553,0.496,0.878,1.496,0.721,2.223l-0.53,2.446
			c-0.156,0.727,0.24,1.015,0.883,0.641l2.163-1.26c0.643-0.375,1.694-0.375,2.337,0l2.163,1.26
			c0.643,0.374,1.039,0.085,0.883-0.641l-0.553-2.597C14.802,17.248,12.794,17.5,11.574,16.89z"/>
	</g>
	<g>
		<path fill="#FF901E" d="M29.98,8.17c0.299-0.681,0.789-0.681,1.089,0l1.01,2.291c0.3,0.681,1.15,1.299,1.892,1.373l2.489,0.253
			c0.739,0.075,0.893,0.542,0.337,1.038l-1.866,1.667c-0.555,0.496-0.879,1.496-0.723,2.223l0.53,2.446
			c0.157,0.727-0.24,1.015-0.883,0.641l-2.163-1.26c-0.642-0.375-1.694-0.375-2.336,0l-2.164,1.26
			c-0.642,0.374-1.039,0.085-0.882-0.641l0.53-2.446c0.156-0.728-0.168-1.728-0.722-2.223l-1.867-1.667
			c-0.556-0.496-0.402-0.963,0.337-1.038l2.489-0.253c0.741-0.074,1.592-0.692,1.892-1.373L29.98,8.17z"/>
		<path opacity="0.15" fill="#F65C2B" d="M31.67,12.552c0.93,0.114,1.493-0.056,2.976-0.649l-0.675-0.069
			c-0.741-0.074-1.592-0.692-1.892-1.373l-0.072-0.164C31.357,11.599,31.055,11.937,31.67,12.552z"/>
		<path opacity="0.15" fill="#F65C2B" d="M29.136,16.89c-1.77-1.326-2.297-3.142-2.141-5.047l-2.406,0.244
			c-0.739,0.075-0.893,0.542-0.337,1.038l1.867,1.667c0.554,0.496,0.878,1.496,0.722,2.223l-0.53,2.446
			c-0.157,0.727,0.24,1.015,0.882,0.641l2.164-1.26c0.642-0.375,1.694-0.375,2.336,0l2.163,1.26c0.643,0.374,1.04,0.085,0.883-0.641
			l-0.552-2.597C32.363,17.248,30.355,17.5,29.136,16.89z"/>
	</g>
	<g>
		<path fill="#FF901E" d="M47.541,8.17c0.3-0.681,0.789-0.681,1.09,0l1.01,2.291c0.299,0.681,1.149,1.299,1.891,1.373l2.49,0.253
			c0.738,0.075,0.892,0.542,0.336,1.038l-1.866,1.667c-0.554,0.496-0.879,1.496-0.723,2.223L52.3,19.46
			c0.156,0.727-0.24,1.015-0.883,0.641l-2.163-1.26c-0.643-0.375-1.694-0.375-2.337,0l-2.163,1.26
			c-0.643,0.374-1.039,0.085-0.883-0.641l0.53-2.446c0.157-0.728-0.168-1.728-0.721-2.223l-1.867-1.667
			c-0.556-0.496-0.402-0.963,0.336-1.038l2.49-0.253c0.74-0.074,1.591-0.692,1.891-1.373L47.541,8.17z"/>
		<path opacity="0.15" fill="#F65C2B" d="M49.23,12.552c0.93,0.114,1.493-0.056,2.977-0.649l-0.676-0.069
			c-0.741-0.074-1.592-0.692-1.891-1.373l-0.072-0.164C48.919,11.599,48.616,11.937,49.23,12.552z"/>
		<path opacity="0.15" fill="#F65C2B" d="M46.696,16.89c-1.769-1.326-2.297-3.142-2.141-5.047l-2.406,0.244
			c-0.738,0.075-0.892,0.542-0.336,1.038l1.867,1.667c0.553,0.496,0.878,1.496,0.721,2.223l-0.53,2.446
			c-0.156,0.727,0.24,1.015,0.883,0.641l2.163-1.26c0.643-0.375,1.694-0.375,2.337,0l2.163,1.26
			c0.643,0.374,1.039,0.085,0.883-0.641l-0.553-2.597C49.924,17.248,47.916,17.5,46.696,16.89z"/>
	</g>
	<g>
		<path fill="#FF901E" d="M64.224,8.17c0.3-0.681,0.789-0.681,1.09,0l1.01,2.291c0.3,0.681,1.15,1.299,1.891,1.373l2.49,0.253
			c0.738,0.075,0.892,0.542,0.336,1.038l-1.865,1.667c-0.555,0.496-0.88,1.496-0.723,2.223l0.53,2.446
			c0.156,0.727-0.24,1.015-0.883,0.641l-2.163-1.26c-0.643-0.375-1.694-0.375-2.337,0l-2.163,1.26
			c-0.643,0.374-1.039,0.085-0.883-0.641l0.531-2.446c0.156-0.728-0.168-1.728-0.722-2.223l-1.867-1.667
			c-0.556-0.496-0.402-0.963,0.336-1.038l2.49-0.253c0.741-0.074,1.592-0.692,1.892-1.373L64.224,8.17z"/>
		<path opacity="0.15" fill="#F65C2B" d="M65.914,12.552c0.93,0.114,1.493-0.056,2.976-0.649l-0.676-0.069
			c-0.74-0.074-1.591-0.692-1.891-1.373l-0.072-0.164C65.602,11.599,65.299,11.937,65.914,12.552z"/>
		<path opacity="0.15" fill="#F65C2B" d="M63.379,16.89c-1.769-1.326-2.297-3.142-2.14-5.047l-2.407,0.244
			c-0.738,0.075-0.892,0.542-0.336,1.038l1.867,1.667c0.554,0.496,0.878,1.496,0.722,2.223l-0.531,2.446
			c-0.156,0.727,0.24,1.015,0.883,0.641l2.163-1.26c0.643-0.375,1.694-0.375,2.337,0l2.163,1.26
			c0.643,0.374,1.039,0.085,0.883-0.641l-0.552-2.597C66.606,17.248,64.599,17.5,63.379,16.89z"/>
	</g>
	<g>
		<path fill="#FF901E" d="M81.492,8.17c0.3-0.681,0.789-0.681,1.09,0l1.01,2.291c0.299,0.681,1.149,1.299,1.891,1.373l2.49,0.253
			c0.738,0.075,0.892,0.542,0.336,1.038l-1.866,1.667c-0.554,0.496-0.879,1.496-0.723,2.223l0.531,2.446
			c0.156,0.727-0.24,1.015-0.883,0.641l-2.163-1.26c-0.643-0.375-1.694-0.375-2.337,0l-2.163,1.26
			c-0.643,0.374-1.039,0.085-0.883-0.641l0.53-2.446c0.157-0.728-0.168-1.728-0.721-2.223l-1.867-1.667
			c-0.556-0.496-0.402-0.963,0.336-1.038l2.49-0.253c0.74-0.074,1.592-0.692,1.891-1.373L81.492,8.17z"/>
		<path opacity="0.15" fill="#F65C2B" d="M83.183,12.552c0.929,0.114,1.492-0.056,2.976-0.649l-0.676-0.069
			c-0.741-0.074-1.592-0.692-1.891-1.373l-0.072-0.164C82.87,11.599,82.567,11.937,83.183,12.552z"/>
		<path opacity="0.15" fill="#F65C2B" d="M80.647,16.89c-1.769-1.326-2.297-3.142-2.141-5.047l-2.406,0.244
			c-0.738,0.075-0.892,0.542-0.336,1.038l1.867,1.667c0.553,0.496,0.878,1.496,0.721,2.223l-0.53,2.446
			c-0.156,0.727,0.24,1.015,0.883,0.641l2.163-1.26c0.643-0.375,1.694-0.375,2.337,0l2.163,1.26
			c0.643,0.374,1.039,0.085,0.883-0.641l-0.553-2.597C83.875,17.248,81.867,17.5,80.647,16.89z"/>
	</g>
</g>
</svg>
