<?xml version="1.0" encoding="utf-8"?>
<!-- Generator: Adobe Illustrator 16.0.4, SVG Export Plug-In . SVG Version: 6.00 Build 0)  -->
<!DOCTYPE svg PUBLIC "-//W3C//DTD SVG 1.1//EN" "http://www.w3.org/Graphics/SVG/1.1/DTD/svg11.dtd">
<svg version="1.1" id="Layer_1" xmlns="http://www.w3.org/2000/svg" xmlns:xlink="http://www.w3.org/1999/xlink" x="0px" y="0px"
	 width="30px" height="30px" viewBox="0 0 30 30" enable-background="new 0 0 30 30" xml:space="preserve">
<g>
	<g>
		<path fill="#FF901E" d="M18.634,11.064c0,0-0.095-2.837-0.095-3.783c0-2.928-0.572-4.414-3.7-4.414
			c-1.347,0-2.224,0.239-2.685,0.731C11.6,4.191,11.436,5.414,11.52,7.348c0.101,2.314,0.708,3.717-1.249,3.717
			c-0.494,0-0.893,1.028-1.087,0.54C8.829,10.71,8.9,7.985,8.915,7.52c0.096-2.985,0.229-4.524,1.334-5.704
			c0.995-1.063,2.452-1.558,4.59-1.558c6.31,0,6.31,5.102,6.31,7.023c0,0.926,0.093,3.697,0.093,3.697L18.634,11.064z"/>
	</g>
	<path fill="#FF901E" d="M21.148,7.281c0-1.922,0-7.023-6.31-7.023c-2.138,0-3.595,0.494-4.59,1.558
		C9.145,2.995,9.011,4.534,8.915,7.52C8.9,7.985,9.209,10.71,9.564,11.604C9.58,11.646,10,11.662,10,11.682v-0.66
		c1-2.609,0.924-7.828,0.924-7.828c7.652-5.466,8.702,0.977,9.672,7.812l0.74-0.027C21.336,10.979,21.148,8.207,21.148,7.281z"/>
	<path opacity="0.15" fill="#F65C2B" d="M10.869,4.212c-0.395,2.543-0.558,3.079-1.06,6.116l-0.74,0.863
		c0.207,0.232,0.747-0.127,1.201-0.127c1.957,0,1.35-1.402,1.249-3.717c-0.084-1.934,0.08-3.156,0.635-3.749
		c0.461-0.492,1.338-0.731,2.685-0.731c3.128,0,3.7,1.486,3.7,4.414c0,0.946,0.095,3.783,0.095,3.783l1.771-0.059
		c-0.454-3.205-0.688-3.506-1.382-7.013C18.519,1.44,11.594-0.449,10.869,4.212z"/>
</g>
<circle fill="#FF901E" cx="15.713" cy="19.156" r="10.667"/>
<path opacity="0.15" fill="#F65C2B" d="M23.767,12.16c0.862,1.415,1.358,3.077,1.358,4.854c0,5.157-4.18,9.338-9.337,9.338
	c-5.154,0-9.335-4.181-9.335-9.338c0-2.016,0.641-3.881,1.725-5.409c-1.933,1.932-3.132,4.602-3.132,7.552
	c0,5.892,4.776,10.668,10.668,10.668c5.89,0,10.666-4.776,10.666-10.668C26.38,16.479,25.395,14.033,23.767,12.16z"/>
<path fill="#F6BAD3" stroke="#F6BAD3" stroke-width="0.25" stroke-linecap="round" stroke-linejoin="round" stroke-miterlimit="10" d="
	M17.614,15.3c-1.029,0-1.854,0.897-1.854,1.976c0-1.078-0.856-1.976-1.887-1.976c-1.031,0-1.887,0.834-1.887,1.864
	c0,1.95,3.773,4.152,3.773,4.152s3.71-2.202,3.71-4.152C19.471,16.134,18.646,15.3,17.614,15.3z"/>
</svg>
