<?xml version="1.0" encoding="utf-8"?>
<!-- Generator: Adobe Illustrator 16.0.4, SVG Export Plug-In . SVG Version: 6.00 Build 0)  -->
<!DOCTYPE svg PUBLIC "-//W3C//DTD SVG 1.1//EN" "http://www.w3.org/Graphics/SVG/1.1/DTD/svg11.dtd">
<svg version="1.1" id="Layer_1" xmlns="http://www.w3.org/2000/svg" xmlns:xlink="http://www.w3.org/1999/xlink" x="0px" y="0px"
	 width="30px" height="30px" viewBox="0 0 30 30" enable-background="new 0 0 30 30" xml:space="preserve">
<g>
	<g>
		<path fill="#FF901E" d="M17.201,13.033c0,0-0.072-2.175-0.072-2.9c0-2.243-0.438-3.383-2.837-3.383
			c-1.031,0-1.704,0.184-2.058,0.561c-0.425,0.454-0.551,1.392-0.486,2.874c0.077,1.773,0.543,2.849-0.957,2.849
			c-0.379,0-0.685,0.788-0.833,0.414c-0.272-0.686-0.218-2.774-0.206-3.132c0.073-2.287,0.176-3.468,1.022-4.371
			c0.763-0.815,1.88-1.194,3.518-1.194c4.837,0,4.837,3.91,4.837,5.383c0,0.71,0.07,2.834,0.07,2.834L17.201,13.033z"/>
	</g>
	<path fill="#FF901E" d="M19.129,10.133c0-1.473,0-5.383-4.837-5.383c-1.638,0-2.755,0.379-3.518,1.194
		c-0.847,0.903-0.949,2.084-1.022,4.371c-0.012,0.357-0.066,2.446,0.206,3.132c0.013,0.031,0.027,0.044,0.042,0.06V13c1-2,1-6,1-6
		c5.865-4.189,6.815,0.748,7.559,5.988l0.641-0.021C19.199,12.967,19.129,10.843,19.129,10.133z"/>
	<path opacity="0.15" fill="#F65C2B" d="M11.25,7.781c-0.303,1.948-0.428,2.359-0.812,4.688L9.87,13.131
		c0.159,0.178,0.573-0.098,0.921-0.098c1.5,0,1.034-1.075,0.957-2.849c-0.064-1.482,0.062-2.42,0.486-2.874
		c0.354-0.377,1.026-0.561,2.058-0.561c2.398,0,2.837,1.14,2.837,3.383c0,0.726,0.072,2.9,0.072,2.9l1.357-0.045
		c-0.348-2.457-0.527-2.688-1.059-5.375C17.113,5.656,11.805,4.208,11.25,7.781z"/>
</g>
<circle fill="#FF901E" cx="14.962" cy="19.235" r="8.176"/>
<path opacity="0.15" fill="#F65C2B" d="M21.135,13.873c0.661,1.084,1.042,2.358,1.042,3.72c0,3.953-3.204,7.157-7.156,7.157
	c-3.951,0-7.155-3.204-7.155-7.157c0-1.544,0.49-2.975,1.322-4.146c-1.482,1.48-2.401,3.527-2.401,5.788
	c0,4.516,3.661,8.177,8.177,8.177c4.515,0,8.176-3.661,8.176-8.177C23.139,17.184,22.383,15.309,21.135,13.873z"/>
<path fill="#F6BAD3" stroke="#F6BAD3" stroke-width="0.25" stroke-linecap="round" stroke-linejoin="round" stroke-miterlimit="10" d="
	M16.42,16.279c-0.789,0-1.421,0.688-1.421,1.514c0-0.826-0.656-1.514-1.446-1.514s-1.446,0.64-1.446,1.43
	c0,1.494,2.893,3.183,2.893,3.183s2.844-1.688,2.844-3.183C17.843,16.919,17.21,16.279,16.42,16.279z"/>
</svg>
