<?xml version="1.0" encoding="utf-8"?>
<!-- Generator: Adobe Illustrator 16.0.4, SVG Export Plug-In . SVG Version: 6.00 Build 0)  -->
<!DOCTYPE svg PUBLIC "-//W3C//DTD SVG 1.1//EN" "http://www.w3.org/Graphics/SVG/1.1/DTD/svg11.dtd">
<svg version="1.1" id="Layer_1" xmlns="http://www.w3.org/2000/svg" xmlns:xlink="http://www.w3.org/1999/xlink" x="0px" y="0px"
	 width="30px" height="30px" viewBox="0 0 30 30" enable-background="new 0 0 30 30" xml:space="preserve">
<g>
	<g>
		<path fill="#FF901E" d="M22.625,12.345c0,4.285-8.167,14.293-8.167,14.293S6.291,16.63,6.291,12.345
			c0-4.286,3.656-8.304,8.167-8.304C18.969,4.041,22.625,8.06,22.625,12.345z"/>
		<path opacity="0.15" fill="#F65C2B" d="M21.519,8.458c0.315,0.835,0.495,1.736,0.495,2.683c0,4.209-3.3,8.35-7.51,8.35
			c-4.209,0-7.736-4.141-7.736-8.35c0-0.717,0.106-1.408,0.292-2.066c-0.488,0.994-0.769,2.1-0.769,3.27
			c0,4.285,8.167,14.293,8.167,14.293s8.167-10.008,8.167-14.293C22.625,10.927,22.218,9.601,21.519,8.458z"/>
	</g>
	<circle fill="#F6BAD3" cx="14.504" cy="12.088" r="3.63"/>
</g>
</svg>
